G04 #@! TF.GenerationSoftware,KiCad,Pcbnew,8.0.0*
G04 #@! TF.CreationDate,2024-05-22T11:22:58+03:00*
G04 #@! TF.ProjectId,B-NAU7802-BRK-01MBR-R01,422d4e41-5537-4383-9032-2d42524b2d30,rev?*
G04 #@! TF.SameCoordinates,Original*
G04 #@! TF.FileFunction,Copper,L2,Bot*
G04 #@! TF.FilePolarity,Positive*
%FSLAX46Y46*%
G04 Gerber Fmt 4.6, Leading zero omitted, Abs format (unit mm)*
G04 Created by KiCad (PCBNEW 8.0.0) date 2024-05-22 11:22:58*
%MOMM*%
%LPD*%
G01*
G04 APERTURE LIST*
G04 Aperture macros list*
%AMRoundRect*
0 Rectangle with rounded corners*
0 $1 Rounding radius*
0 $2 $3 $4 $5 $6 $7 $8 $9 X,Y pos of 4 corners*
0 Add a 4 corners polygon primitive as box body*
4,1,4,$2,$3,$4,$5,$6,$7,$8,$9,$2,$3,0*
0 Add four circle primitives for the rounded corners*
1,1,$1+$1,$2,$3*
1,1,$1+$1,$4,$5*
1,1,$1+$1,$6,$7*
1,1,$1+$1,$8,$9*
0 Add four rect primitives between the rounded corners*
20,1,$1+$1,$2,$3,$4,$5,0*
20,1,$1+$1,$4,$5,$6,$7,0*
20,1,$1+$1,$6,$7,$8,$9,0*
20,1,$1+$1,$8,$9,$2,$3,0*%
G04 Aperture macros list end*
G04 #@! TA.AperFunction,ComponentPad*
%ADD10R,2.300000X2.300000*%
G04 #@! TD*
G04 #@! TA.AperFunction,ComponentPad*
%ADD11C,2.300000*%
G04 #@! TD*
G04 #@! TA.AperFunction,ComponentPad*
%ADD12C,1.700000*%
G04 #@! TD*
G04 #@! TA.AperFunction,ComponentPad*
%ADD13O,1.700000X1.700000*%
G04 #@! TD*
G04 #@! TA.AperFunction,ComponentPad*
%ADD14O,1.700000X1.950000*%
G04 #@! TD*
G04 #@! TA.AperFunction,ComponentPad*
%ADD15RoundRect,0.250000X-0.600000X-0.725000X0.600000X-0.725000X0.600000X0.725000X-0.600000X0.725000X0*%
G04 #@! TD*
G04 #@! TA.AperFunction,ViaPad*
%ADD16C,1.000000*%
G04 #@! TD*
G04 #@! TA.AperFunction,ViaPad*
%ADD17C,0.800000*%
G04 #@! TD*
G04 #@! TA.AperFunction,Conductor*
%ADD18C,0.400000*%
G04 #@! TD*
G04 #@! TA.AperFunction,Conductor*
%ADD19C,0.250000*%
G04 #@! TD*
G04 APERTURE END LIST*
D10*
X163040000Y-67690000D03*
D11*
X163040000Y-71190000D03*
X163040000Y-74690000D03*
X163040000Y-78190000D03*
D10*
X193010000Y-78190000D03*
D11*
X193010000Y-74690000D03*
X193010000Y-71190000D03*
X193010000Y-67690000D03*
D12*
X168770000Y-70430000D03*
D13*
X168770000Y-67890000D03*
X168770000Y-65350000D03*
D14*
X174480000Y-67385000D03*
X176980000Y-67385000D03*
X179480000Y-67385000D03*
D15*
X181980000Y-67385000D03*
D16*
X180030000Y-70580000D03*
X175570000Y-70590000D03*
X168720000Y-78170000D03*
D17*
X179000000Y-73300000D03*
D16*
X171550000Y-72360000D03*
D17*
X174450000Y-74770000D03*
X183730000Y-75820000D03*
X174430000Y-76310000D03*
X183170000Y-77410000D03*
D18*
X175570000Y-70590000D02*
X175580000Y-70580000D01*
X175580000Y-70580000D02*
X180030000Y-70580000D01*
X191010000Y-67680000D02*
X191020000Y-67690000D01*
X168760000Y-78130000D02*
X168760000Y-70440000D01*
X168770000Y-70430000D02*
X170920000Y-70430000D01*
X168720000Y-78170000D02*
X168720000Y-78050000D01*
D19*
X168760000Y-70440000D02*
X168770000Y-70430000D01*
D18*
X191020000Y-67690000D02*
X193010000Y-67690000D01*
X168720000Y-78050000D02*
X168760000Y-78010000D01*
X170920000Y-70430000D02*
X172020000Y-69330000D01*
X168720000Y-78170000D02*
X168760000Y-78130000D01*
X189360000Y-69330000D02*
X191010000Y-67680000D01*
X172020000Y-69330000D02*
X189360000Y-69330000D01*
D19*
X178320000Y-72450000D02*
X171640000Y-72450000D01*
X171640000Y-72450000D02*
X171550000Y-72360000D01*
X179000000Y-73130000D02*
X178320000Y-72450000D01*
X179000000Y-73300000D02*
X179000000Y-73130000D01*
X192990000Y-74440000D02*
X193020000Y-74470000D01*
X183730000Y-75820000D02*
X182680000Y-74770000D01*
X182680000Y-74770000D02*
X174450000Y-74770000D01*
X182070000Y-76310000D02*
X183170000Y-77410000D01*
X174430000Y-76310000D02*
X182070000Y-76310000D01*
G04 #@! TA.AperFunction,Conductor*
G36*
X176555487Y-63370146D02*
G01*
X176601242Y-63422950D01*
X176606780Y-63437399D01*
X176608358Y-63442438D01*
X176608358Y-63442439D01*
X176637783Y-63502945D01*
X176712909Y-63657427D01*
X176848234Y-63854501D01*
X177011331Y-64029288D01*
X177198580Y-64177911D01*
X177405828Y-64297071D01*
X177628477Y-64384126D01*
X177628482Y-64384127D01*
X177628485Y-64384128D01*
X177721721Y-64405333D01*
X177861587Y-64437144D01*
X178099986Y-64454948D01*
X178338385Y-64437144D01*
X178571495Y-64384126D01*
X178794143Y-64297071D01*
X179001392Y-64177911D01*
X179188641Y-64029288D01*
X179351738Y-63854501D01*
X179487063Y-63657427D01*
X179591614Y-63442438D01*
X179593192Y-63437397D01*
X179632014Y-63379308D01*
X179696080Y-63351427D01*
X179711524Y-63350461D01*
X196488679Y-63350461D01*
X196555718Y-63370146D01*
X196601139Y-63422223D01*
X196695857Y-63626137D01*
X196804287Y-63793437D01*
X196818101Y-63814750D01*
X196965507Y-63984430D01*
X196965509Y-63984431D01*
X196965511Y-63984434D01*
X197135179Y-64131845D01*
X197135181Y-64131846D01*
X197323781Y-64254098D01*
X197323788Y-64254102D01*
X197527728Y-64348845D01*
X197580234Y-64394942D01*
X197599485Y-64461302D01*
X197599485Y-81238637D01*
X197579800Y-81305676D01*
X197527726Y-81351095D01*
X197323803Y-81445824D01*
X197135189Y-81568074D01*
X197135184Y-81568078D01*
X196965514Y-81715480D01*
X196818098Y-81885157D01*
X196695849Y-82073758D01*
X196601102Y-82277705D01*
X196555004Y-82330210D01*
X196488645Y-82349461D01*
X179711526Y-82349461D01*
X179644487Y-82329776D01*
X179598732Y-82276972D01*
X179593197Y-82262530D01*
X179591620Y-82257498D01*
X179591617Y-82257492D01*
X179591615Y-82257483D01*
X179562116Y-82196823D01*
X179487067Y-82042499D01*
X179487064Y-82042494D01*
X179351739Y-81845420D01*
X179188642Y-81670632D01*
X179139467Y-81631601D01*
X179001395Y-81522011D01*
X178947351Y-81490938D01*
X178794144Y-81402849D01*
X178658551Y-81349832D01*
X178571496Y-81315794D01*
X178571486Y-81315791D01*
X178338396Y-81262778D01*
X178338388Y-81262776D01*
X178099986Y-81244972D01*
X177861583Y-81262776D01*
X177861575Y-81262778D01*
X177628485Y-81315791D01*
X177628474Y-81315794D01*
X177440720Y-81389205D01*
X177405827Y-81402849D01*
X177405825Y-81402849D01*
X177405825Y-81402850D01*
X177198577Y-81522011D01*
X177198576Y-81522011D01*
X177011333Y-81670629D01*
X177011331Y-81670631D01*
X176848232Y-81845421D01*
X176712906Y-82042498D01*
X176608357Y-82257481D01*
X176608351Y-82257496D01*
X176606775Y-82262530D01*
X176567950Y-82320620D01*
X176503882Y-82348496D01*
X176488446Y-82349461D01*
X159711371Y-82349461D01*
X159644332Y-82329776D01*
X159598914Y-82277705D01*
X159598860Y-82277589D01*
X159598859Y-82277585D01*
X159504157Y-82073740D01*
X159381898Y-81885130D01*
X159287092Y-81776010D01*
X159234485Y-81715460D01*
X159234482Y-81715458D01*
X159234481Y-81715456D01*
X159064833Y-81568078D01*
X159064797Y-81568047D01*
X158876180Y-81445798D01*
X158672247Y-81351070D01*
X158619739Y-81304975D01*
X158600485Y-81238610D01*
X158600485Y-78190000D01*
X161684341Y-78190000D01*
X161704936Y-78425403D01*
X161704938Y-78425413D01*
X161766094Y-78653655D01*
X161766096Y-78653659D01*
X161766097Y-78653663D01*
X161811362Y-78750734D01*
X161865965Y-78867830D01*
X161865967Y-78867834D01*
X161974281Y-79022521D01*
X162001505Y-79061401D01*
X162168599Y-79228495D01*
X162265384Y-79296265D01*
X162362165Y-79364032D01*
X162362167Y-79364033D01*
X162362170Y-79364035D01*
X162576337Y-79463903D01*
X162804592Y-79525063D01*
X162981034Y-79540500D01*
X163039999Y-79545659D01*
X163040000Y-79545659D01*
X163040001Y-79545659D01*
X163098966Y-79540500D01*
X163275408Y-79525063D01*
X163503663Y-79463903D01*
X163717830Y-79364035D01*
X163723947Y-79359752D01*
X191659500Y-79359752D01*
X191671131Y-79418229D01*
X191671132Y-79418230D01*
X191715447Y-79484552D01*
X191781769Y-79528867D01*
X191781770Y-79528868D01*
X191840247Y-79540499D01*
X191840250Y-79540500D01*
X191840252Y-79540500D01*
X194179750Y-79540500D01*
X194179751Y-79540499D01*
X194194568Y-79537552D01*
X194238229Y-79528868D01*
X194238229Y-79528867D01*
X194238231Y-79528867D01*
X194304552Y-79484552D01*
X194348867Y-79418231D01*
X194348867Y-79418229D01*
X194348868Y-79418229D01*
X194360499Y-79359752D01*
X194360500Y-79359750D01*
X194360500Y-77020249D01*
X194360499Y-77020247D01*
X194348868Y-76961770D01*
X194348867Y-76961769D01*
X194304552Y-76895447D01*
X194238230Y-76851132D01*
X194238229Y-76851131D01*
X194179752Y-76839500D01*
X194179748Y-76839500D01*
X191840252Y-76839500D01*
X191840247Y-76839500D01*
X191781770Y-76851131D01*
X191781769Y-76851132D01*
X191715447Y-76895447D01*
X191671132Y-76961769D01*
X191671131Y-76961770D01*
X191659500Y-77020247D01*
X191659500Y-79359752D01*
X163723947Y-79359752D01*
X163911401Y-79228495D01*
X164078495Y-79061401D01*
X164214035Y-78867830D01*
X164313903Y-78653663D01*
X164375063Y-78425408D01*
X164395659Y-78190000D01*
X164375063Y-77954592D01*
X164313903Y-77726337D01*
X164214035Y-77512171D01*
X164142495Y-77410000D01*
X164078494Y-77318597D01*
X163911402Y-77151506D01*
X163911395Y-77151501D01*
X163906946Y-77148386D01*
X163848070Y-77107160D01*
X163717834Y-77015967D01*
X163717830Y-77015965D01*
X163644383Y-76981716D01*
X163503663Y-76916097D01*
X163503659Y-76916096D01*
X163503655Y-76916094D01*
X163275413Y-76854938D01*
X163275403Y-76854936D01*
X163040001Y-76834341D01*
X163039999Y-76834341D01*
X162804596Y-76854936D01*
X162804586Y-76854938D01*
X162576344Y-76916094D01*
X162576335Y-76916098D01*
X162362171Y-77015964D01*
X162362169Y-77015965D01*
X162168597Y-77151505D01*
X162001505Y-77318597D01*
X161865965Y-77512169D01*
X161865964Y-77512171D01*
X161766098Y-77726335D01*
X161766094Y-77726344D01*
X161704938Y-77954586D01*
X161704936Y-77954596D01*
X161684341Y-78189999D01*
X161684341Y-78190000D01*
X158600485Y-78190000D01*
X158600485Y-74940000D01*
X161709364Y-74940000D01*
X161766567Y-75153486D01*
X161766570Y-75153492D01*
X161866399Y-75367578D01*
X162001894Y-75561082D01*
X162168917Y-75728105D01*
X162362421Y-75863600D01*
X162576507Y-75963429D01*
X162576516Y-75963433D01*
X162790000Y-76020634D01*
X162790000Y-75238482D01*
X162808409Y-75249111D01*
X162961009Y-75290000D01*
X163118991Y-75290000D01*
X163271591Y-75249111D01*
X163290000Y-75238482D01*
X163290000Y-76020633D01*
X163503483Y-75963433D01*
X163503492Y-75963429D01*
X163717578Y-75863600D01*
X163911082Y-75728105D01*
X164078105Y-75561082D01*
X164213600Y-75367578D01*
X164313429Y-75153492D01*
X164313432Y-75153486D01*
X164370636Y-74940000D01*
X163588482Y-74940000D01*
X163599111Y-74921591D01*
X163640000Y-74768991D01*
X163640000Y-74611009D01*
X163599111Y-74458409D01*
X163588482Y-74440000D01*
X164370636Y-74440000D01*
X164370635Y-74439999D01*
X164313432Y-74226513D01*
X164313429Y-74226507D01*
X164213600Y-74012422D01*
X164213599Y-74012420D01*
X164078113Y-73818926D01*
X164078108Y-73818920D01*
X163911082Y-73651894D01*
X163717578Y-73516399D01*
X163503492Y-73416570D01*
X163503486Y-73416567D01*
X163290000Y-73359364D01*
X163290000Y-74141517D01*
X163271591Y-74130889D01*
X163118991Y-74090000D01*
X162961009Y-74090000D01*
X162808409Y-74130889D01*
X162790000Y-74141517D01*
X162790000Y-73359364D01*
X162789999Y-73359364D01*
X162576513Y-73416567D01*
X162576507Y-73416570D01*
X162362422Y-73516399D01*
X162362420Y-73516400D01*
X162168926Y-73651886D01*
X162168920Y-73651891D01*
X162001891Y-73818920D01*
X162001886Y-73818926D01*
X161866400Y-74012420D01*
X161866399Y-74012422D01*
X161766570Y-74226507D01*
X161766567Y-74226513D01*
X161709364Y-74439999D01*
X161709364Y-74440000D01*
X162491518Y-74440000D01*
X162480889Y-74458409D01*
X162440000Y-74611009D01*
X162440000Y-74768991D01*
X162480889Y-74921591D01*
X162491518Y-74940000D01*
X161709364Y-74940000D01*
X158600485Y-74940000D01*
X158600485Y-71190000D01*
X161684341Y-71190000D01*
X161704936Y-71425403D01*
X161704938Y-71425413D01*
X161766094Y-71653655D01*
X161766096Y-71653659D01*
X161766097Y-71653663D01*
X161824667Y-71779266D01*
X161865965Y-71867830D01*
X161865967Y-71867834D01*
X161882939Y-71892072D01*
X162001505Y-72061401D01*
X162168599Y-72228495D01*
X162265384Y-72296265D01*
X162362165Y-72364032D01*
X162362167Y-72364033D01*
X162362170Y-72364035D01*
X162576337Y-72463903D01*
X162804592Y-72525063D01*
X162992918Y-72541539D01*
X163039999Y-72545659D01*
X163040000Y-72545659D01*
X163040001Y-72545659D01*
X163079234Y-72542226D01*
X163275408Y-72525063D01*
X163503663Y-72463903D01*
X163717830Y-72364035D01*
X163911401Y-72228495D01*
X164078495Y-72061401D01*
X164214035Y-71867830D01*
X164313903Y-71653663D01*
X164375063Y-71425408D01*
X164395659Y-71190000D01*
X164393098Y-71160734D01*
X164377898Y-70986997D01*
X164375063Y-70954592D01*
X164313903Y-70726337D01*
X164214035Y-70512171D01*
X164156499Y-70430000D01*
X167714417Y-70430000D01*
X167734699Y-70635932D01*
X167768612Y-70747729D01*
X167793720Y-70830500D01*
X167794768Y-70833953D01*
X167796520Y-70838183D01*
X167797431Y-70840098D01*
X167799708Y-70845533D01*
X167799709Y-70845534D01*
X168329472Y-72109612D01*
X168349863Y-72158266D01*
X168359500Y-72206194D01*
X168359500Y-77104634D01*
X168351525Y-77148386D01*
X168069767Y-77895567D01*
X168067424Y-77908992D01*
X168061213Y-77931638D01*
X168034861Y-78001122D01*
X168034859Y-78001130D01*
X168014355Y-78170000D01*
X168034859Y-78338869D01*
X168034860Y-78338874D01*
X168095182Y-78497931D01*
X168157475Y-78588177D01*
X168191817Y-78637929D01*
X168297505Y-78731560D01*
X168319150Y-78750736D01*
X168469773Y-78829789D01*
X168469775Y-78829790D01*
X168634944Y-78870500D01*
X168805056Y-78870500D01*
X168970225Y-78829790D01*
X169049692Y-78788081D01*
X169120849Y-78750736D01*
X169120850Y-78750734D01*
X169120852Y-78750734D01*
X169248183Y-78637929D01*
X169344818Y-78497930D01*
X169405140Y-78338872D01*
X169425645Y-78170000D01*
X169405140Y-78001128D01*
X169405139Y-78001126D01*
X169405139Y-78001124D01*
X169384861Y-77947656D01*
X169378673Y-77919751D01*
X169378259Y-77919824D01*
X169377214Y-77913817D01*
X169372155Y-77895567D01*
X169165917Y-77151506D01*
X169165005Y-77148216D01*
X169160500Y-77115095D01*
X169160500Y-76310001D01*
X173824318Y-76310001D01*
X173844955Y-76466760D01*
X173844956Y-76466762D01*
X173905464Y-76612841D01*
X174001718Y-76738282D01*
X174127159Y-76834536D01*
X174273238Y-76895044D01*
X174351619Y-76905363D01*
X174429999Y-76915682D01*
X174430000Y-76915682D01*
X174430001Y-76915682D01*
X174444795Y-76913734D01*
X174586762Y-76895044D01*
X174630268Y-76877022D01*
X174657344Y-76869270D01*
X174666320Y-76867775D01*
X175259577Y-76643510D01*
X175303423Y-76635500D01*
X181883811Y-76635500D01*
X181950850Y-76655185D01*
X181971492Y-76671819D01*
X182322229Y-77022556D01*
X182347569Y-77059224D01*
X182608488Y-77637301D01*
X182614525Y-77645903D01*
X182627587Y-77669682D01*
X182645462Y-77712838D01*
X182645463Y-77712839D01*
X182645464Y-77712841D01*
X182741718Y-77838282D01*
X182867159Y-77934536D01*
X183013238Y-77995044D01*
X183059466Y-78001130D01*
X183169999Y-78015682D01*
X183170000Y-78015682D01*
X183170001Y-78015682D01*
X183222254Y-78008802D01*
X183326762Y-77995044D01*
X183472841Y-77934536D01*
X183598282Y-77838282D01*
X183694536Y-77712841D01*
X183755044Y-77566762D01*
X183775682Y-77410000D01*
X183755044Y-77253238D01*
X183694536Y-77107159D01*
X183598282Y-76981718D01*
X183598280Y-76981717D01*
X183598280Y-76981716D01*
X183472841Y-76885464D01*
X183472838Y-76885462D01*
X183429338Y-76867444D01*
X183404713Y-76853783D01*
X183397301Y-76848488D01*
X182875215Y-76612841D01*
X182819224Y-76587569D01*
X182782556Y-76562229D01*
X182269864Y-76049537D01*
X182269862Y-76049535D01*
X182227472Y-76025061D01*
X182195640Y-76006682D01*
X182154246Y-75995591D01*
X182112853Y-75984500D01*
X182112852Y-75984500D01*
X175303426Y-75984500D01*
X175259580Y-75976489D01*
X174681076Y-75757801D01*
X174681060Y-75757796D01*
X174666318Y-75752223D01*
X174662331Y-75751524D01*
X174655958Y-75750407D01*
X174629918Y-75742831D01*
X174586762Y-75724956D01*
X174508381Y-75714637D01*
X174430001Y-75704318D01*
X174429999Y-75704318D01*
X174273239Y-75724955D01*
X174273237Y-75724956D01*
X174127160Y-75785463D01*
X174001718Y-75881718D01*
X173905463Y-76007160D01*
X173844956Y-76153237D01*
X173844955Y-76153239D01*
X173824318Y-76309998D01*
X173824318Y-76310001D01*
X169160500Y-76310001D01*
X169160500Y-74770001D01*
X173844318Y-74770001D01*
X173864955Y-74926760D01*
X173864956Y-74926762D01*
X173919485Y-75058408D01*
X173925464Y-75072841D01*
X174021718Y-75198282D01*
X174147159Y-75294536D01*
X174293238Y-75355044D01*
X174371619Y-75365363D01*
X174449999Y-75375682D01*
X174450000Y-75375682D01*
X174450001Y-75375682D01*
X174464795Y-75373734D01*
X174606762Y-75355044D01*
X174650268Y-75337022D01*
X174677344Y-75329270D01*
X174686320Y-75327775D01*
X175279577Y-75103510D01*
X175323423Y-75095500D01*
X182493811Y-75095500D01*
X182560850Y-75115185D01*
X182581492Y-75131819D01*
X182882229Y-75432556D01*
X182907569Y-75469224D01*
X183168488Y-76047301D01*
X183174525Y-76055903D01*
X183187587Y-76079682D01*
X183205462Y-76122838D01*
X183205463Y-76122839D01*
X183205464Y-76122841D01*
X183301718Y-76248282D01*
X183427159Y-76344536D01*
X183573238Y-76405044D01*
X183651619Y-76415363D01*
X183729999Y-76425682D01*
X183730000Y-76425682D01*
X183730001Y-76425682D01*
X183782254Y-76418802D01*
X183886762Y-76405044D01*
X184032841Y-76344536D01*
X184158282Y-76248282D01*
X184254536Y-76122841D01*
X184315044Y-75976762D01*
X184335682Y-75820000D01*
X184315044Y-75663238D01*
X184254536Y-75517159D01*
X184158282Y-75391718D01*
X184158280Y-75391717D01*
X184158280Y-75391716D01*
X184032841Y-75295464D01*
X184032838Y-75295462D01*
X183989338Y-75277444D01*
X183964713Y-75263783D01*
X183957301Y-75258488D01*
X183724665Y-75153486D01*
X183379224Y-74997569D01*
X183342556Y-74972229D01*
X183060327Y-74690000D01*
X191654341Y-74690000D01*
X191674936Y-74925403D01*
X191674938Y-74925413D01*
X191736094Y-75153655D01*
X191736096Y-75153659D01*
X191736097Y-75153663D01*
X191802219Y-75295462D01*
X191835965Y-75367830D01*
X191835967Y-75367834D01*
X191906962Y-75469224D01*
X191971505Y-75561401D01*
X192138599Y-75728495D01*
X192181688Y-75758666D01*
X192332165Y-75864032D01*
X192332167Y-75864033D01*
X192332170Y-75864035D01*
X192546337Y-75963903D01*
X192774592Y-76025063D01*
X192962918Y-76041539D01*
X193009999Y-76045659D01*
X193010000Y-76045659D01*
X193010001Y-76045659D01*
X193049234Y-76042226D01*
X193245408Y-76025063D01*
X193473663Y-75963903D01*
X193687830Y-75864035D01*
X193881401Y-75728495D01*
X194048495Y-75561401D01*
X194184035Y-75367830D01*
X194283903Y-75153663D01*
X194345063Y-74925408D01*
X194365659Y-74690000D01*
X194345063Y-74454592D01*
X194283903Y-74226337D01*
X194184035Y-74012171D01*
X194095020Y-73885043D01*
X194048494Y-73818597D01*
X193881402Y-73651506D01*
X193881395Y-73651501D01*
X193687834Y-73515967D01*
X193687830Y-73515965D01*
X193665203Y-73505414D01*
X193473663Y-73416097D01*
X193473659Y-73416096D01*
X193473655Y-73416094D01*
X193245413Y-73354938D01*
X193245403Y-73354936D01*
X193010001Y-73334341D01*
X193009999Y-73334341D01*
X192774596Y-73354936D01*
X192774586Y-73354938D01*
X192546344Y-73416094D01*
X192546335Y-73416098D01*
X192332171Y-73515964D01*
X192332169Y-73515965D01*
X192138597Y-73651505D01*
X191971505Y-73818597D01*
X191835965Y-74012169D01*
X191835964Y-74012171D01*
X191736098Y-74226335D01*
X191736094Y-74226344D01*
X191674938Y-74454586D01*
X191674936Y-74454596D01*
X191654341Y-74689999D01*
X191654341Y-74690000D01*
X183060327Y-74690000D01*
X182879864Y-74509537D01*
X182879862Y-74509535D01*
X182842750Y-74488108D01*
X182805640Y-74466682D01*
X182764246Y-74455591D01*
X182722853Y-74444500D01*
X182722852Y-74444500D01*
X175323426Y-74444500D01*
X175279580Y-74436489D01*
X174701076Y-74217801D01*
X174701060Y-74217796D01*
X174686318Y-74212223D01*
X174682331Y-74211524D01*
X174675958Y-74210407D01*
X174649918Y-74202831D01*
X174606762Y-74184956D01*
X174528381Y-74174637D01*
X174450001Y-74164318D01*
X174449999Y-74164318D01*
X174293239Y-74184955D01*
X174293237Y-74184956D01*
X174147160Y-74245463D01*
X174021718Y-74341718D01*
X173925463Y-74467160D01*
X173864956Y-74613237D01*
X173864955Y-74613239D01*
X173844318Y-74769998D01*
X173844318Y-74770001D01*
X169160500Y-74770001D01*
X169160500Y-72360000D01*
X170844355Y-72360000D01*
X170864859Y-72528869D01*
X170864860Y-72528874D01*
X170925182Y-72687931D01*
X170979925Y-72767238D01*
X171021817Y-72827929D01*
X171127505Y-72921560D01*
X171149150Y-72940736D01*
X171290488Y-73014916D01*
X171299775Y-73019790D01*
X171464944Y-73060500D01*
X171635056Y-73060500D01*
X171800225Y-73019790D01*
X171800227Y-73019789D01*
X171807244Y-73017128D01*
X171807360Y-73017435D01*
X171815421Y-73014092D01*
X172561398Y-72781136D01*
X172598361Y-72775500D01*
X178133811Y-72775500D01*
X178200850Y-72795185D01*
X178221492Y-72811819D01*
X178236831Y-72827158D01*
X178269117Y-72883473D01*
X178304142Y-73017435D01*
X178408371Y-73416094D01*
X178408888Y-73418069D01*
X178411860Y-73433247D01*
X178414956Y-73456763D01*
X178414957Y-73456767D01*
X178422681Y-73475415D01*
X178427618Y-73490101D01*
X178427646Y-73490093D01*
X178427883Y-73490891D01*
X178428079Y-73491472D01*
X178428239Y-73492085D01*
X178432208Y-73505408D01*
X178432716Y-73506926D01*
X178433436Y-73509033D01*
X178433437Y-73509037D01*
X178437369Y-73515326D01*
X178446783Y-73533601D01*
X178475462Y-73602838D01*
X178475464Y-73602841D01*
X178513103Y-73651894D01*
X178571718Y-73728282D01*
X178697159Y-73824536D01*
X178843238Y-73885044D01*
X178921619Y-73895363D01*
X178999999Y-73905682D01*
X179000000Y-73905682D01*
X179000001Y-73905682D01*
X179052254Y-73898802D01*
X179156762Y-73885044D01*
X179302841Y-73824536D01*
X179428282Y-73728282D01*
X179524536Y-73602841D01*
X179585044Y-73456762D01*
X179605682Y-73300000D01*
X179585044Y-73143238D01*
X179524536Y-72997159D01*
X179428282Y-72871718D01*
X179428280Y-72871717D01*
X179428280Y-72871716D01*
X179370210Y-72827158D01*
X179302841Y-72775464D01*
X179302837Y-72775462D01*
X179302834Y-72775460D01*
X179282985Y-72767238D01*
X179261615Y-72755825D01*
X178744504Y-72410786D01*
X178725647Y-72395320D01*
X178519864Y-72189537D01*
X178519862Y-72189535D01*
X178465703Y-72158266D01*
X178445640Y-72146682D01*
X178404246Y-72135591D01*
X178362853Y-72124500D01*
X178362852Y-72124500D01*
X172624628Y-72124500D01*
X172565717Y-72109612D01*
X171850372Y-71723387D01*
X171850361Y-71723381D01*
X171850351Y-71723376D01*
X171841085Y-71718672D01*
X171840031Y-71718170D01*
X171833551Y-71715923D01*
X171833852Y-71715053D01*
X171815831Y-71708400D01*
X171800227Y-71700210D01*
X171635056Y-71659500D01*
X171464944Y-71659500D01*
X171299773Y-71700210D01*
X171149150Y-71779263D01*
X171021816Y-71892072D01*
X170925182Y-72032068D01*
X170864860Y-72191125D01*
X170864859Y-72191130D01*
X170844355Y-72360000D01*
X169160500Y-72360000D01*
X169160500Y-72207906D01*
X169170737Y-72158572D01*
X169170870Y-72158266D01*
X169482352Y-71440000D01*
X191679364Y-71440000D01*
X191736567Y-71653486D01*
X191736570Y-71653492D01*
X191836399Y-71867578D01*
X191971894Y-72061082D01*
X192138917Y-72228105D01*
X192332421Y-72363600D01*
X192546507Y-72463429D01*
X192546516Y-72463433D01*
X192760000Y-72520634D01*
X192760000Y-71738482D01*
X192778409Y-71749111D01*
X192931009Y-71790000D01*
X193088991Y-71790000D01*
X193241591Y-71749111D01*
X193260000Y-71738482D01*
X193260000Y-72520633D01*
X193473483Y-72463433D01*
X193473492Y-72463429D01*
X193687578Y-72363600D01*
X193881082Y-72228105D01*
X194048105Y-72061082D01*
X194183600Y-71867578D01*
X194283429Y-71653492D01*
X194283432Y-71653486D01*
X194340636Y-71440000D01*
X193558482Y-71440000D01*
X193569111Y-71421591D01*
X193610000Y-71268991D01*
X193610000Y-71111009D01*
X193569111Y-70958409D01*
X193558482Y-70940000D01*
X194340636Y-70940000D01*
X194340635Y-70939999D01*
X194283432Y-70726513D01*
X194283429Y-70726507D01*
X194183600Y-70512422D01*
X194183599Y-70512420D01*
X194048113Y-70318926D01*
X194048108Y-70318920D01*
X193881082Y-70151894D01*
X193687578Y-70016399D01*
X193473492Y-69916570D01*
X193473486Y-69916567D01*
X193260000Y-69859364D01*
X193260000Y-70641517D01*
X193241591Y-70630889D01*
X193088991Y-70590000D01*
X192931009Y-70590000D01*
X192778409Y-70630889D01*
X192760000Y-70641517D01*
X192760000Y-69859364D01*
X192759999Y-69859364D01*
X192546513Y-69916567D01*
X192546507Y-69916570D01*
X192332422Y-70016399D01*
X192332420Y-70016400D01*
X192138926Y-70151886D01*
X192138920Y-70151891D01*
X191971891Y-70318920D01*
X191971886Y-70318926D01*
X191836400Y-70512420D01*
X191836399Y-70512422D01*
X191736570Y-70726507D01*
X191736567Y-70726513D01*
X191679364Y-70939999D01*
X191679364Y-70940000D01*
X192461518Y-70940000D01*
X192450889Y-70958409D01*
X192410000Y-71111009D01*
X192410000Y-71268991D01*
X192450889Y-71421591D01*
X192461518Y-71440000D01*
X191679364Y-71440000D01*
X169482352Y-71440000D01*
X169551042Y-71281602D01*
X169595772Y-71227930D01*
X169616227Y-71216849D01*
X170012981Y-71047929D01*
X170500394Y-70840410D01*
X170548968Y-70830500D01*
X170972725Y-70830500D01*
X170972727Y-70830500D01*
X171074588Y-70803207D01*
X171165913Y-70750480D01*
X172149574Y-69766819D01*
X172210897Y-69733334D01*
X172237255Y-69730500D01*
X175197203Y-69730500D01*
X175264242Y-69750185D01*
X175309997Y-69802989D01*
X175319941Y-69872147D01*
X175290916Y-69935703D01*
X175254829Y-69964296D01*
X175169150Y-70009263D01*
X175041816Y-70122072D01*
X174945182Y-70262068D01*
X174884860Y-70421125D01*
X174884859Y-70421130D01*
X174864355Y-70590000D01*
X174884859Y-70758869D01*
X174884860Y-70758874D01*
X174945182Y-70917931D01*
X174988371Y-70980500D01*
X175041817Y-71057929D01*
X175147505Y-71151560D01*
X175169150Y-71170736D01*
X175307190Y-71243185D01*
X175319775Y-71249790D01*
X175484944Y-71290500D01*
X175655056Y-71290500D01*
X175820225Y-71249790D01*
X175820229Y-71249787D01*
X175827243Y-71247128D01*
X175827266Y-71247189D01*
X175834003Y-71244306D01*
X175837325Y-71243185D01*
X175837332Y-71243185D01*
X176597276Y-70986997D01*
X176636888Y-70980500D01*
X178962527Y-70980500D01*
X179000738Y-70986534D01*
X179051909Y-71003109D01*
X179765072Y-71234116D01*
X179765075Y-71234116D01*
X179765185Y-71234152D01*
X179772694Y-71237312D01*
X179772764Y-71237131D01*
X179779773Y-71239789D01*
X179779775Y-71239790D01*
X179944944Y-71280500D01*
X180115056Y-71280500D01*
X180280225Y-71239790D01*
X180375093Y-71189999D01*
X180430849Y-71160736D01*
X180430850Y-71160734D01*
X180430852Y-71160734D01*
X180558183Y-71047929D01*
X180654818Y-70907930D01*
X180715140Y-70748872D01*
X180735645Y-70580000D01*
X180715140Y-70411128D01*
X180654818Y-70252070D01*
X180558183Y-70112071D01*
X180461780Y-70026666D01*
X180430849Y-69999263D01*
X180364224Y-69964296D01*
X180314011Y-69915711D01*
X180298037Y-69847692D01*
X180321372Y-69781835D01*
X180376609Y-69739048D01*
X180421850Y-69730500D01*
X189412725Y-69730500D01*
X189412727Y-69730500D01*
X189514588Y-69703207D01*
X189605913Y-69650480D01*
X191016354Y-68240037D01*
X191077675Y-68206554D01*
X191147366Y-68211538D01*
X191163949Y-68219156D01*
X191299481Y-68293956D01*
X192325663Y-68860306D01*
X192325667Y-68860307D01*
X192327742Y-68861479D01*
X192332167Y-68864033D01*
X192332170Y-68864035D01*
X192546337Y-68963903D01*
X192774592Y-69025063D01*
X192951034Y-69040500D01*
X193009999Y-69045659D01*
X193010000Y-69045659D01*
X193010001Y-69045659D01*
X193068966Y-69040500D01*
X193245408Y-69025063D01*
X193473663Y-68963903D01*
X193687830Y-68864035D01*
X193881401Y-68728495D01*
X194048495Y-68561401D01*
X194184035Y-68367830D01*
X194283903Y-68153663D01*
X194345063Y-67925408D01*
X194365659Y-67690000D01*
X194345063Y-67454592D01*
X194298148Y-67279500D01*
X194283905Y-67226344D01*
X194283904Y-67226343D01*
X194283903Y-67226337D01*
X194184035Y-67012171D01*
X194178948Y-67004905D01*
X194048494Y-66818597D01*
X193881402Y-66651506D01*
X193881395Y-66651501D01*
X193687834Y-66515967D01*
X193687830Y-66515965D01*
X193473663Y-66416097D01*
X193473659Y-66416096D01*
X193473655Y-66416094D01*
X193245413Y-66354938D01*
X193245403Y-66354936D01*
X193010001Y-66334341D01*
X193009999Y-66334341D01*
X192774596Y-66354936D01*
X192774586Y-66354938D01*
X192546344Y-66416094D01*
X192546335Y-66416097D01*
X192332168Y-66515966D01*
X192324415Y-66521395D01*
X192312918Y-66528401D01*
X191187137Y-67269090D01*
X191120313Y-67289493D01*
X191118982Y-67289500D01*
X191116372Y-67289500D01*
X191084280Y-67285275D01*
X191062727Y-67279500D01*
X190957273Y-67279500D01*
X190855410Y-67306793D01*
X190764087Y-67359520D01*
X190764084Y-67359522D01*
X189230426Y-68893181D01*
X189169103Y-68926666D01*
X189142745Y-68929500D01*
X171967273Y-68929500D01*
X171865410Y-68956793D01*
X171774087Y-69009520D01*
X171774084Y-69009522D01*
X170790426Y-69993181D01*
X170729103Y-70026666D01*
X170702745Y-70029500D01*
X170548969Y-70029500D01*
X170500394Y-70019590D01*
X169180815Y-69457768D01*
X169181010Y-69457309D01*
X169179721Y-69456770D01*
X169179585Y-69457100D01*
X169173963Y-69454771D01*
X169173955Y-69454768D01*
X169173954Y-69454768D01*
X168975934Y-69394700D01*
X168975932Y-69394699D01*
X168975934Y-69394699D01*
X168770000Y-69374417D01*
X168564067Y-69394699D01*
X168366043Y-69454769D01*
X168255898Y-69513643D01*
X168183550Y-69552315D01*
X168183548Y-69552316D01*
X168183547Y-69552317D01*
X168023589Y-69683589D01*
X167892317Y-69843547D01*
X167892315Y-69843550D01*
X167873099Y-69879500D01*
X167794769Y-70026043D01*
X167734699Y-70224067D01*
X167714417Y-70430000D01*
X164156499Y-70430000D01*
X164078494Y-70318597D01*
X163911402Y-70151506D01*
X163911395Y-70151501D01*
X163717834Y-70015967D01*
X163717830Y-70015965D01*
X163703464Y-70009266D01*
X163503663Y-69916097D01*
X163503659Y-69916096D01*
X163503655Y-69916094D01*
X163275413Y-69854938D01*
X163275403Y-69854936D01*
X163040001Y-69834341D01*
X163039999Y-69834341D01*
X162804596Y-69854936D01*
X162804586Y-69854938D01*
X162576344Y-69916094D01*
X162576335Y-69916098D01*
X162362171Y-70015964D01*
X162362169Y-70015965D01*
X162168597Y-70151505D01*
X162001505Y-70318597D01*
X161865965Y-70512169D01*
X161865964Y-70512171D01*
X161766098Y-70726335D01*
X161766094Y-70726344D01*
X161704938Y-70954586D01*
X161704936Y-70954596D01*
X161684341Y-71189999D01*
X161684341Y-71190000D01*
X158600485Y-71190000D01*
X158600485Y-68859752D01*
X161689500Y-68859752D01*
X161701131Y-68918229D01*
X161701132Y-68918230D01*
X161745447Y-68984552D01*
X161811769Y-69028867D01*
X161811770Y-69028868D01*
X161870247Y-69040499D01*
X161870250Y-69040500D01*
X161870252Y-69040500D01*
X164209750Y-69040500D01*
X164209751Y-69040499D01*
X164224568Y-69037552D01*
X164268229Y-69028868D01*
X164268229Y-69028867D01*
X164268231Y-69028867D01*
X164334552Y-68984552D01*
X164378867Y-68918231D01*
X164378867Y-68918229D01*
X164378868Y-68918229D01*
X164389409Y-68865232D01*
X164390500Y-68859748D01*
X164390500Y-67890000D01*
X167714417Y-67890000D01*
X167734699Y-68095932D01*
X167734700Y-68095934D01*
X167794768Y-68293954D01*
X167892315Y-68476450D01*
X167892317Y-68476452D01*
X168023589Y-68636410D01*
X168120209Y-68715702D01*
X168183550Y-68767685D01*
X168366046Y-68865232D01*
X168564066Y-68925300D01*
X168564065Y-68925300D01*
X168577935Y-68926666D01*
X168770000Y-68945583D01*
X168975934Y-68925300D01*
X169173954Y-68865232D01*
X169356450Y-68767685D01*
X169516410Y-68636410D01*
X169647685Y-68476450D01*
X169745232Y-68293954D01*
X169805300Y-68095934D01*
X169825583Y-67890000D01*
X169805300Y-67684066D01*
X169790416Y-67635000D01*
X173434292Y-67635000D01*
X173470348Y-67816266D01*
X173470350Y-67816274D01*
X173549500Y-68007358D01*
X173549505Y-68007368D01*
X173664410Y-68179335D01*
X173664413Y-68179339D01*
X173810660Y-68325586D01*
X173810664Y-68325589D01*
X173982631Y-68440494D01*
X173982641Y-68440499D01*
X174173723Y-68519648D01*
X174173725Y-68519649D01*
X174230000Y-68530842D01*
X174230000Y-67789145D01*
X174296657Y-67827630D01*
X174417465Y-67860000D01*
X174542535Y-67860000D01*
X174663343Y-67827630D01*
X174730000Y-67789145D01*
X174730000Y-68530842D01*
X174786274Y-68519649D01*
X174786276Y-68519648D01*
X174977358Y-68440499D01*
X174977368Y-68440494D01*
X175149335Y-68325589D01*
X175149339Y-68325586D01*
X175295586Y-68179339D01*
X175295589Y-68179335D01*
X175410494Y-68007368D01*
X175410499Y-68007358D01*
X175489649Y-67816274D01*
X175489651Y-67816266D01*
X175525707Y-67635000D01*
X174884146Y-67635000D01*
X174896577Y-67613469D01*
X175929500Y-67613469D01*
X175969868Y-67816412D01*
X175969870Y-67816420D01*
X176049058Y-68007596D01*
X176164024Y-68179657D01*
X176310342Y-68325975D01*
X176310345Y-68325977D01*
X176482402Y-68440941D01*
X176673580Y-68520130D01*
X176862187Y-68557646D01*
X176876530Y-68560499D01*
X176876534Y-68560500D01*
X176876535Y-68560500D01*
X177083466Y-68560500D01*
X177083467Y-68560499D01*
X177286420Y-68520130D01*
X177477598Y-68440941D01*
X177649655Y-68325977D01*
X177795977Y-68179655D01*
X177910941Y-68007598D01*
X177990130Y-67816420D01*
X178030499Y-67613469D01*
X178429500Y-67613469D01*
X178469868Y-67816412D01*
X178469870Y-67816420D01*
X178549058Y-68007596D01*
X178664024Y-68179657D01*
X178810342Y-68325975D01*
X178810345Y-68325977D01*
X178982402Y-68440941D01*
X179173580Y-68520130D01*
X179362187Y-68557646D01*
X179376530Y-68560499D01*
X179376534Y-68560500D01*
X179376535Y-68560500D01*
X179583466Y-68560500D01*
X179583467Y-68560499D01*
X179786420Y-68520130D01*
X179977598Y-68440941D01*
X180149655Y-68325977D01*
X180295977Y-68179655D01*
X180306258Y-68164269D01*
X180929500Y-68164269D01*
X180932353Y-68194699D01*
X180932353Y-68194701D01*
X180967085Y-68293956D01*
X180977207Y-68322882D01*
X181057850Y-68432150D01*
X181167118Y-68512793D01*
X181188089Y-68520131D01*
X181295299Y-68557646D01*
X181325730Y-68560500D01*
X181325734Y-68560500D01*
X182634270Y-68560500D01*
X182664699Y-68557646D01*
X182664701Y-68557646D01*
X182728790Y-68535219D01*
X182792882Y-68512793D01*
X182902150Y-68432150D01*
X182982793Y-68322882D01*
X183011781Y-68240039D01*
X183027646Y-68194701D01*
X183027646Y-68194699D01*
X183030500Y-68164269D01*
X183030500Y-66605730D01*
X183027646Y-66575300D01*
X183027646Y-66575298D01*
X182987920Y-66461770D01*
X182982793Y-66447118D01*
X182902150Y-66337850D01*
X182792882Y-66257207D01*
X182792880Y-66257206D01*
X182664700Y-66212353D01*
X182634270Y-66209500D01*
X182634266Y-66209500D01*
X181325734Y-66209500D01*
X181325730Y-66209500D01*
X181295300Y-66212353D01*
X181295298Y-66212353D01*
X181167119Y-66257206D01*
X181167117Y-66257207D01*
X181057850Y-66337850D01*
X180977207Y-66447117D01*
X180977206Y-66447119D01*
X180932353Y-66575298D01*
X180932353Y-66575300D01*
X180929500Y-66605730D01*
X180929500Y-68164269D01*
X180306258Y-68164269D01*
X180410941Y-68007598D01*
X180490130Y-67816420D01*
X180530500Y-67613465D01*
X180530500Y-67156535D01*
X180490130Y-66953580D01*
X180410941Y-66762402D01*
X180295977Y-66590345D01*
X180295975Y-66590342D01*
X180149657Y-66444024D01*
X179993224Y-66339500D01*
X179977598Y-66329059D01*
X179786420Y-66249870D01*
X179786412Y-66249868D01*
X179583469Y-66209500D01*
X179583465Y-66209500D01*
X179376535Y-66209500D01*
X179376530Y-66209500D01*
X179173587Y-66249868D01*
X179173579Y-66249870D01*
X178982403Y-66329058D01*
X178810342Y-66444024D01*
X178664024Y-66590342D01*
X178549058Y-66762403D01*
X178469870Y-66953579D01*
X178469868Y-66953587D01*
X178429500Y-67156530D01*
X178429500Y-67613469D01*
X178030499Y-67613469D01*
X178030500Y-67613465D01*
X178030500Y-67156535D01*
X177990130Y-66953580D01*
X177910941Y-66762402D01*
X177795977Y-66590345D01*
X177795975Y-66590342D01*
X177649657Y-66444024D01*
X177493224Y-66339500D01*
X177477598Y-66329059D01*
X177286420Y-66249870D01*
X177286412Y-66249868D01*
X177083469Y-66209500D01*
X177083465Y-66209500D01*
X176876535Y-66209500D01*
X176876530Y-66209500D01*
X176673587Y-66249868D01*
X176673579Y-66249870D01*
X176482403Y-66329058D01*
X176310342Y-66444024D01*
X176164024Y-66590342D01*
X176049058Y-66762403D01*
X175969870Y-66953579D01*
X175969868Y-66953587D01*
X175929500Y-67156530D01*
X175929500Y-67613469D01*
X174896577Y-67613469D01*
X174922630Y-67568343D01*
X174955000Y-67447535D01*
X174955000Y-67322465D01*
X174922630Y-67201657D01*
X174884146Y-67135000D01*
X175525708Y-67135000D01*
X175525707Y-67134999D01*
X175489651Y-66953733D01*
X175489649Y-66953725D01*
X175410499Y-66762641D01*
X175410494Y-66762631D01*
X175295589Y-66590664D01*
X175295586Y-66590660D01*
X175149339Y-66444413D01*
X175149335Y-66444410D01*
X174977368Y-66329505D01*
X174977358Y-66329500D01*
X174786272Y-66250349D01*
X174786267Y-66250347D01*
X174730000Y-66239155D01*
X174730000Y-66980854D01*
X174663343Y-66942370D01*
X174542535Y-66910000D01*
X174417465Y-66910000D01*
X174296657Y-66942370D01*
X174230000Y-66980854D01*
X174230000Y-66239156D01*
X174229999Y-66239155D01*
X174173732Y-66250347D01*
X174173727Y-66250349D01*
X173982641Y-66329500D01*
X173982631Y-66329505D01*
X173810664Y-66444410D01*
X173810660Y-66444413D01*
X173664413Y-66590660D01*
X173664410Y-66590664D01*
X173549505Y-66762631D01*
X173549500Y-66762641D01*
X173470350Y-66953725D01*
X173470348Y-66953733D01*
X173434292Y-67134999D01*
X173434292Y-67135000D01*
X174075854Y-67135000D01*
X174037370Y-67201657D01*
X174005000Y-67322465D01*
X174005000Y-67447535D01*
X174037370Y-67568343D01*
X174075854Y-67635000D01*
X173434292Y-67635000D01*
X169790416Y-67635000D01*
X169745232Y-67486046D01*
X169647685Y-67303550D01*
X169527034Y-67156535D01*
X169516410Y-67143589D01*
X169356452Y-67012317D01*
X169356453Y-67012317D01*
X169356450Y-67012315D01*
X169173954Y-66914768D01*
X168975934Y-66854700D01*
X168975932Y-66854699D01*
X168975934Y-66854699D01*
X168770000Y-66834417D01*
X168564067Y-66854699D01*
X168366043Y-66914769D01*
X168293436Y-66953579D01*
X168183550Y-67012315D01*
X168183548Y-67012316D01*
X168183547Y-67012317D01*
X168023589Y-67143589D01*
X167892317Y-67303547D01*
X167794769Y-67486043D01*
X167734699Y-67684067D01*
X167714417Y-67890000D01*
X164390500Y-67890000D01*
X164390500Y-66520252D01*
X164390500Y-66520249D01*
X164390499Y-66520247D01*
X164378868Y-66461770D01*
X164378867Y-66461769D01*
X164334552Y-66395447D01*
X164268230Y-66351132D01*
X164268229Y-66351131D01*
X164209752Y-66339500D01*
X164209748Y-66339500D01*
X161870252Y-66339500D01*
X161870247Y-66339500D01*
X161811770Y-66351131D01*
X161811769Y-66351132D01*
X161745447Y-66395447D01*
X161701132Y-66461769D01*
X161701131Y-66461770D01*
X161689500Y-66520247D01*
X161689500Y-68859752D01*
X158600485Y-68859752D01*
X158600485Y-65600000D01*
X167748590Y-65600000D01*
X167795233Y-65753766D01*
X167892728Y-65936166D01*
X167892732Y-65936173D01*
X168023944Y-66096055D01*
X168183826Y-66227267D01*
X168183833Y-66227271D01*
X168366233Y-66324766D01*
X168520000Y-66371410D01*
X168520000Y-65783012D01*
X168577007Y-65815925D01*
X168704174Y-65850000D01*
X168835826Y-65850000D01*
X168962993Y-65815925D01*
X169020000Y-65783012D01*
X169020000Y-66371410D01*
X169173766Y-66324766D01*
X169356166Y-66227271D01*
X169356173Y-66227267D01*
X169516055Y-66096055D01*
X169647267Y-65936173D01*
X169647271Y-65936166D01*
X169744766Y-65753766D01*
X169791410Y-65600000D01*
X169203012Y-65600000D01*
X169235925Y-65542993D01*
X169270000Y-65415826D01*
X169270000Y-65284174D01*
X169235925Y-65157007D01*
X169203012Y-65100000D01*
X169791410Y-65100000D01*
X169744766Y-64946233D01*
X169647271Y-64763833D01*
X169647267Y-64763826D01*
X169516055Y-64603944D01*
X169356173Y-64472732D01*
X169356166Y-64472728D01*
X169173763Y-64375232D01*
X169020000Y-64328587D01*
X169020000Y-64916988D01*
X168962993Y-64884075D01*
X168835826Y-64850000D01*
X168704174Y-64850000D01*
X168577007Y-64884075D01*
X168520000Y-64916988D01*
X168520000Y-64328587D01*
X168366236Y-64375232D01*
X168183833Y-64472728D01*
X168183826Y-64472732D01*
X168023944Y-64603944D01*
X167892732Y-64763826D01*
X167892728Y-64763833D01*
X167795233Y-64946233D01*
X167748590Y-65100000D01*
X168336988Y-65100000D01*
X168304075Y-65157007D01*
X168270000Y-65284174D01*
X168270000Y-65415826D01*
X168304075Y-65542993D01*
X168336988Y-65600000D01*
X167748590Y-65600000D01*
X158600485Y-65600000D01*
X158600485Y-64461259D01*
X158620170Y-64394220D01*
X158672252Y-64348797D01*
X158672288Y-64348780D01*
X158672292Y-64348779D01*
X158876149Y-64254098D01*
X159064772Y-64131855D01*
X159234459Y-63984448D01*
X159381879Y-63814773D01*
X159504137Y-63626159D01*
X159598834Y-63422310D01*
X159598834Y-63422308D01*
X159598876Y-63422219D01*
X159644972Y-63369713D01*
X159711334Y-63350461D01*
X176488448Y-63350461D01*
X176555487Y-63370146D01*
G37*
G04 #@! TD.AperFunction*
G04 #@! TA.AperFunction,Conductor*
G36*
X178632590Y-72583158D02*
G01*
X179145099Y-72925127D01*
X179150079Y-72932569D01*
X179149425Y-72939311D01*
X179002563Y-73296195D01*
X178996245Y-73302542D01*
X178996195Y-73302563D01*
X178642832Y-73447976D01*
X178633878Y-73447955D01*
X178627560Y-73441608D01*
X178627060Y-73440116D01*
X178591091Y-73302542D01*
X178449530Y-72761098D01*
X178450753Y-72752229D01*
X178452573Y-72749871D01*
X178617827Y-72584617D01*
X178626099Y-72581191D01*
X178632590Y-72583158D01*
G37*
G04 #@! TD.AperFunction*
G04 #@! TA.AperFunction,Conductor*
G36*
X176559799Y-70377435D02*
G01*
X176566674Y-70383172D01*
X176568011Y-70388603D01*
X176568011Y-70771597D01*
X176564584Y-70779870D01*
X176560049Y-70782684D01*
X175771685Y-71048453D01*
X175762750Y-71047849D01*
X175757146Y-71041863D01*
X175570871Y-70594495D01*
X175570855Y-70585544D01*
X175757240Y-70137910D01*
X175763583Y-70131591D01*
X175771527Y-70131241D01*
X176559799Y-70377435D01*
G37*
G04 #@! TD.AperFunction*
G04 #@! TA.AperFunction,Conductor*
G36*
X171751666Y-71903701D02*
G01*
X171752720Y-71904203D01*
X172525957Y-72321684D01*
X172531608Y-72328630D01*
X172532098Y-72331979D01*
X172532098Y-72566396D01*
X172528671Y-72574669D01*
X172523886Y-72577564D01*
X171751528Y-72818758D01*
X171742609Y-72817953D01*
X171737239Y-72812087D01*
X171638521Y-72575000D01*
X171550871Y-72364495D01*
X171550855Y-72355544D01*
X171736368Y-71910004D01*
X171742712Y-71903684D01*
X171751666Y-71903701D01*
G37*
G04 #@! TD.AperFunction*
G04 #@! TA.AperFunction,Conductor*
G36*
X183260071Y-75169252D02*
G01*
X183872760Y-75445793D01*
X183878891Y-75452320D01*
X183878767Y-75460909D01*
X183732563Y-75816195D01*
X183726245Y-75822542D01*
X183726195Y-75822563D01*
X183370909Y-75968767D01*
X183361955Y-75968746D01*
X183355793Y-75962760D01*
X183291676Y-75820707D01*
X183129279Y-75460909D01*
X183079252Y-75350071D01*
X183078972Y-75341121D01*
X183081641Y-75336987D01*
X183246986Y-75171642D01*
X183255258Y-75168216D01*
X183260071Y-75169252D01*
G37*
G04 #@! TD.AperFunction*
G04 #@! TA.AperFunction,Conductor*
G36*
X168774489Y-70430865D02*
G01*
X169544325Y-70750722D01*
X169550650Y-70757061D01*
X169550641Y-70766016D01*
X169550570Y-70766182D01*
X168963055Y-72120966D01*
X168956620Y-72127193D01*
X168952321Y-72128011D01*
X168567783Y-72128011D01*
X168559510Y-72124584D01*
X168556992Y-72120833D01*
X167989238Y-70766104D01*
X167989201Y-70757150D01*
X167995505Y-70750792D01*
X168765511Y-70430864D01*
X168774466Y-70430856D01*
X168774489Y-70430865D01*
G37*
G04 #@! TD.AperFunction*
G04 #@! TA.AperFunction,Conductor*
G36*
X169106045Y-69649284D02*
G01*
X170462884Y-70226970D01*
X170469153Y-70233363D01*
X170470000Y-70237734D01*
X170470000Y-70622265D01*
X170466573Y-70630538D01*
X170462883Y-70633030D01*
X169106140Y-71210674D01*
X169097186Y-71210762D01*
X169090792Y-71204492D01*
X169090752Y-71204398D01*
X168848883Y-70622265D01*
X168770864Y-70434488D01*
X168770856Y-70425534D01*
X168770865Y-70425511D01*
X168852097Y-70230000D01*
X169090753Y-69655599D01*
X169097091Y-69649276D01*
X169106045Y-69649284D01*
G37*
G04 #@! TD.AperFunction*
G04 #@! TA.AperFunction,Conductor*
G36*
X179837324Y-70122094D02*
G01*
X179842804Y-70128017D01*
X180029127Y-70575503D01*
X180029144Y-70584457D01*
X180029127Y-70584497D01*
X179842804Y-71031982D01*
X179836460Y-71038303D01*
X179828398Y-71038616D01*
X179038095Y-70782622D01*
X179031280Y-70776812D01*
X179030000Y-70771491D01*
X179030000Y-70388508D01*
X179033427Y-70380235D01*
X179038091Y-70377378D01*
X179828399Y-70121383D01*
X179837324Y-70122094D01*
G37*
G04 #@! TD.AperFunction*
G04 #@! TA.AperFunction,Conductor*
G36*
X182700071Y-76759252D02*
G01*
X183312760Y-77035793D01*
X183318891Y-77042320D01*
X183318767Y-77050909D01*
X183172563Y-77406195D01*
X183166245Y-77412542D01*
X183166195Y-77412563D01*
X182810909Y-77558767D01*
X182801955Y-77558746D01*
X182795793Y-77552760D01*
X182731676Y-77410707D01*
X182569279Y-77050909D01*
X182519252Y-76940071D01*
X182518972Y-76931121D01*
X182521641Y-76926987D01*
X182686986Y-76761642D01*
X182695258Y-76758216D01*
X182700071Y-76759252D01*
G37*
G04 #@! TD.AperFunction*
G04 #@! TA.AperFunction,Conductor*
G36*
X168959375Y-77181383D02*
G01*
X168962377Y-77186531D01*
X169179180Y-77968703D01*
X169178087Y-77977591D01*
X169172402Y-77982629D01*
X168724497Y-78169127D01*
X168715543Y-78169144D01*
X168715503Y-78169127D01*
X168268500Y-77983005D01*
X168262179Y-77976661D01*
X168262050Y-77968076D01*
X168557145Y-77185528D01*
X168563270Y-77178996D01*
X168568092Y-77177956D01*
X168951102Y-77177956D01*
X168959375Y-77181383D01*
G37*
G04 #@! TD.AperFunction*
G04 #@! TA.AperFunction,Conductor*
G36*
X174630696Y-74410890D02*
G01*
X175242437Y-74642141D01*
X175248964Y-74648272D01*
X175250000Y-74653085D01*
X175250000Y-74886914D01*
X175246573Y-74895187D01*
X175242437Y-74897858D01*
X174613655Y-75135551D01*
X174604705Y-75135271D01*
X174598719Y-75129109D01*
X174502306Y-74897858D01*
X174450875Y-74774499D01*
X174450855Y-74765550D01*
X174598719Y-74410889D01*
X174605066Y-74404572D01*
X174613654Y-74404448D01*
X174630696Y-74410890D01*
G37*
G04 #@! TD.AperFunction*
G04 #@! TA.AperFunction,Conductor*
G36*
X192440845Y-66704229D02*
G01*
X192441202Y-66704808D01*
X193007323Y-67684849D01*
X193008494Y-67693727D01*
X193007320Y-67696560D01*
X192440741Y-68676004D01*
X192433632Y-68681449D01*
X192424960Y-68680388D01*
X190882198Y-67828937D01*
X190876610Y-67821940D01*
X190877608Y-67813041D01*
X190879574Y-67810425D01*
X191150580Y-67539419D01*
X191152412Y-67537926D01*
X192424642Y-66700885D01*
X192433435Y-66699201D01*
X192440845Y-66704229D01*
G37*
G04 #@! TD.AperFunction*
G04 #@! TA.AperFunction,Conductor*
G36*
X174610696Y-75950890D02*
G01*
X175222437Y-76182141D01*
X175228964Y-76188272D01*
X175230000Y-76193085D01*
X175230000Y-76426914D01*
X175226573Y-76435187D01*
X175222437Y-76437858D01*
X174593655Y-76675551D01*
X174584705Y-76675271D01*
X174578719Y-76669109D01*
X174482306Y-76437858D01*
X174430875Y-76314499D01*
X174430855Y-76305550D01*
X174578719Y-75950889D01*
X174585066Y-75944572D01*
X174593654Y-75944448D01*
X174610696Y-75950890D01*
G37*
G04 #@! TD.AperFunction*
M02*
