G04 #@! TF.GenerationSoftware,KiCad,Pcbnew,8.0.0*
G04 #@! TF.CreationDate,2024-05-22T11:22:58+03:00*
G04 #@! TF.ProjectId,B-NAU7802-BRK-01MBR-R01,422d4e41-5537-4383-9032-2d42524b2d30,rev?*
G04 #@! TF.SameCoordinates,Original*
G04 #@! TF.FileFunction,Paste,Top*
G04 #@! TF.FilePolarity,Positive*
%FSLAX46Y46*%
G04 Gerber Fmt 4.6, Leading zero omitted, Abs format (unit mm)*
G04 Created by KiCad (PCBNEW 8.0.0) date 2024-05-22 11:22:58*
%MOMM*%
%LPD*%
G01*
G04 APERTURE LIST*
G04 Aperture macros list*
%AMRoundRect*
0 Rectangle with rounded corners*
0 $1 Rounding radius*
0 $2 $3 $4 $5 $6 $7 $8 $9 X,Y pos of 4 corners*
0 Add a 4 corners polygon primitive as box body*
4,1,4,$2,$3,$4,$5,$6,$7,$8,$9,$2,$3,0*
0 Add four circle primitives for the rounded corners*
1,1,$1+$1,$2,$3*
1,1,$1+$1,$4,$5*
1,1,$1+$1,$6,$7*
1,1,$1+$1,$8,$9*
0 Add four rect primitives between the rounded corners*
20,1,$1+$1,$2,$3,$4,$5,0*
20,1,$1+$1,$4,$5,$6,$7,0*
20,1,$1+$1,$6,$7,$8,$9,0*
20,1,$1+$1,$8,$9,$2,$3,0*%
G04 Aperture macros list end*
%ADD10RoundRect,0.225000X0.225000X0.250000X-0.225000X0.250000X-0.225000X-0.250000X0.225000X-0.250000X0*%
%ADD11RoundRect,0.200000X-0.200000X-0.275000X0.200000X-0.275000X0.200000X0.275000X-0.200000X0.275000X0*%
%ADD12RoundRect,0.225000X-0.250000X0.225000X-0.250000X-0.225000X0.250000X-0.225000X0.250000X0.225000X0*%
%ADD13R,1.525000X0.700000*%
%ADD14RoundRect,0.225000X0.250000X-0.225000X0.250000X0.225000X-0.250000X0.225000X-0.250000X-0.225000X0*%
%ADD15RoundRect,0.218750X0.256250X-0.218750X0.256250X0.218750X-0.256250X0.218750X-0.256250X-0.218750X0*%
%ADD16RoundRect,0.200000X-0.275000X0.200000X-0.275000X-0.200000X0.275000X-0.200000X0.275000X0.200000X0*%
%ADD17RoundRect,0.200000X0.275000X-0.200000X0.275000X0.200000X-0.275000X0.200000X-0.275000X-0.200000X0*%
G04 APERTURE END LIST*
D10*
X175880000Y-78780000D03*
X174330000Y-78780000D03*
D11*
X175605000Y-74970000D03*
X177255000Y-74970000D03*
D12*
X170900000Y-79405000D03*
X170900000Y-80955000D03*
D13*
X186410000Y-81010000D03*
X186410000Y-79740000D03*
X186410000Y-78470000D03*
X186410000Y-77200000D03*
X186410000Y-75930000D03*
X186410000Y-74660000D03*
X186410000Y-73390000D03*
X186410000Y-72120000D03*
X180986000Y-72120000D03*
X180986000Y-73390000D03*
X180986000Y-74660000D03*
X180986000Y-75930000D03*
X180986000Y-77200000D03*
X180986000Y-78470000D03*
X180986000Y-79740000D03*
X180986000Y-81010000D03*
D11*
X169295000Y-74300000D03*
X170945000Y-74300000D03*
D14*
X188860000Y-72040000D03*
X188860000Y-70490000D03*
D15*
X187690000Y-67317500D03*
X187690000Y-65742500D03*
D16*
X186120000Y-65725000D03*
X186120000Y-67375000D03*
D14*
X188850000Y-78170000D03*
X188850000Y-76620000D03*
D17*
X188850000Y-81380000D03*
X188850000Y-79730000D03*
D11*
X175605000Y-76500000D03*
X177255000Y-76500000D03*
D12*
X172560000Y-79375000D03*
X172560000Y-80925000D03*
D16*
X188850000Y-73520000D03*
X188850000Y-75170000D03*
D11*
X169295000Y-76810000D03*
X170945000Y-76810000D03*
D14*
X173440000Y-76315000D03*
X173440000Y-74765000D03*
M02*
