G04 #@! TF.GenerationSoftware,KiCad,Pcbnew,8.0.0*
G04 #@! TF.CreationDate,2024-05-22T11:22:58+03:00*
G04 #@! TF.ProjectId,B-NAU7802-BRK-01MBR-R01,422d4e41-5537-4383-9032-2d42524b2d30,rev?*
G04 #@! TF.SameCoordinates,Original*
G04 #@! TF.FileFunction,Legend,Top*
G04 #@! TF.FilePolarity,Positive*
%FSLAX46Y46*%
G04 Gerber Fmt 4.6, Leading zero omitted, Abs format (unit mm)*
G04 Created by KiCad (PCBNEW 8.0.0) date 2024-05-22 11:22:58*
%MOMM*%
%LPD*%
G01*
G04 APERTURE LIST*
G04 Aperture macros list*
%AMRoundRect*
0 Rectangle with rounded corners*
0 $1 Rounding radius*
0 $2 $3 $4 $5 $6 $7 $8 $9 X,Y pos of 4 corners*
0 Add a 4 corners polygon primitive as box body*
4,1,4,$2,$3,$4,$5,$6,$7,$8,$9,$2,$3,0*
0 Add four circle primitives for the rounded corners*
1,1,$1+$1,$2,$3*
1,1,$1+$1,$4,$5*
1,1,$1+$1,$6,$7*
1,1,$1+$1,$8,$9*
0 Add four rect primitives between the rounded corners*
20,1,$1+$1,$2,$3,$4,$5,0*
20,1,$1+$1,$4,$5,$6,$7,0*
20,1,$1+$1,$6,$7,$8,$9,0*
20,1,$1+$1,$8,$9,$2,$3,0*%
G04 Aperture macros list end*
%ADD10C,0.000000*%
%ADD11C,0.100000*%
%ADD12C,0.120000*%
%ADD13C,0.200000*%
%ADD14R,2.300000X2.300000*%
%ADD15C,2.300000*%
%ADD16RoundRect,0.225000X0.225000X0.250000X-0.225000X0.250000X-0.225000X-0.250000X0.225000X-0.250000X0*%
%ADD17RoundRect,0.200000X-0.200000X-0.275000X0.200000X-0.275000X0.200000X0.275000X-0.200000X0.275000X0*%
%ADD18RoundRect,0.225000X-0.250000X0.225000X-0.250000X-0.225000X0.250000X-0.225000X0.250000X0.225000X0*%
%ADD19R,1.525000X0.700000*%
%ADD20RoundRect,0.225000X0.250000X-0.225000X0.250000X0.225000X-0.250000X0.225000X-0.250000X-0.225000X0*%
%ADD21RoundRect,0.218750X0.256250X-0.218750X0.256250X0.218750X-0.256250X0.218750X-0.256250X-0.218750X0*%
%ADD22RoundRect,0.200000X-0.275000X0.200000X-0.275000X-0.200000X0.275000X-0.200000X0.275000X0.200000X0*%
%ADD23RoundRect,0.200000X0.275000X-0.200000X0.275000X0.200000X-0.275000X0.200000X-0.275000X-0.200000X0*%
%ADD24C,1.700000*%
%ADD25O,1.700000X1.700000*%
%ADD26O,1.700000X1.950000*%
%ADD27RoundRect,0.250000X-0.600000X-0.725000X0.600000X-0.725000X0.600000X0.725000X-0.600000X0.725000X0*%
G04 APERTURE END LIST*
D10*
G36*
X166931818Y-80280894D02*
G01*
X166944288Y-80281842D01*
X166956575Y-80283404D01*
X166968667Y-80285563D01*
X166980546Y-80288305D01*
X166992197Y-80291613D01*
X167003606Y-80295473D01*
X167014756Y-80299870D01*
X167025632Y-80304787D01*
X167036219Y-80310209D01*
X167046501Y-80316121D01*
X167056463Y-80322508D01*
X167066090Y-80329353D01*
X167075365Y-80336642D01*
X167084274Y-80344360D01*
X167092801Y-80352489D01*
X167100931Y-80361017D01*
X167108649Y-80369926D01*
X167115938Y-80379201D01*
X167122783Y-80388828D01*
X167129170Y-80398790D01*
X167135082Y-80409072D01*
X167140504Y-80419659D01*
X167145421Y-80430535D01*
X167149818Y-80441685D01*
X167153678Y-80453094D01*
X167156986Y-80464745D01*
X167159728Y-80476624D01*
X167161887Y-80488716D01*
X167163449Y-80501003D01*
X167164397Y-80513473D01*
X167164716Y-80526108D01*
X167164397Y-80538743D01*
X167163449Y-80551212D01*
X167161887Y-80563500D01*
X167159728Y-80575591D01*
X167156986Y-80587470D01*
X167153678Y-80599122D01*
X167149818Y-80610530D01*
X167145421Y-80621680D01*
X167140504Y-80632557D01*
X167135082Y-80643144D01*
X167129170Y-80653426D01*
X167122783Y-80663388D01*
X167115938Y-80673014D01*
X167108649Y-80682290D01*
X167100931Y-80691199D01*
X167092801Y-80699726D01*
X167084274Y-80707856D01*
X167075365Y-80715573D01*
X167066090Y-80722862D01*
X167056463Y-80729708D01*
X167046501Y-80736094D01*
X167036219Y-80742007D01*
X167025632Y-80747429D01*
X167014756Y-80752346D01*
X167003606Y-80756742D01*
X166992197Y-80760602D01*
X166980546Y-80763911D01*
X166968667Y-80766653D01*
X166956575Y-80768812D01*
X166944288Y-80770373D01*
X166931818Y-80771322D01*
X166919183Y-80771641D01*
X166906548Y-80771322D01*
X166894079Y-80770373D01*
X166881791Y-80768812D01*
X166869700Y-80766653D01*
X166857821Y-80763911D01*
X166846169Y-80760602D01*
X166834761Y-80756742D01*
X166823611Y-80752346D01*
X166812734Y-80747429D01*
X166802147Y-80742007D01*
X166791865Y-80736094D01*
X166781903Y-80729708D01*
X166772277Y-80722862D01*
X166763001Y-80715573D01*
X166754092Y-80707856D01*
X166745565Y-80699726D01*
X166737435Y-80691199D01*
X166729718Y-80682290D01*
X166722429Y-80673014D01*
X166715583Y-80663388D01*
X166709197Y-80653426D01*
X166703284Y-80643144D01*
X166697862Y-80632557D01*
X166692945Y-80621680D01*
X166688549Y-80610530D01*
X166684689Y-80599122D01*
X166681380Y-80587470D01*
X166678638Y-80575591D01*
X166676479Y-80563500D01*
X166674918Y-80551212D01*
X166673969Y-80538743D01*
X166673650Y-80526108D01*
X166673969Y-80513473D01*
X166674918Y-80501003D01*
X166676479Y-80488716D01*
X166678638Y-80476624D01*
X166681380Y-80464745D01*
X166684689Y-80453094D01*
X166688549Y-80441685D01*
X166692945Y-80430535D01*
X166697862Y-80419659D01*
X166703284Y-80409072D01*
X166709197Y-80398790D01*
X166715583Y-80388828D01*
X166722429Y-80379201D01*
X166729718Y-80369926D01*
X166737435Y-80361017D01*
X166745565Y-80352489D01*
X166754092Y-80344360D01*
X166763001Y-80336642D01*
X166772277Y-80329353D01*
X166781903Y-80322508D01*
X166791865Y-80316121D01*
X166802147Y-80310209D01*
X166812734Y-80304787D01*
X166823611Y-80299870D01*
X166834761Y-80295473D01*
X166846169Y-80291613D01*
X166857821Y-80288305D01*
X166869700Y-80285563D01*
X166881791Y-80283404D01*
X166894079Y-80281842D01*
X166906548Y-80280894D01*
X166919183Y-80280574D01*
X166931818Y-80280894D01*
G37*
G36*
X169107227Y-79894843D02*
G01*
X169178801Y-79899819D01*
X169246224Y-79908335D01*
X169309379Y-79920576D01*
X169368150Y-79936723D01*
X169395855Y-79946319D01*
X169422420Y-79956960D01*
X169447831Y-79968670D01*
X169472074Y-79981470D01*
X169495133Y-79995384D01*
X169516994Y-80010435D01*
X169537643Y-80026646D01*
X169557066Y-80044039D01*
X169575246Y-80062637D01*
X169592171Y-80082464D01*
X169607826Y-80103541D01*
X169622195Y-80125893D01*
X169635265Y-80149542D01*
X169647020Y-80174510D01*
X169657448Y-80200821D01*
X169666532Y-80228497D01*
X169674258Y-80257561D01*
X169680612Y-80288037D01*
X169685580Y-80319946D01*
X169689146Y-80353313D01*
X169691296Y-80388159D01*
X169692016Y-80424508D01*
X169691601Y-80448272D01*
X169690369Y-80471348D01*
X169688341Y-80493744D01*
X169685536Y-80515465D01*
X169681976Y-80536518D01*
X169677680Y-80556911D01*
X169672669Y-80576651D01*
X169666963Y-80595743D01*
X169660584Y-80614195D01*
X169653550Y-80632013D01*
X169645882Y-80649205D01*
X169637601Y-80665777D01*
X169628727Y-80681736D01*
X169619280Y-80697088D01*
X169598751Y-80726001D01*
X169576174Y-80752569D01*
X169551715Y-80776848D01*
X169525534Y-80798892D01*
X169497796Y-80818754D01*
X169468662Y-80836489D01*
X169438295Y-80852151D01*
X169406859Y-80865795D01*
X169374516Y-80877475D01*
X169391945Y-80881472D01*
X169409095Y-80886121D01*
X169425948Y-80891424D01*
X169442487Y-80897383D01*
X169458694Y-80903997D01*
X169474550Y-80911270D01*
X169490037Y-80919202D01*
X169505138Y-80927795D01*
X169519834Y-80937050D01*
X169534107Y-80946968D01*
X169547940Y-80957551D01*
X169561314Y-80968799D01*
X169574211Y-80980716D01*
X169586614Y-80993300D01*
X169598504Y-81006556D01*
X169609863Y-81020482D01*
X169620673Y-81035081D01*
X169630917Y-81050355D01*
X169640575Y-81066304D01*
X169649631Y-81082930D01*
X169658066Y-81100234D01*
X169665862Y-81118218D01*
X169673001Y-81136883D01*
X169679465Y-81156230D01*
X169685236Y-81176261D01*
X169690296Y-81196976D01*
X169694627Y-81218379D01*
X169698211Y-81240469D01*
X169701030Y-81263248D01*
X169703066Y-81286717D01*
X169704300Y-81310879D01*
X169704716Y-81335733D01*
X169704022Y-81370418D01*
X169701945Y-81403836D01*
X169698490Y-81435999D01*
X169693661Y-81466917D01*
X169687466Y-81496601D01*
X169679908Y-81525061D01*
X169670994Y-81552309D01*
X169660729Y-81578356D01*
X169649118Y-81603212D01*
X169636167Y-81626889D01*
X169621881Y-81649396D01*
X169606266Y-81670745D01*
X169589327Y-81690947D01*
X169571069Y-81710013D01*
X169551499Y-81727954D01*
X169530620Y-81744779D01*
X169508440Y-81760501D01*
X169484962Y-81775130D01*
X169460193Y-81788676D01*
X169434138Y-81801152D01*
X169406803Y-81812567D01*
X169378192Y-81822932D01*
X169348312Y-81832259D01*
X169317168Y-81840558D01*
X169284764Y-81847840D01*
X169251108Y-81854116D01*
X169216203Y-81859397D01*
X169180056Y-81863693D01*
X169104055Y-81869375D01*
X169023149Y-81871250D01*
X167261025Y-81871250D01*
X167262083Y-81871249D01*
X167262083Y-80760000D01*
X167606041Y-80760000D01*
X167606041Y-81600316D01*
X169009392Y-81600316D01*
X169051592Y-81599266D01*
X169091262Y-81596085D01*
X169128373Y-81590723D01*
X169162899Y-81583135D01*
X169179186Y-81578490D01*
X169194816Y-81573270D01*
X169209786Y-81567469D01*
X169224095Y-81561081D01*
X169237737Y-81554100D01*
X169250710Y-81546521D01*
X169263011Y-81538336D01*
X169274636Y-81529540D01*
X169285582Y-81520127D01*
X169295846Y-81510091D01*
X169305424Y-81499426D01*
X169314313Y-81488127D01*
X169322510Y-81476186D01*
X169330012Y-81463598D01*
X169336815Y-81450356D01*
X169342915Y-81436456D01*
X169348311Y-81421891D01*
X169352997Y-81406655D01*
X169356972Y-81390741D01*
X169360231Y-81374145D01*
X169362772Y-81356859D01*
X169364591Y-81338879D01*
X169365685Y-81320197D01*
X169366050Y-81300808D01*
X169365737Y-81281480D01*
X169364798Y-81262975D01*
X169363232Y-81245280D01*
X169361041Y-81228380D01*
X169358225Y-81212263D01*
X169354783Y-81196914D01*
X169350716Y-81182320D01*
X169346024Y-81168467D01*
X169340708Y-81155340D01*
X169334766Y-81142928D01*
X169328201Y-81131214D01*
X169321011Y-81120187D01*
X169313197Y-81109831D01*
X169304759Y-81100134D01*
X169295698Y-81091081D01*
X169286013Y-81082659D01*
X169275706Y-81074854D01*
X169264775Y-81067652D01*
X169253221Y-81061040D01*
X169241045Y-81055004D01*
X169228246Y-81049529D01*
X169214825Y-81044603D01*
X169200782Y-81040211D01*
X169186117Y-81036340D01*
X169170830Y-81032976D01*
X169154922Y-81030105D01*
X169121242Y-81025788D01*
X169085079Y-81023278D01*
X169046433Y-81022466D01*
X167950000Y-81022466D01*
X167950000Y-80760000D01*
X168980816Y-80760000D01*
X169021764Y-80758923D01*
X169060801Y-80755653D01*
X169097825Y-80750128D01*
X169132737Y-80742289D01*
X169149368Y-80737483D01*
X169165434Y-80732075D01*
X169180921Y-80726058D01*
X169195817Y-80719425D01*
X169210109Y-80712168D01*
X169223785Y-80704280D01*
X169236831Y-80695752D01*
X169249236Y-80686578D01*
X169260987Y-80676749D01*
X169272071Y-80666259D01*
X169282475Y-80655099D01*
X169292187Y-80643262D01*
X169301195Y-80630741D01*
X169309486Y-80617528D01*
X169317047Y-80603616D01*
X169323865Y-80588996D01*
X169329929Y-80573662D01*
X169335224Y-80557605D01*
X169339740Y-80540818D01*
X169343463Y-80523295D01*
X169346380Y-80505026D01*
X169348480Y-80486005D01*
X169349749Y-80466223D01*
X169350175Y-80445675D01*
X169349831Y-80427935D01*
X169348803Y-80410830D01*
X169347095Y-80394355D01*
X169344711Y-80378504D01*
X169341655Y-80363273D01*
X169337931Y-80348657D01*
X169333543Y-80334653D01*
X169328495Y-80321254D01*
X169322792Y-80308457D01*
X169316436Y-80296257D01*
X169309433Y-80284650D01*
X169301787Y-80273629D01*
X169293501Y-80263192D01*
X169284579Y-80253333D01*
X169275027Y-80244047D01*
X169264847Y-80235331D01*
X169254043Y-80227179D01*
X169242621Y-80219586D01*
X169230583Y-80212549D01*
X169217935Y-80206061D01*
X169204679Y-80200120D01*
X169190821Y-80194719D01*
X169176364Y-80189855D01*
X169161312Y-80185523D01*
X169145669Y-80181718D01*
X169129440Y-80178435D01*
X169112628Y-80175670D01*
X169095238Y-80173418D01*
X169058739Y-80170436D01*
X169019975Y-80169450D01*
X166575225Y-80169450D01*
X166575225Y-79893225D01*
X169031617Y-79893225D01*
X169107227Y-79894843D01*
G37*
D11*
X186878646Y-64941371D02*
X186878646Y-64341371D01*
X186878646Y-64341371D02*
X187107217Y-64341371D01*
X187107217Y-64341371D02*
X187164360Y-64369942D01*
X187164360Y-64369942D02*
X187192931Y-64398514D01*
X187192931Y-64398514D02*
X187221503Y-64455657D01*
X187221503Y-64455657D02*
X187221503Y-64541371D01*
X187221503Y-64541371D02*
X187192931Y-64598514D01*
X187192931Y-64598514D02*
X187164360Y-64627085D01*
X187164360Y-64627085D02*
X187107217Y-64655657D01*
X187107217Y-64655657D02*
X186878646Y-64655657D01*
X187421503Y-64341371D02*
X187564360Y-64941371D01*
X187564360Y-64941371D02*
X187678646Y-64512800D01*
X187678646Y-64512800D02*
X187792931Y-64941371D01*
X187792931Y-64941371D02*
X187935789Y-64341371D01*
X188507217Y-64941371D02*
X188307217Y-64655657D01*
X188164360Y-64941371D02*
X188164360Y-64341371D01*
X188164360Y-64341371D02*
X188392931Y-64341371D01*
X188392931Y-64341371D02*
X188450074Y-64369942D01*
X188450074Y-64369942D02*
X188478645Y-64398514D01*
X188478645Y-64398514D02*
X188507217Y-64455657D01*
X188507217Y-64455657D02*
X188507217Y-64541371D01*
X188507217Y-64541371D02*
X188478645Y-64598514D01*
X188478645Y-64598514D02*
X188450074Y-64627085D01*
X188450074Y-64627085D02*
X188392931Y-64655657D01*
X188392931Y-64655657D02*
X188164360Y-64655657D01*
X162839999Y-64712371D02*
X162839999Y-65140942D01*
X162839999Y-65140942D02*
X162811428Y-65226657D01*
X162811428Y-65226657D02*
X162754285Y-65283800D01*
X162754285Y-65283800D02*
X162668571Y-65312371D01*
X162668571Y-65312371D02*
X162611428Y-65312371D01*
X163382857Y-64912371D02*
X163382857Y-65312371D01*
X163239999Y-64683800D02*
X163097142Y-65112371D01*
X163097142Y-65112371D02*
X163468571Y-65112371D01*
X174990000Y-80085228D02*
X174961428Y-80113800D01*
X174961428Y-80113800D02*
X174875714Y-80142371D01*
X174875714Y-80142371D02*
X174818571Y-80142371D01*
X174818571Y-80142371D02*
X174732857Y-80113800D01*
X174732857Y-80113800D02*
X174675714Y-80056657D01*
X174675714Y-80056657D02*
X174647143Y-79999514D01*
X174647143Y-79999514D02*
X174618571Y-79885228D01*
X174618571Y-79885228D02*
X174618571Y-79799514D01*
X174618571Y-79799514D02*
X174647143Y-79685228D01*
X174647143Y-79685228D02*
X174675714Y-79628085D01*
X174675714Y-79628085D02*
X174732857Y-79570942D01*
X174732857Y-79570942D02*
X174818571Y-79542371D01*
X174818571Y-79542371D02*
X174875714Y-79542371D01*
X174875714Y-79542371D02*
X174961428Y-79570942D01*
X174961428Y-79570942D02*
X174990000Y-79599514D01*
X175504286Y-79542371D02*
X175390000Y-79542371D01*
X175390000Y-79542371D02*
X175332857Y-79570942D01*
X175332857Y-79570942D02*
X175304286Y-79599514D01*
X175304286Y-79599514D02*
X175247143Y-79685228D01*
X175247143Y-79685228D02*
X175218571Y-79799514D01*
X175218571Y-79799514D02*
X175218571Y-80028085D01*
X175218571Y-80028085D02*
X175247143Y-80085228D01*
X175247143Y-80085228D02*
X175275714Y-80113800D01*
X175275714Y-80113800D02*
X175332857Y-80142371D01*
X175332857Y-80142371D02*
X175447143Y-80142371D01*
X175447143Y-80142371D02*
X175504286Y-80113800D01*
X175504286Y-80113800D02*
X175532857Y-80085228D01*
X175532857Y-80085228D02*
X175561428Y-80028085D01*
X175561428Y-80028085D02*
X175561428Y-79885228D01*
X175561428Y-79885228D02*
X175532857Y-79828085D01*
X175532857Y-79828085D02*
X175504286Y-79799514D01*
X175504286Y-79799514D02*
X175447143Y-79770942D01*
X175447143Y-79770942D02*
X175332857Y-79770942D01*
X175332857Y-79770942D02*
X175275714Y-79799514D01*
X175275714Y-79799514D02*
X175247143Y-79828085D01*
X175247143Y-79828085D02*
X175218571Y-79885228D01*
X176330001Y-74142370D02*
X176130001Y-73856656D01*
X175987144Y-74142370D02*
X175987144Y-73542370D01*
X175987144Y-73542370D02*
X176215715Y-73542370D01*
X176215715Y-73542370D02*
X176272858Y-73570941D01*
X176272858Y-73570941D02*
X176301429Y-73599513D01*
X176301429Y-73599513D02*
X176330001Y-73656656D01*
X176330001Y-73656656D02*
X176330001Y-73742370D01*
X176330001Y-73742370D02*
X176301429Y-73799513D01*
X176301429Y-73799513D02*
X176272858Y-73828084D01*
X176272858Y-73828084D02*
X176215715Y-73856656D01*
X176215715Y-73856656D02*
X175987144Y-73856656D01*
X176558572Y-73599513D02*
X176587144Y-73570941D01*
X176587144Y-73570941D02*
X176644287Y-73542370D01*
X176644287Y-73542370D02*
X176787144Y-73542370D01*
X176787144Y-73542370D02*
X176844287Y-73570941D01*
X176844287Y-73570941D02*
X176872858Y-73599513D01*
X176872858Y-73599513D02*
X176901429Y-73656656D01*
X176901429Y-73656656D02*
X176901429Y-73713799D01*
X176901429Y-73713799D02*
X176872858Y-73799513D01*
X176872858Y-73799513D02*
X176530001Y-74142370D01*
X176530001Y-74142370D02*
X176901429Y-74142370D01*
X170790000Y-78495228D02*
X170761428Y-78523800D01*
X170761428Y-78523800D02*
X170675714Y-78552371D01*
X170675714Y-78552371D02*
X170618571Y-78552371D01*
X170618571Y-78552371D02*
X170532857Y-78523800D01*
X170532857Y-78523800D02*
X170475714Y-78466657D01*
X170475714Y-78466657D02*
X170447143Y-78409514D01*
X170447143Y-78409514D02*
X170418571Y-78295228D01*
X170418571Y-78295228D02*
X170418571Y-78209514D01*
X170418571Y-78209514D02*
X170447143Y-78095228D01*
X170447143Y-78095228D02*
X170475714Y-78038085D01*
X170475714Y-78038085D02*
X170532857Y-77980942D01*
X170532857Y-77980942D02*
X170618571Y-77952371D01*
X170618571Y-77952371D02*
X170675714Y-77952371D01*
X170675714Y-77952371D02*
X170761428Y-77980942D01*
X170761428Y-77980942D02*
X170790000Y-78009514D01*
X171018571Y-78009514D02*
X171047143Y-77980942D01*
X171047143Y-77980942D02*
X171104286Y-77952371D01*
X171104286Y-77952371D02*
X171247143Y-77952371D01*
X171247143Y-77952371D02*
X171304286Y-77980942D01*
X171304286Y-77980942D02*
X171332857Y-78009514D01*
X171332857Y-78009514D02*
X171361428Y-78066657D01*
X171361428Y-78066657D02*
X171361428Y-78123800D01*
X171361428Y-78123800D02*
X171332857Y-78209514D01*
X171332857Y-78209514D02*
X170990000Y-78552371D01*
X170990000Y-78552371D02*
X171361428Y-78552371D01*
X178932857Y-79082371D02*
X178932857Y-79568085D01*
X178932857Y-79568085D02*
X178961428Y-79625228D01*
X178961428Y-79625228D02*
X178990000Y-79653800D01*
X178990000Y-79653800D02*
X179047142Y-79682371D01*
X179047142Y-79682371D02*
X179161428Y-79682371D01*
X179161428Y-79682371D02*
X179218571Y-79653800D01*
X179218571Y-79653800D02*
X179247142Y-79625228D01*
X179247142Y-79625228D02*
X179275714Y-79568085D01*
X179275714Y-79568085D02*
X179275714Y-79082371D01*
X179875713Y-79682371D02*
X179532856Y-79682371D01*
X179704285Y-79682371D02*
X179704285Y-79082371D01*
X179704285Y-79082371D02*
X179647142Y-79168085D01*
X179647142Y-79168085D02*
X179589999Y-79225228D01*
X179589999Y-79225228D02*
X179532856Y-79253800D01*
X170020000Y-73482371D02*
X169820000Y-73196657D01*
X169677143Y-73482371D02*
X169677143Y-72882371D01*
X169677143Y-72882371D02*
X169905714Y-72882371D01*
X169905714Y-72882371D02*
X169962857Y-72910942D01*
X169962857Y-72910942D02*
X169991428Y-72939514D01*
X169991428Y-72939514D02*
X170020000Y-72996657D01*
X170020000Y-72996657D02*
X170020000Y-73082371D01*
X170020000Y-73082371D02*
X169991428Y-73139514D01*
X169991428Y-73139514D02*
X169962857Y-73168085D01*
X169962857Y-73168085D02*
X169905714Y-73196657D01*
X169905714Y-73196657D02*
X169677143Y-73196657D01*
X170220000Y-72882371D02*
X170620000Y-72882371D01*
X170620000Y-72882371D02*
X170362857Y-73482371D01*
X188025228Y-71369999D02*
X188053800Y-71398571D01*
X188053800Y-71398571D02*
X188082371Y-71484285D01*
X188082371Y-71484285D02*
X188082371Y-71541428D01*
X188082371Y-71541428D02*
X188053800Y-71627142D01*
X188053800Y-71627142D02*
X187996657Y-71684285D01*
X187996657Y-71684285D02*
X187939514Y-71712856D01*
X187939514Y-71712856D02*
X187825228Y-71741428D01*
X187825228Y-71741428D02*
X187739514Y-71741428D01*
X187739514Y-71741428D02*
X187625228Y-71712856D01*
X187625228Y-71712856D02*
X187568085Y-71684285D01*
X187568085Y-71684285D02*
X187510942Y-71627142D01*
X187510942Y-71627142D02*
X187482371Y-71541428D01*
X187482371Y-71541428D02*
X187482371Y-71484285D01*
X187482371Y-71484285D02*
X187510942Y-71398571D01*
X187510942Y-71398571D02*
X187539514Y-71369999D01*
X187482371Y-71169999D02*
X187482371Y-70798571D01*
X187482371Y-70798571D02*
X187710942Y-70998571D01*
X187710942Y-70998571D02*
X187710942Y-70912856D01*
X187710942Y-70912856D02*
X187739514Y-70855714D01*
X187739514Y-70855714D02*
X187768085Y-70827142D01*
X187768085Y-70827142D02*
X187825228Y-70798571D01*
X187825228Y-70798571D02*
X187968085Y-70798571D01*
X187968085Y-70798571D02*
X188025228Y-70827142D01*
X188025228Y-70827142D02*
X188053800Y-70855714D01*
X188053800Y-70855714D02*
X188082371Y-70912856D01*
X188082371Y-70912856D02*
X188082371Y-71084285D01*
X188082371Y-71084285D02*
X188053800Y-71141428D01*
X188053800Y-71141428D02*
X188025228Y-71169999D01*
X192819999Y-64692371D02*
X192819999Y-65120942D01*
X192819999Y-65120942D02*
X192791428Y-65206657D01*
X192791428Y-65206657D02*
X192734285Y-65263800D01*
X192734285Y-65263800D02*
X192648571Y-65292371D01*
X192648571Y-65292371D02*
X192591428Y-65292371D01*
X193419999Y-65292371D02*
X193077142Y-65292371D01*
X193248571Y-65292371D02*
X193248571Y-64692371D01*
X193248571Y-64692371D02*
X193191428Y-64778085D01*
X193191428Y-64778085D02*
X193134285Y-64835228D01*
X193134285Y-64835228D02*
X193077142Y-64863800D01*
X186020000Y-68702371D02*
X185820000Y-68416657D01*
X185677143Y-68702371D02*
X185677143Y-68102371D01*
X185677143Y-68102371D02*
X185905714Y-68102371D01*
X185905714Y-68102371D02*
X185962857Y-68130942D01*
X185962857Y-68130942D02*
X185991428Y-68159514D01*
X185991428Y-68159514D02*
X186020000Y-68216657D01*
X186020000Y-68216657D02*
X186020000Y-68302371D01*
X186020000Y-68302371D02*
X185991428Y-68359514D01*
X185991428Y-68359514D02*
X185962857Y-68388085D01*
X185962857Y-68388085D02*
X185905714Y-68416657D01*
X185905714Y-68416657D02*
X185677143Y-68416657D01*
X186591428Y-68702371D02*
X186248571Y-68702371D01*
X186420000Y-68702371D02*
X186420000Y-68102371D01*
X186420000Y-68102371D02*
X186362857Y-68188085D01*
X186362857Y-68188085D02*
X186305714Y-68245228D01*
X186305714Y-68245228D02*
X186248571Y-68273800D01*
X187985228Y-77509999D02*
X188013800Y-77538571D01*
X188013800Y-77538571D02*
X188042371Y-77624285D01*
X188042371Y-77624285D02*
X188042371Y-77681428D01*
X188042371Y-77681428D02*
X188013800Y-77767142D01*
X188013800Y-77767142D02*
X187956657Y-77824285D01*
X187956657Y-77824285D02*
X187899514Y-77852856D01*
X187899514Y-77852856D02*
X187785228Y-77881428D01*
X187785228Y-77881428D02*
X187699514Y-77881428D01*
X187699514Y-77881428D02*
X187585228Y-77852856D01*
X187585228Y-77852856D02*
X187528085Y-77824285D01*
X187528085Y-77824285D02*
X187470942Y-77767142D01*
X187470942Y-77767142D02*
X187442371Y-77681428D01*
X187442371Y-77681428D02*
X187442371Y-77624285D01*
X187442371Y-77624285D02*
X187470942Y-77538571D01*
X187470942Y-77538571D02*
X187499514Y-77509999D01*
X188042371Y-76938571D02*
X188042371Y-77281428D01*
X188042371Y-77109999D02*
X187442371Y-77109999D01*
X187442371Y-77109999D02*
X187528085Y-77167142D01*
X187528085Y-77167142D02*
X187585228Y-77224285D01*
X187585228Y-77224285D02*
X187613800Y-77281428D01*
X188062371Y-80649999D02*
X187776657Y-80849999D01*
X188062371Y-80992856D02*
X187462371Y-80992856D01*
X187462371Y-80992856D02*
X187462371Y-80764285D01*
X187462371Y-80764285D02*
X187490942Y-80707142D01*
X187490942Y-80707142D02*
X187519514Y-80678571D01*
X187519514Y-80678571D02*
X187576657Y-80649999D01*
X187576657Y-80649999D02*
X187662371Y-80649999D01*
X187662371Y-80649999D02*
X187719514Y-80678571D01*
X187719514Y-80678571D02*
X187748085Y-80707142D01*
X187748085Y-80707142D02*
X187776657Y-80764285D01*
X187776657Y-80764285D02*
X187776657Y-80992856D01*
X187462371Y-80107142D02*
X187462371Y-80392856D01*
X187462371Y-80392856D02*
X187748085Y-80421428D01*
X187748085Y-80421428D02*
X187719514Y-80392856D01*
X187719514Y-80392856D02*
X187690942Y-80335714D01*
X187690942Y-80335714D02*
X187690942Y-80192856D01*
X187690942Y-80192856D02*
X187719514Y-80135714D01*
X187719514Y-80135714D02*
X187748085Y-80107142D01*
X187748085Y-80107142D02*
X187805228Y-80078571D01*
X187805228Y-80078571D02*
X187948085Y-80078571D01*
X187948085Y-80078571D02*
X188005228Y-80107142D01*
X188005228Y-80107142D02*
X188033800Y-80135714D01*
X188033800Y-80135714D02*
X188062371Y-80192856D01*
X188062371Y-80192856D02*
X188062371Y-80335714D01*
X188062371Y-80335714D02*
X188033800Y-80392856D01*
X188033800Y-80392856D02*
X188005228Y-80421428D01*
X176330001Y-77932370D02*
X176130001Y-77646656D01*
X175987144Y-77932370D02*
X175987144Y-77332370D01*
X175987144Y-77332370D02*
X176215715Y-77332370D01*
X176215715Y-77332370D02*
X176272858Y-77360941D01*
X176272858Y-77360941D02*
X176301429Y-77389513D01*
X176301429Y-77389513D02*
X176330001Y-77446656D01*
X176330001Y-77446656D02*
X176330001Y-77532370D01*
X176330001Y-77532370D02*
X176301429Y-77589513D01*
X176301429Y-77589513D02*
X176272858Y-77618084D01*
X176272858Y-77618084D02*
X176215715Y-77646656D01*
X176215715Y-77646656D02*
X175987144Y-77646656D01*
X176530001Y-77332370D02*
X176901429Y-77332370D01*
X176901429Y-77332370D02*
X176701429Y-77560941D01*
X176701429Y-77560941D02*
X176787144Y-77560941D01*
X176787144Y-77560941D02*
X176844287Y-77589513D01*
X176844287Y-77589513D02*
X176872858Y-77618084D01*
X176872858Y-77618084D02*
X176901429Y-77675227D01*
X176901429Y-77675227D02*
X176901429Y-77818084D01*
X176901429Y-77818084D02*
X176872858Y-77875227D01*
X176872858Y-77875227D02*
X176844287Y-77903799D01*
X176844287Y-77903799D02*
X176787144Y-77932370D01*
X176787144Y-77932370D02*
X176615715Y-77932370D01*
X176615715Y-77932370D02*
X176558572Y-77903799D01*
X176558572Y-77903799D02*
X176530001Y-77875227D01*
X172460000Y-78495228D02*
X172431428Y-78523800D01*
X172431428Y-78523800D02*
X172345714Y-78552371D01*
X172345714Y-78552371D02*
X172288571Y-78552371D01*
X172288571Y-78552371D02*
X172202857Y-78523800D01*
X172202857Y-78523800D02*
X172145714Y-78466657D01*
X172145714Y-78466657D02*
X172117143Y-78409514D01*
X172117143Y-78409514D02*
X172088571Y-78295228D01*
X172088571Y-78295228D02*
X172088571Y-78209514D01*
X172088571Y-78209514D02*
X172117143Y-78095228D01*
X172117143Y-78095228D02*
X172145714Y-78038085D01*
X172145714Y-78038085D02*
X172202857Y-77980942D01*
X172202857Y-77980942D02*
X172288571Y-77952371D01*
X172288571Y-77952371D02*
X172345714Y-77952371D01*
X172345714Y-77952371D02*
X172431428Y-77980942D01*
X172431428Y-77980942D02*
X172460000Y-78009514D01*
X173002857Y-77952371D02*
X172717143Y-77952371D01*
X172717143Y-77952371D02*
X172688571Y-78238085D01*
X172688571Y-78238085D02*
X172717143Y-78209514D01*
X172717143Y-78209514D02*
X172774286Y-78180942D01*
X172774286Y-78180942D02*
X172917143Y-78180942D01*
X172917143Y-78180942D02*
X172974286Y-78209514D01*
X172974286Y-78209514D02*
X173002857Y-78238085D01*
X173002857Y-78238085D02*
X173031428Y-78295228D01*
X173031428Y-78295228D02*
X173031428Y-78438085D01*
X173031428Y-78438085D02*
X173002857Y-78495228D01*
X173002857Y-78495228D02*
X172974286Y-78523800D01*
X172974286Y-78523800D02*
X172917143Y-78552371D01*
X172917143Y-78552371D02*
X172774286Y-78552371D01*
X172774286Y-78552371D02*
X172717143Y-78523800D01*
X172717143Y-78523800D02*
X172688571Y-78495228D01*
X166259999Y-63992371D02*
X166259999Y-64420942D01*
X166259999Y-64420942D02*
X166231428Y-64506657D01*
X166231428Y-64506657D02*
X166174285Y-64563800D01*
X166174285Y-64563800D02*
X166088571Y-64592371D01*
X166088571Y-64592371D02*
X166031428Y-64592371D01*
X166488571Y-63992371D02*
X166859999Y-63992371D01*
X166859999Y-63992371D02*
X166659999Y-64220942D01*
X166659999Y-64220942D02*
X166745714Y-64220942D01*
X166745714Y-64220942D02*
X166802857Y-64249514D01*
X166802857Y-64249514D02*
X166831428Y-64278085D01*
X166831428Y-64278085D02*
X166859999Y-64335228D01*
X166859999Y-64335228D02*
X166859999Y-64478085D01*
X166859999Y-64478085D02*
X166831428Y-64535228D01*
X166831428Y-64535228D02*
X166802857Y-64563800D01*
X166802857Y-64563800D02*
X166745714Y-64592371D01*
X166745714Y-64592371D02*
X166574285Y-64592371D01*
X166574285Y-64592371D02*
X166517142Y-64563800D01*
X166517142Y-64563800D02*
X166488571Y-64535228D01*
X172729999Y-63837371D02*
X172729999Y-64265942D01*
X172729999Y-64265942D02*
X172701428Y-64351657D01*
X172701428Y-64351657D02*
X172644285Y-64408800D01*
X172644285Y-64408800D02*
X172558571Y-64437371D01*
X172558571Y-64437371D02*
X172501428Y-64437371D01*
X172987142Y-63894514D02*
X173015714Y-63865942D01*
X173015714Y-63865942D02*
X173072857Y-63837371D01*
X173072857Y-63837371D02*
X173215714Y-63837371D01*
X173215714Y-63837371D02*
X173272857Y-63865942D01*
X173272857Y-63865942D02*
X173301428Y-63894514D01*
X173301428Y-63894514D02*
X173329999Y-63951657D01*
X173329999Y-63951657D02*
X173329999Y-64008800D01*
X173329999Y-64008800D02*
X173301428Y-64094514D01*
X173301428Y-64094514D02*
X172958571Y-64437371D01*
X172958571Y-64437371D02*
X173329999Y-64437371D01*
X188042371Y-74439999D02*
X187756657Y-74639999D01*
X188042371Y-74782856D02*
X187442371Y-74782856D01*
X187442371Y-74782856D02*
X187442371Y-74554285D01*
X187442371Y-74554285D02*
X187470942Y-74497142D01*
X187470942Y-74497142D02*
X187499514Y-74468571D01*
X187499514Y-74468571D02*
X187556657Y-74439999D01*
X187556657Y-74439999D02*
X187642371Y-74439999D01*
X187642371Y-74439999D02*
X187699514Y-74468571D01*
X187699514Y-74468571D02*
X187728085Y-74497142D01*
X187728085Y-74497142D02*
X187756657Y-74554285D01*
X187756657Y-74554285D02*
X187756657Y-74782856D01*
X187642371Y-73925714D02*
X188042371Y-73925714D01*
X187413800Y-74068571D02*
X187842371Y-74211428D01*
X187842371Y-74211428D02*
X187842371Y-73839999D01*
X170015000Y-75952371D02*
X169815000Y-75666657D01*
X169672143Y-75952371D02*
X169672143Y-75352371D01*
X169672143Y-75352371D02*
X169900714Y-75352371D01*
X169900714Y-75352371D02*
X169957857Y-75380942D01*
X169957857Y-75380942D02*
X169986428Y-75409514D01*
X169986428Y-75409514D02*
X170015000Y-75466657D01*
X170015000Y-75466657D02*
X170015000Y-75552371D01*
X170015000Y-75552371D02*
X169986428Y-75609514D01*
X169986428Y-75609514D02*
X169957857Y-75638085D01*
X169957857Y-75638085D02*
X169900714Y-75666657D01*
X169900714Y-75666657D02*
X169672143Y-75666657D01*
X170529286Y-75352371D02*
X170415000Y-75352371D01*
X170415000Y-75352371D02*
X170357857Y-75380942D01*
X170357857Y-75380942D02*
X170329286Y-75409514D01*
X170329286Y-75409514D02*
X170272143Y-75495228D01*
X170272143Y-75495228D02*
X170243571Y-75609514D01*
X170243571Y-75609514D02*
X170243571Y-75838085D01*
X170243571Y-75838085D02*
X170272143Y-75895228D01*
X170272143Y-75895228D02*
X170300714Y-75923800D01*
X170300714Y-75923800D02*
X170357857Y-75952371D01*
X170357857Y-75952371D02*
X170472143Y-75952371D01*
X170472143Y-75952371D02*
X170529286Y-75923800D01*
X170529286Y-75923800D02*
X170557857Y-75895228D01*
X170557857Y-75895228D02*
X170586428Y-75838085D01*
X170586428Y-75838085D02*
X170586428Y-75695228D01*
X170586428Y-75695228D02*
X170557857Y-75638085D01*
X170557857Y-75638085D02*
X170529286Y-75609514D01*
X170529286Y-75609514D02*
X170472143Y-75580942D01*
X170472143Y-75580942D02*
X170357857Y-75580942D01*
X170357857Y-75580942D02*
X170300714Y-75609514D01*
X170300714Y-75609514D02*
X170272143Y-75638085D01*
X170272143Y-75638085D02*
X170243571Y-75695228D01*
X173339999Y-73885228D02*
X173311427Y-73913800D01*
X173311427Y-73913800D02*
X173225713Y-73942371D01*
X173225713Y-73942371D02*
X173168570Y-73942371D01*
X173168570Y-73942371D02*
X173082856Y-73913800D01*
X173082856Y-73913800D02*
X173025713Y-73856657D01*
X173025713Y-73856657D02*
X172997142Y-73799514D01*
X172997142Y-73799514D02*
X172968570Y-73685228D01*
X172968570Y-73685228D02*
X172968570Y-73599514D01*
X172968570Y-73599514D02*
X172997142Y-73485228D01*
X172997142Y-73485228D02*
X173025713Y-73428085D01*
X173025713Y-73428085D02*
X173082856Y-73370942D01*
X173082856Y-73370942D02*
X173168570Y-73342371D01*
X173168570Y-73342371D02*
X173225713Y-73342371D01*
X173225713Y-73342371D02*
X173311427Y-73370942D01*
X173311427Y-73370942D02*
X173339999Y-73399514D01*
X173854285Y-73542371D02*
X173854285Y-73942371D01*
X173711427Y-73313800D02*
X173568570Y-73742371D01*
X173568570Y-73742371D02*
X173939999Y-73742371D01*
D12*
X159040000Y-65640000D02*
X159040000Y-67140000D01*
X159280000Y-65880000D02*
X159280000Y-80000000D01*
X160780000Y-65640000D02*
X159040000Y-65640000D01*
X160840000Y-65880000D02*
X160840000Y-80000000D01*
X161915000Y-70255000D02*
X161860000Y-70201000D01*
X161915000Y-73755000D02*
X161860000Y-73701000D01*
X161915000Y-77255000D02*
X161860000Y-77201000D01*
X162126000Y-70087000D02*
X162050000Y-70011000D01*
X162126000Y-73587000D02*
X162050000Y-73511000D01*
X162126000Y-77087000D02*
X162050000Y-77011000D01*
X164030000Y-72370000D02*
X163954000Y-72294000D01*
X164030000Y-75870000D02*
X163954000Y-75794000D01*
X164030000Y-79370000D02*
X163954000Y-79294000D01*
X164220000Y-72180000D02*
X164166000Y-72126000D01*
X164220000Y-75680000D02*
X164166000Y-75626000D01*
X164220000Y-79180000D02*
X164166000Y-79126000D01*
X165900000Y-65880000D02*
X159280000Y-65880000D01*
X165900000Y-65880000D02*
X165900000Y-80000000D01*
X165900000Y-80000000D02*
X159280000Y-80000000D01*
X161484319Y-67716444D02*
G75*
G02*
X161654001Y-66983000I1555676J26445D01*
G01*
X161654486Y-68395955D02*
G75*
G02*
X161485001Y-67690000I1385522J705957D01*
G01*
X162334267Y-66303356D02*
G75*
G02*
X163746999Y-66304001I705733J-1386644D01*
G01*
X163745733Y-69076645D02*
G75*
G02*
X162333000Y-69076000I-705734J1386646D01*
G01*
X164426644Y-66984267D02*
G75*
G02*
X164425999Y-68396999I-1386644J-705733D01*
G01*
X164595000Y-71190000D02*
G75*
G02*
X161485000Y-71190000I-1555000J0D01*
G01*
X161485000Y-71190000D02*
G75*
G02*
X164595000Y-71190000I1555000J0D01*
G01*
X164595000Y-74690000D02*
G75*
G02*
X161485000Y-74690000I-1555000J0D01*
G01*
X161485000Y-74690000D02*
G75*
G02*
X164595000Y-74690000I1555000J0D01*
G01*
X164595000Y-78190000D02*
G75*
G02*
X161485000Y-78190000I-1555000J0D01*
G01*
X161485000Y-78190000D02*
G75*
G02*
X164595000Y-78190000I1555000J0D01*
G01*
X175245580Y-78270000D02*
X174964420Y-78270000D01*
X175245580Y-79290000D02*
X174964420Y-79290000D01*
X176192742Y-74447500D02*
X176667258Y-74447500D01*
X176192742Y-75492500D02*
X176667258Y-75492500D01*
X170390000Y-80039420D02*
X170390000Y-80320580D01*
X171410000Y-80039420D02*
X171410000Y-80320580D01*
D13*
X182098000Y-71615000D02*
X185298000Y-71615000D01*
X182098000Y-81515000D02*
X182098000Y-71615000D01*
X185298000Y-71615000D02*
X185298000Y-81515000D01*
X185298000Y-81515000D02*
X182098000Y-81515000D01*
X187173000Y-81710000D02*
X185648000Y-81710000D01*
D12*
X169882742Y-73777500D02*
X170357258Y-73777500D01*
X169882742Y-74822500D02*
X170357258Y-74822500D01*
X188350000Y-71405580D02*
X188350000Y-71124420D01*
X189370000Y-71405580D02*
X189370000Y-71124420D01*
X186955000Y-65730000D02*
X186955000Y-68015000D01*
X186955000Y-68015000D02*
X188425000Y-68015000D01*
X188425000Y-68015000D02*
X188425000Y-65730000D01*
X190150000Y-65880000D02*
X196770000Y-65880000D01*
X190150000Y-80000000D02*
X190150000Y-65880000D01*
X190150000Y-80000000D02*
X196770000Y-80000000D01*
X191830000Y-66700000D02*
X191884000Y-66754000D01*
X191830000Y-70200000D02*
X191884000Y-70254000D01*
X191830000Y-73700000D02*
X191884000Y-73754000D01*
X192020000Y-66510000D02*
X192096000Y-66586000D01*
X192020000Y-70010000D02*
X192096000Y-70086000D01*
X192020000Y-73510000D02*
X192096000Y-73586000D01*
X193924000Y-68793000D02*
X194000000Y-68869000D01*
X193924000Y-72293000D02*
X194000000Y-72369000D01*
X193924000Y-75793000D02*
X194000000Y-75869000D01*
X194135000Y-68625000D02*
X194190000Y-68679000D01*
X194135000Y-72125000D02*
X194190000Y-72179000D01*
X194135000Y-75625000D02*
X194190000Y-75679000D01*
X195210000Y-80000000D02*
X195210000Y-65880000D01*
X195270000Y-80240000D02*
X197010000Y-80240000D01*
X196770000Y-80000000D02*
X196770000Y-65880000D01*
X197010000Y-80240000D02*
X197010000Y-78740000D01*
X191623356Y-78895733D02*
G75*
G02*
X191624001Y-77483001I1386644J705733D01*
G01*
X192304267Y-76803355D02*
G75*
G02*
X193717000Y-76804000I705734J-1386646D01*
G01*
X193715733Y-79576644D02*
G75*
G02*
X192303001Y-79575999I-705733J1386644D01*
G01*
X194395514Y-77484045D02*
G75*
G02*
X194564999Y-78190000I-1385522J-705957D01*
G01*
X194565681Y-78163556D02*
G75*
G02*
X194395999Y-78897000I-1555676J-26445D01*
G01*
X194565000Y-67690000D02*
G75*
G02*
X191455000Y-67690000I-1555000J0D01*
G01*
X191455000Y-67690000D02*
G75*
G02*
X194565000Y-67690000I1555000J0D01*
G01*
X194565000Y-71190000D02*
G75*
G02*
X191455000Y-71190000I-1555000J0D01*
G01*
X191455000Y-71190000D02*
G75*
G02*
X194565000Y-71190000I1555000J0D01*
G01*
X194565000Y-74690000D02*
G75*
G02*
X191455000Y-74690000I-1555000J0D01*
G01*
X191455000Y-74690000D02*
G75*
G02*
X194565000Y-74690000I1555000J0D01*
G01*
X185597500Y-66312742D02*
X185597500Y-66787258D01*
X186642500Y-66312742D02*
X186642500Y-66787258D01*
X188340000Y-77535580D02*
X188340000Y-77254420D01*
X189360000Y-77535580D02*
X189360000Y-77254420D01*
X188327500Y-80792258D02*
X188327500Y-80317742D01*
X189372500Y-80792258D02*
X189372500Y-80317742D01*
X176192742Y-75977500D02*
X176667258Y-75977500D01*
X176192742Y-77022500D02*
X176667258Y-77022500D01*
X172050000Y-80009420D02*
X172050000Y-80290580D01*
X173070000Y-80009420D02*
X173070000Y-80290580D01*
X167440000Y-71760000D02*
X167440000Y-64020000D01*
X170100000Y-64020000D02*
X167440000Y-64020000D01*
X170100000Y-70430000D02*
X170100000Y-71760000D01*
X170100000Y-70550000D02*
X170100000Y-64020000D01*
X170100000Y-71760000D02*
X167440000Y-71760000D01*
X170100000Y-71760000D02*
X168770000Y-71760000D01*
X171630000Y-64635000D02*
X171630000Y-66635000D01*
X171920000Y-65861000D02*
X171920000Y-70895000D01*
X171920000Y-70895000D02*
X184540000Y-70895000D01*
X172956000Y-64925000D02*
X171920000Y-65861000D01*
X173630000Y-64635000D02*
X171630000Y-64635000D01*
X184540000Y-64925000D02*
X172956000Y-64925000D01*
X184540000Y-70895000D02*
X184540000Y-64925000D01*
X188327500Y-74107742D02*
X188327500Y-74582258D01*
X189372500Y-74107742D02*
X189372500Y-74582258D01*
X169882742Y-76287500D02*
X170357258Y-76287500D01*
X169882742Y-77332500D02*
X170357258Y-77332500D01*
X172930000Y-75680580D02*
X172930000Y-75399420D01*
X173950000Y-75680580D02*
X173950000Y-75399420D01*
%LPC*%
D14*
X163040000Y-67690000D03*
D15*
X163040000Y-71190000D03*
X163040000Y-74690000D03*
X163040000Y-78190000D03*
D16*
X175880000Y-78780000D03*
X174330000Y-78780000D03*
D17*
X175605000Y-74970000D03*
X177255000Y-74970000D03*
D18*
X170900000Y-79405000D03*
X170900000Y-80955000D03*
D19*
X186410000Y-81010000D03*
X186410000Y-79740000D03*
X186410000Y-78470000D03*
X186410000Y-77200000D03*
X186410000Y-75930000D03*
X186410000Y-74660000D03*
X186410000Y-73390000D03*
X186410000Y-72120000D03*
X180986000Y-72120000D03*
X180986000Y-73390000D03*
X180986000Y-74660000D03*
X180986000Y-75930000D03*
X180986000Y-77200000D03*
X180986000Y-78470000D03*
X180986000Y-79740000D03*
X180986000Y-81010000D03*
D17*
X169295000Y-74300000D03*
X170945000Y-74300000D03*
D20*
X188860000Y-72040000D03*
X188860000Y-70490000D03*
D21*
X187690000Y-67317500D03*
X187690000Y-65742500D03*
D14*
X193010000Y-78190000D03*
D15*
X193010000Y-74690000D03*
X193010000Y-71190000D03*
X193010000Y-67690000D03*
D22*
X186120000Y-65725000D03*
X186120000Y-67375000D03*
D20*
X188850000Y-78170000D03*
X188850000Y-76620000D03*
D23*
X188850000Y-81380000D03*
X188850000Y-79730000D03*
D17*
X175605000Y-76500000D03*
X177255000Y-76500000D03*
D18*
X172560000Y-79375000D03*
X172560000Y-80925000D03*
D24*
X168770000Y-70430000D03*
D25*
X168770000Y-67890000D03*
X168770000Y-65350000D03*
D26*
X174480000Y-67385000D03*
X176980000Y-67385000D03*
X179480000Y-67385000D03*
D27*
X181980000Y-67385000D03*
D22*
X188850000Y-73520000D03*
X188850000Y-75170000D03*
D17*
X169295000Y-76810000D03*
X170945000Y-76810000D03*
D20*
X173440000Y-76315000D03*
X173440000Y-74765000D03*
%LPD*%
M02*
