G04 #@! TF.GenerationSoftware,KiCad,Pcbnew,8.0.0*
G04 #@! TF.CreationDate,2024-05-22T11:22:58+03:00*
G04 #@! TF.ProjectId,B-NAU7802-BRK-01MBR-R01,422d4e41-5537-4383-9032-2d42524b2d30,rev?*
G04 #@! TF.SameCoordinates,Original*
G04 #@! TF.FileFunction,Legend,Bot*
G04 #@! TF.FilePolarity,Positive*
%FSLAX46Y46*%
G04 Gerber Fmt 4.6, Leading zero omitted, Abs format (unit mm)*
G04 Created by KiCad (PCBNEW 8.0.0) date 2024-05-22 11:22:58*
%MOMM*%
%LPD*%
G01*
G04 APERTURE LIST*
G04 Aperture macros list*
%AMRoundRect*
0 Rectangle with rounded corners*
0 $1 Rounding radius*
0 $2 $3 $4 $5 $6 $7 $8 $9 X,Y pos of 4 corners*
0 Add a 4 corners polygon primitive as box body*
4,1,4,$2,$3,$4,$5,$6,$7,$8,$9,$2,$3,0*
0 Add four circle primitives for the rounded corners*
1,1,$1+$1,$2,$3*
1,1,$1+$1,$4,$5*
1,1,$1+$1,$6,$7*
1,1,$1+$1,$8,$9*
0 Add four rect primitives between the rounded corners*
20,1,$1+$1,$2,$3,$4,$5,0*
20,1,$1+$1,$4,$5,$6,$7,0*
20,1,$1+$1,$6,$7,$8,$9,0*
20,1,$1+$1,$8,$9,$2,$3,0*%
G04 Aperture macros list end*
%ADD10C,0.000000*%
%ADD11C,0.150000*%
%ADD12C,0.140000*%
%ADD13R,2.300000X2.300000*%
%ADD14C,2.300000*%
%ADD15C,1.700000*%
%ADD16O,1.700000X1.700000*%
%ADD17O,1.700000X1.950000*%
%ADD18RoundRect,0.250000X-0.600000X-0.725000X0.600000X-0.725000X0.600000X0.725000X-0.600000X0.725000X0*%
G04 APERTURE END LIST*
D10*
G36*
X191126854Y-80790501D02*
G01*
X190232562Y-80787854D01*
X191097750Y-81584250D01*
X191097750Y-81748291D01*
X189949458Y-81748291D01*
X189949458Y-81560438D01*
X190777604Y-81563084D01*
X189915062Y-80764042D01*
X189915062Y-80600000D01*
X191126854Y-80600000D01*
X191126854Y-80790501D01*
G37*
G36*
X186329959Y-81441375D02*
G01*
X186351741Y-81452245D01*
X186374488Y-81462976D01*
X186398298Y-81473489D01*
X186423266Y-81483708D01*
X186449490Y-81493555D01*
X186477066Y-81502953D01*
X186506092Y-81511823D01*
X186536664Y-81520088D01*
X186568880Y-81527672D01*
X186602836Y-81534496D01*
X186638629Y-81540482D01*
X186676356Y-81545554D01*
X186716114Y-81549634D01*
X186757999Y-81552644D01*
X186802110Y-81554507D01*
X186848541Y-81555146D01*
X186848541Y-81766812D01*
X186804345Y-81766139D01*
X186761994Y-81764156D01*
X186721410Y-81760917D01*
X186682516Y-81756477D01*
X186645234Y-81750889D01*
X186609487Y-81744209D01*
X186575197Y-81736490D01*
X186542287Y-81727786D01*
X186510679Y-81718153D01*
X186480296Y-81707643D01*
X186451060Y-81696312D01*
X186422893Y-81684213D01*
X186395719Y-81671401D01*
X186369460Y-81657930D01*
X186344038Y-81643855D01*
X186319375Y-81629229D01*
X186319375Y-81745646D01*
X186316730Y-81748291D01*
X186089188Y-81748291D01*
X186089188Y-80597354D01*
X186329959Y-80597354D01*
X186329959Y-81441375D01*
G37*
G36*
X187571394Y-80579627D02*
G01*
X187605721Y-80581960D01*
X187639389Y-80585757D01*
X187672347Y-80590946D01*
X187704546Y-80597453D01*
X187735935Y-80605204D01*
X187766464Y-80614125D01*
X187796082Y-80624143D01*
X187824738Y-80635185D01*
X187852383Y-80647175D01*
X187878966Y-80660042D01*
X187904437Y-80673711D01*
X187928745Y-80688109D01*
X187951840Y-80703162D01*
X187973671Y-80718796D01*
X187994189Y-80734938D01*
X187994189Y-80600000D01*
X188221729Y-80600000D01*
X188221729Y-82134583D01*
X187980959Y-82134583D01*
X187980959Y-81618646D01*
X187960154Y-81634758D01*
X187938419Y-81650308D01*
X187915754Y-81665230D01*
X187892158Y-81679458D01*
X187867633Y-81692927D01*
X187842177Y-81705571D01*
X187815791Y-81717323D01*
X187788475Y-81728117D01*
X187760228Y-81737888D01*
X187731052Y-81746571D01*
X187700945Y-81754098D01*
X187669908Y-81760405D01*
X187637941Y-81765424D01*
X187605044Y-81769091D01*
X187571217Y-81771340D01*
X187536459Y-81772104D01*
X187468582Y-81770074D01*
X187403961Y-81763924D01*
X187342750Y-81753565D01*
X187313472Y-81746779D01*
X187285105Y-81738907D01*
X187257668Y-81729939D01*
X187231180Y-81719863D01*
X187205662Y-81708667D01*
X187181132Y-81696341D01*
X187157609Y-81682874D01*
X187135114Y-81668255D01*
X187113665Y-81652471D01*
X187093282Y-81635513D01*
X187073984Y-81617369D01*
X187055791Y-81598028D01*
X187038721Y-81577478D01*
X187022795Y-81555709D01*
X187008032Y-81532710D01*
X186994451Y-81508468D01*
X186982071Y-81482974D01*
X186970912Y-81456216D01*
X186960994Y-81428183D01*
X186952335Y-81398864D01*
X186944955Y-81368247D01*
X186938873Y-81336322D01*
X186934109Y-81303077D01*
X186930682Y-81268501D01*
X186928612Y-81232583D01*
X186927918Y-81195312D01*
X186928049Y-81187375D01*
X187171334Y-81187375D01*
X187171789Y-81212693D01*
X187173148Y-81237059D01*
X187175399Y-81260484D01*
X187178532Y-81282976D01*
X187182535Y-81304546D01*
X187187396Y-81325204D01*
X187193106Y-81344958D01*
X187199652Y-81363819D01*
X187207024Y-81381796D01*
X187215210Y-81398899D01*
X187224199Y-81415138D01*
X187233981Y-81430523D01*
X187244543Y-81445062D01*
X187255876Y-81458766D01*
X187267966Y-81471645D01*
X187280805Y-81483708D01*
X187294380Y-81494965D01*
X187308680Y-81505425D01*
X187323694Y-81515098D01*
X187339411Y-81523995D01*
X187355820Y-81532124D01*
X187372910Y-81539495D01*
X187390669Y-81546118D01*
X187409087Y-81552003D01*
X187428152Y-81557160D01*
X187447853Y-81561597D01*
X187468179Y-81565325D01*
X187489118Y-81568354D01*
X187532795Y-81572351D01*
X187578793Y-81573666D01*
X187607407Y-81573048D01*
X187635689Y-81571206D01*
X187663613Y-81568155D01*
X187691158Y-81563909D01*
X187718300Y-81558486D01*
X187745015Y-81551900D01*
X187771281Y-81544167D01*
X187797074Y-81535302D01*
X187822371Y-81525320D01*
X187847148Y-81514238D01*
X187871383Y-81502071D01*
X187895052Y-81488834D01*
X187918132Y-81474543D01*
X187940600Y-81459213D01*
X187962432Y-81442860D01*
X187983605Y-81425500D01*
X187983605Y-80920146D01*
X187980959Y-80920146D01*
X187962491Y-80904589D01*
X187942853Y-80889698D01*
X187922114Y-80875521D01*
X187900344Y-80862103D01*
X187877613Y-80849492D01*
X187853990Y-80837733D01*
X187829546Y-80826873D01*
X187804350Y-80816959D01*
X187778472Y-80808037D01*
X187751981Y-80800153D01*
X187724948Y-80793355D01*
X187697442Y-80787689D01*
X187669533Y-80783201D01*
X187641290Y-80779938D01*
X187612784Y-80777946D01*
X187584084Y-80777271D01*
X187557759Y-80777727D01*
X187532358Y-80779086D01*
X187507876Y-80781339D01*
X187484307Y-80784475D01*
X187461644Y-80788483D01*
X187439883Y-80793352D01*
X187419017Y-80799071D01*
X187399041Y-80805631D01*
X187379948Y-80813020D01*
X187361733Y-80821228D01*
X187344390Y-80830244D01*
X187327913Y-80840058D01*
X187312297Y-80850658D01*
X187297535Y-80862035D01*
X187283622Y-80874177D01*
X187270552Y-80887073D01*
X187258319Y-80900714D01*
X187246918Y-80915088D01*
X187236342Y-80930185D01*
X187226586Y-80945995D01*
X187217644Y-80962505D01*
X187209509Y-80979707D01*
X187202178Y-80997589D01*
X187195642Y-81016140D01*
X187189897Y-81035350D01*
X187184937Y-81055209D01*
X187180756Y-81075705D01*
X187177349Y-81096828D01*
X187172830Y-81140911D01*
X187171334Y-81187375D01*
X186928049Y-81187375D01*
X186928537Y-81157928D01*
X186930392Y-81121678D01*
X186933477Y-81086567D01*
X186937788Y-81052597D01*
X186943320Y-81019774D01*
X186950067Y-80988098D01*
X186958026Y-80957575D01*
X186967192Y-80928207D01*
X186977558Y-80899998D01*
X186989122Y-80872951D01*
X187001877Y-80847070D01*
X187015819Y-80822358D01*
X187030943Y-80798819D01*
X187047245Y-80776455D01*
X187064719Y-80755270D01*
X187083360Y-80735268D01*
X187103164Y-80716452D01*
X187124126Y-80698825D01*
X187146241Y-80682391D01*
X187169505Y-80667153D01*
X187193911Y-80653115D01*
X187219456Y-80640280D01*
X187246135Y-80628651D01*
X187273943Y-80618231D01*
X187302874Y-80609025D01*
X187332925Y-80601036D01*
X187364090Y-80594266D01*
X187396364Y-80588719D01*
X187429743Y-80584399D01*
X187464222Y-80581309D01*
X187499796Y-80579453D01*
X187536459Y-80578833D01*
X187571394Y-80579627D01*
G37*
G36*
X191753139Y-80577186D02*
G01*
X191792343Y-80580089D01*
X191831640Y-80584750D01*
X191870829Y-80591029D01*
X191909708Y-80598779D01*
X191948075Y-80607860D01*
X191985729Y-80618126D01*
X192022468Y-80629434D01*
X192058091Y-80641642D01*
X192092397Y-80654606D01*
X192125183Y-80668182D01*
X192156248Y-80682227D01*
X192185391Y-80696598D01*
X192212410Y-80711150D01*
X192237104Y-80725742D01*
X192259271Y-80740229D01*
X192259271Y-80597353D01*
X192486813Y-80597353D01*
X192486813Y-81361998D01*
X192486291Y-81387610D01*
X192484717Y-81412356D01*
X192482075Y-81436242D01*
X192478353Y-81459269D01*
X192473536Y-81481442D01*
X192467610Y-81502763D01*
X192460562Y-81523237D01*
X192452376Y-81542866D01*
X192443039Y-81561654D01*
X192432536Y-81579605D01*
X192420855Y-81596721D01*
X192407980Y-81613007D01*
X192393898Y-81628464D01*
X192378595Y-81643098D01*
X192362057Y-81656912D01*
X192344269Y-81669908D01*
X192325217Y-81682090D01*
X192304888Y-81693461D01*
X192283267Y-81704025D01*
X192260341Y-81713786D01*
X192236095Y-81722746D01*
X192210515Y-81730910D01*
X192183588Y-81738280D01*
X192155298Y-81744859D01*
X192125633Y-81750652D01*
X192094578Y-81755662D01*
X192062119Y-81759891D01*
X192028241Y-81763344D01*
X191992932Y-81766024D01*
X191956177Y-81767933D01*
X191878271Y-81769457D01*
X191878271Y-81769458D01*
X191799072Y-81767768D01*
X191720927Y-81762885D01*
X191644890Y-81755087D01*
X191572016Y-81744654D01*
X191503359Y-81731864D01*
X191439972Y-81716996D01*
X191410585Y-81708871D01*
X191382911Y-81700331D01*
X191357082Y-81691411D01*
X191333229Y-81682146D01*
X191333229Y-81475770D01*
X191360038Y-81485531D01*
X191387836Y-81494942D01*
X191416556Y-81503966D01*
X191446132Y-81512564D01*
X191476499Y-81520697D01*
X191507591Y-81528326D01*
X191539341Y-81535412D01*
X191571685Y-81541917D01*
X191604556Y-81547801D01*
X191637888Y-81553027D01*
X191671615Y-81557555D01*
X191705672Y-81561347D01*
X191739992Y-81564364D01*
X191774510Y-81566566D01*
X191809160Y-81567916D01*
X191843875Y-81568375D01*
X191898128Y-81567595D01*
X191947869Y-81565238D01*
X191993238Y-81561277D01*
X192034375Y-81555683D01*
X192071419Y-81548431D01*
X192104510Y-81539493D01*
X192133788Y-81528842D01*
X192159391Y-81516450D01*
X192170858Y-81509594D01*
X192181459Y-81502292D01*
X192191211Y-81494541D01*
X192200132Y-81486339D01*
X192208239Y-81477681D01*
X192215550Y-81468564D01*
X192222081Y-81458985D01*
X192227851Y-81448940D01*
X192232877Y-81438427D01*
X192237176Y-81427441D01*
X192243664Y-81404039D01*
X192247455Y-81378706D01*
X192248687Y-81351416D01*
X192248687Y-81248229D01*
X192203114Y-81259733D01*
X192153975Y-81270306D01*
X192101673Y-81279762D01*
X192046612Y-81287917D01*
X191989194Y-81294583D01*
X191929823Y-81299575D01*
X191868902Y-81302706D01*
X191806833Y-81303791D01*
X191747687Y-81303036D01*
X191690474Y-81300603D01*
X191635454Y-81296240D01*
X191582889Y-81289694D01*
X191533036Y-81280715D01*
X191486155Y-81269049D01*
X191442508Y-81254446D01*
X191402352Y-81236654D01*
X191383664Y-81226482D01*
X191365948Y-81215419D01*
X191349234Y-81203432D01*
X191333555Y-81190491D01*
X191318944Y-81176563D01*
X191305433Y-81161617D01*
X191293055Y-81145622D01*
X191281842Y-81128547D01*
X191271827Y-81110358D01*
X191263042Y-81091026D01*
X191255519Y-81070519D01*
X191249291Y-81048805D01*
X191244391Y-81025852D01*
X191240850Y-81001630D01*
X191238702Y-80976106D01*
X191237979Y-80949250D01*
X191238049Y-80946604D01*
X191481396Y-80946604D01*
X191481715Y-80960675D01*
X191482674Y-80974121D01*
X191484280Y-80986956D01*
X191486538Y-80999190D01*
X191489452Y-81010834D01*
X191493029Y-81021901D01*
X191497273Y-81032403D01*
X191502191Y-81042350D01*
X191507786Y-81051754D01*
X191514065Y-81060628D01*
X191521033Y-81068982D01*
X191528695Y-81076828D01*
X191537057Y-81084179D01*
X191546124Y-81091045D01*
X191555901Y-81097438D01*
X191566393Y-81103369D01*
X191577607Y-81108852D01*
X191589546Y-81113896D01*
X191602218Y-81118514D01*
X191615626Y-81122717D01*
X191629776Y-81126517D01*
X191644674Y-81129926D01*
X191660324Y-81132955D01*
X191676733Y-81135616D01*
X191693905Y-81137920D01*
X191711847Y-81139879D01*
X191750057Y-81142809D01*
X191791406Y-81144499D01*
X191835938Y-81145041D01*
X191893924Y-81144209D01*
X191950577Y-81141858D01*
X192005555Y-81138205D01*
X192058519Y-81133466D01*
X192109125Y-81127859D01*
X192157035Y-81121601D01*
X192201906Y-81114909D01*
X192243397Y-81108000D01*
X192243397Y-80904271D01*
X192222529Y-80888248D01*
X192199735Y-80872950D01*
X192175197Y-80858419D01*
X192149097Y-80844698D01*
X192121618Y-80831830D01*
X192092941Y-80819857D01*
X192063248Y-80808822D01*
X192032722Y-80798768D01*
X192001545Y-80789737D01*
X191969899Y-80781772D01*
X191937966Y-80774915D01*
X191905929Y-80769209D01*
X191873969Y-80764697D01*
X191842269Y-80761422D01*
X191811010Y-80759425D01*
X191780376Y-80758750D01*
X191744752Y-80759493D01*
X191711315Y-80761721D01*
X191680079Y-80765430D01*
X191651060Y-80770615D01*
X191624274Y-80777273D01*
X191599735Y-80785399D01*
X191577460Y-80794991D01*
X191557464Y-80806044D01*
X191548325Y-80812117D01*
X191539762Y-80818554D01*
X191531776Y-80825355D01*
X191524370Y-80832518D01*
X191517545Y-80840044D01*
X191511304Y-80847931D01*
X191505647Y-80856180D01*
X191500578Y-80864790D01*
X191496098Y-80873760D01*
X191492209Y-80883090D01*
X191488913Y-80892780D01*
X191486212Y-80902829D01*
X191484108Y-80913236D01*
X191482603Y-80924001D01*
X191481698Y-80935124D01*
X191481396Y-80946604D01*
X191238049Y-80946604D01*
X191238692Y-80922341D01*
X191240799Y-80896662D01*
X191244251Y-80872190D01*
X191249002Y-80848899D01*
X191255002Y-80826766D01*
X191262204Y-80805764D01*
X191270561Y-80785870D01*
X191280023Y-80767059D01*
X191290543Y-80749306D01*
X191302074Y-80732586D01*
X191314567Y-80716875D01*
X191327974Y-80702148D01*
X191342247Y-80688380D01*
X191357338Y-80675547D01*
X191373200Y-80663624D01*
X191389784Y-80652585D01*
X191407042Y-80642407D01*
X191424927Y-80633065D01*
X191443390Y-80624534D01*
X191462384Y-80616789D01*
X191481860Y-80609806D01*
X191501771Y-80603559D01*
X191522068Y-80598025D01*
X191542705Y-80593178D01*
X191584801Y-80585448D01*
X191627676Y-80580171D01*
X191670947Y-80577150D01*
X191714229Y-80576187D01*
X191753139Y-80577186D01*
G37*
G36*
X182489712Y-80601375D02*
G01*
X182545797Y-80605545D01*
X182572469Y-80608698D01*
X182598223Y-80612575D01*
X182623054Y-80617183D01*
X182646959Y-80622531D01*
X182669933Y-80628627D01*
X182691974Y-80635479D01*
X182713077Y-80643096D01*
X182733238Y-80651485D01*
X182752453Y-80660656D01*
X182770718Y-80670615D01*
X182788031Y-80681372D01*
X182804386Y-80692935D01*
X182819779Y-80705311D01*
X182834208Y-80718510D01*
X182847668Y-80732539D01*
X182860155Y-80747407D01*
X182871665Y-80763121D01*
X182882195Y-80779691D01*
X182891740Y-80797124D01*
X182900297Y-80815429D01*
X182907862Y-80834613D01*
X182914431Y-80854685D01*
X182919999Y-80875654D01*
X182924564Y-80897527D01*
X182928122Y-80920313D01*
X182930667Y-80944020D01*
X182932198Y-80968656D01*
X182932708Y-80994229D01*
X182932401Y-81012577D01*
X182931486Y-81030414D01*
X182929979Y-81047742D01*
X182927892Y-81064561D01*
X182925240Y-81080872D01*
X182922035Y-81096677D01*
X182918291Y-81111975D01*
X182914022Y-81126769D01*
X182909242Y-81141059D01*
X182903963Y-81154846D01*
X182898201Y-81168131D01*
X182891967Y-81180916D01*
X182885276Y-81193200D01*
X182878141Y-81204985D01*
X182870576Y-81216272D01*
X182862594Y-81227063D01*
X182854209Y-81237357D01*
X182845435Y-81247156D01*
X182836284Y-81256461D01*
X182826772Y-81265272D01*
X182816910Y-81273592D01*
X182806714Y-81281420D01*
X182796195Y-81288758D01*
X182785369Y-81295606D01*
X182774248Y-81301967D01*
X182762846Y-81307839D01*
X182751176Y-81313226D01*
X182739253Y-81318127D01*
X182727089Y-81322544D01*
X182714699Y-81326477D01*
X182702095Y-81329927D01*
X182689292Y-81332896D01*
X182712836Y-81341524D01*
X182735760Y-81351562D01*
X182757939Y-81363057D01*
X182779250Y-81376056D01*
X182799570Y-81390606D01*
X182818772Y-81406752D01*
X182836735Y-81424542D01*
X182853334Y-81444022D01*
X182868444Y-81465237D01*
X182875402Y-81476511D01*
X182881942Y-81488236D01*
X182888047Y-81500418D01*
X182893703Y-81513064D01*
X182898894Y-81526178D01*
X182903604Y-81539768D01*
X182907818Y-81553838D01*
X182911521Y-81568394D01*
X182914697Y-81583442D01*
X182917330Y-81598989D01*
X182919404Y-81615039D01*
X182920906Y-81631599D01*
X182921818Y-81648675D01*
X182922125Y-81666272D01*
X182921592Y-81693001D01*
X182920001Y-81718631D01*
X182917362Y-81743178D01*
X182913686Y-81766658D01*
X182908986Y-81789088D01*
X182903272Y-81810484D01*
X182896554Y-81830862D01*
X182888845Y-81850239D01*
X182880156Y-81868633D01*
X182870497Y-81886058D01*
X182859880Y-81902531D01*
X182848316Y-81918070D01*
X182835815Y-81932690D01*
X182822390Y-81946408D01*
X182808051Y-81959240D01*
X182792810Y-81971204D01*
X182776677Y-81982314D01*
X182759664Y-81992589D01*
X182741782Y-82002043D01*
X182723042Y-82010695D01*
X182703455Y-82018559D01*
X182683032Y-82025654D01*
X182639724Y-82037597D01*
X182593207Y-82046658D01*
X182543570Y-82052966D01*
X182490902Y-82056654D01*
X182435292Y-82057855D01*
X180625542Y-82057855D01*
X180625542Y-81854125D01*
X182424709Y-81854125D01*
X182453167Y-81853407D01*
X182479987Y-81851232D01*
X182492773Y-81849588D01*
X182505140Y-81847568D01*
X182517083Y-81845168D01*
X182528599Y-81842385D01*
X182539685Y-81839214D01*
X182550337Y-81835651D01*
X182560553Y-81831693D01*
X182570328Y-81827336D01*
X182579659Y-81822576D01*
X182588543Y-81817409D01*
X182596977Y-81811832D01*
X182604956Y-81805839D01*
X182612478Y-81799428D01*
X182619540Y-81792594D01*
X182626137Y-81785334D01*
X182632267Y-81777644D01*
X182637926Y-81769520D01*
X182643111Y-81760958D01*
X182647818Y-81751954D01*
X182652044Y-81742504D01*
X182655785Y-81732605D01*
X182659039Y-81722252D01*
X182661801Y-81711442D01*
X182664069Y-81700171D01*
X182665838Y-81688435D01*
X182667107Y-81676229D01*
X182667870Y-81663551D01*
X182668125Y-81650396D01*
X182667809Y-81635063D01*
X182666867Y-81620312D01*
X182665309Y-81606138D01*
X182663144Y-81592534D01*
X182660382Y-81579494D01*
X182657033Y-81567012D01*
X182653107Y-81555081D01*
X182648612Y-81543695D01*
X182643560Y-81532847D01*
X182637959Y-81522533D01*
X182631820Y-81512744D01*
X182625151Y-81503475D01*
X182617963Y-81494720D01*
X182610266Y-81486471D01*
X182602068Y-81478724D01*
X182593381Y-81471472D01*
X182584212Y-81464708D01*
X182574573Y-81458425D01*
X182564472Y-81452619D01*
X182553920Y-81447282D01*
X182542927Y-81442408D01*
X182531501Y-81437991D01*
X182519652Y-81434025D01*
X182507391Y-81430503D01*
X182481669Y-81424766D01*
X182454412Y-81420731D01*
X182425698Y-81418346D01*
X182395605Y-81417563D01*
X181636250Y-81417563D01*
X181636250Y-81224418D01*
X182443230Y-81224418D01*
X182471599Y-81223786D01*
X182498167Y-81221844D01*
X182522928Y-81218523D01*
X182534630Y-81216323D01*
X182545880Y-81213751D01*
X182556675Y-81210801D01*
X182567017Y-81207461D01*
X182576905Y-81203724D01*
X182586337Y-81199582D01*
X182595314Y-81195024D01*
X182603835Y-81190043D01*
X182611900Y-81184630D01*
X182619508Y-81178777D01*
X182626659Y-81172473D01*
X182633352Y-81165711D01*
X182639586Y-81158483D01*
X182645362Y-81150778D01*
X182650678Y-81142589D01*
X182655535Y-81133907D01*
X182659932Y-81124723D01*
X182663867Y-81115028D01*
X182667342Y-81104814D01*
X182670355Y-81094072D01*
X182672905Y-81082794D01*
X182674993Y-81070969D01*
X182676618Y-81058591D01*
X182677779Y-81045649D01*
X182678476Y-81032136D01*
X182678709Y-81018042D01*
X182678438Y-81003911D01*
X182677627Y-80990287D01*
X182676280Y-80977167D01*
X182674399Y-80964547D01*
X182671987Y-80952423D01*
X182669047Y-80940791D01*
X182665581Y-80929648D01*
X182661594Y-80918989D01*
X182657087Y-80908811D01*
X182652063Y-80899109D01*
X182646526Y-80889880D01*
X182640479Y-80881120D01*
X182633923Y-80872826D01*
X182626863Y-80864992D01*
X182619301Y-80857616D01*
X182611240Y-80850693D01*
X182602683Y-80844220D01*
X182593633Y-80838193D01*
X182584092Y-80832607D01*
X182574064Y-80827459D01*
X182563552Y-80822746D01*
X182552558Y-80818463D01*
X182541085Y-80814606D01*
X182529137Y-80811171D01*
X182503824Y-80805554D01*
X182476644Y-80801580D01*
X182447618Y-80799218D01*
X182416771Y-80798438D01*
X181382251Y-80798438D01*
X181382251Y-81417563D01*
X181128251Y-81417563D01*
X181128251Y-80600000D01*
X182430000Y-80600000D01*
X182489712Y-80601375D01*
G37*
G36*
X185101515Y-80577186D02*
G01*
X185140719Y-80580089D01*
X185180017Y-80584750D01*
X185219205Y-80591029D01*
X185258084Y-80598779D01*
X185296451Y-80607860D01*
X185334105Y-80618126D01*
X185370844Y-80629434D01*
X185406468Y-80641642D01*
X185440773Y-80654606D01*
X185473559Y-80668182D01*
X185504624Y-80682227D01*
X185533767Y-80696598D01*
X185560786Y-80711150D01*
X185585480Y-80725742D01*
X185607646Y-80740229D01*
X185607646Y-80597353D01*
X185835188Y-80597353D01*
X185835188Y-81361998D01*
X185834666Y-81387610D01*
X185833092Y-81412356D01*
X185830451Y-81436242D01*
X185826729Y-81459269D01*
X185821912Y-81481442D01*
X185815986Y-81502763D01*
X185808937Y-81523237D01*
X185800751Y-81542866D01*
X185791414Y-81561654D01*
X185780912Y-81579605D01*
X185769230Y-81596721D01*
X185756356Y-81613007D01*
X185742274Y-81628464D01*
X185726971Y-81643098D01*
X185710432Y-81656912D01*
X185692644Y-81669908D01*
X185673592Y-81682090D01*
X185653263Y-81693461D01*
X185631642Y-81704025D01*
X185608716Y-81713786D01*
X185584470Y-81722746D01*
X185558890Y-81730910D01*
X185531963Y-81738280D01*
X185503674Y-81744859D01*
X185474008Y-81750652D01*
X185442953Y-81755662D01*
X185410494Y-81759891D01*
X185376617Y-81763344D01*
X185341307Y-81766024D01*
X185304552Y-81767933D01*
X185226647Y-81769457D01*
X185226646Y-81769458D01*
X185147447Y-81767768D01*
X185069302Y-81762885D01*
X184993265Y-81755087D01*
X184920391Y-81744654D01*
X184851734Y-81731864D01*
X184788348Y-81716996D01*
X184758960Y-81708871D01*
X184731286Y-81700331D01*
X184705457Y-81691411D01*
X184681605Y-81682146D01*
X184681605Y-81475770D01*
X184708414Y-81485531D01*
X184736211Y-81494942D01*
X184764931Y-81503966D01*
X184794507Y-81512564D01*
X184824875Y-81520697D01*
X184855966Y-81528326D01*
X184887717Y-81535412D01*
X184920061Y-81541917D01*
X184952931Y-81547801D01*
X184986263Y-81553027D01*
X185019990Y-81557555D01*
X185054047Y-81561347D01*
X185088367Y-81564364D01*
X185122885Y-81566566D01*
X185157535Y-81567916D01*
X185192250Y-81568375D01*
X185246503Y-81567595D01*
X185296244Y-81565238D01*
X185341614Y-81561277D01*
X185382751Y-81555683D01*
X185419795Y-81548431D01*
X185452886Y-81539493D01*
X185482163Y-81528842D01*
X185507766Y-81516450D01*
X185519234Y-81509594D01*
X185529835Y-81502292D01*
X185539587Y-81494541D01*
X185548508Y-81486339D01*
X185556615Y-81477681D01*
X185563926Y-81468564D01*
X185570457Y-81458985D01*
X185576227Y-81448940D01*
X185581253Y-81438427D01*
X185585552Y-81427441D01*
X185592040Y-81404039D01*
X185595831Y-81378706D01*
X185597063Y-81351416D01*
X185597063Y-81248229D01*
X185551490Y-81259733D01*
X185502351Y-81270306D01*
X185450049Y-81279762D01*
X185394988Y-81287917D01*
X185337570Y-81294583D01*
X185278199Y-81299575D01*
X185217278Y-81302706D01*
X185155209Y-81303791D01*
X185096062Y-81303036D01*
X185038850Y-81300603D01*
X184983830Y-81296240D01*
X184931264Y-81289694D01*
X184881411Y-81280715D01*
X184834531Y-81269049D01*
X184790883Y-81254446D01*
X184750727Y-81236654D01*
X184732040Y-81226482D01*
X184714323Y-81215419D01*
X184697609Y-81203432D01*
X184681931Y-81190491D01*
X184667320Y-81176563D01*
X184653809Y-81161617D01*
X184641431Y-81145622D01*
X184630218Y-81128547D01*
X184620203Y-81110358D01*
X184611417Y-81091026D01*
X184603895Y-81070519D01*
X184597667Y-81048805D01*
X184592767Y-81025852D01*
X184589226Y-81001630D01*
X184587078Y-80976106D01*
X184586355Y-80949250D01*
X184586425Y-80946604D01*
X184829771Y-80946604D01*
X184830090Y-80960675D01*
X184831050Y-80974121D01*
X184832656Y-80986956D01*
X184834913Y-80999190D01*
X184837828Y-81010834D01*
X184841404Y-81021901D01*
X184845649Y-81032403D01*
X184850566Y-81042350D01*
X184856161Y-81051754D01*
X184862440Y-81060628D01*
X184869408Y-81068982D01*
X184877071Y-81076828D01*
X184885432Y-81084179D01*
X184894499Y-81091045D01*
X184904276Y-81097438D01*
X184914769Y-81103369D01*
X184925982Y-81108852D01*
X184937922Y-81113896D01*
X184950593Y-81118514D01*
X184964001Y-81122717D01*
X184978151Y-81126517D01*
X184993049Y-81129926D01*
X185008699Y-81132955D01*
X185025108Y-81135616D01*
X185042280Y-81137920D01*
X185060222Y-81139879D01*
X185098432Y-81142809D01*
X185139781Y-81144499D01*
X185184313Y-81145041D01*
X185242299Y-81144209D01*
X185298952Y-81141858D01*
X185353930Y-81138205D01*
X185406894Y-81133466D01*
X185457500Y-81127859D01*
X185505409Y-81121601D01*
X185550280Y-81114909D01*
X185591771Y-81108000D01*
X185591771Y-80904271D01*
X185570903Y-80888248D01*
X185548110Y-80872950D01*
X185523572Y-80858419D01*
X185497472Y-80844698D01*
X185469992Y-80831830D01*
X185441315Y-80819857D01*
X185411622Y-80808822D01*
X185381097Y-80798768D01*
X185349920Y-80789737D01*
X185318274Y-80781772D01*
X185286341Y-80774915D01*
X185254303Y-80769209D01*
X185222343Y-80764697D01*
X185190643Y-80761422D01*
X185159385Y-80759425D01*
X185128750Y-80758750D01*
X185093127Y-80759493D01*
X185059690Y-80761721D01*
X185028454Y-80765430D01*
X184999435Y-80770615D01*
X184972649Y-80777273D01*
X184948110Y-80785399D01*
X184925835Y-80794991D01*
X184905839Y-80806044D01*
X184896700Y-80812117D01*
X184888137Y-80818554D01*
X184880152Y-80825355D01*
X184872745Y-80832518D01*
X184865921Y-80840044D01*
X184859679Y-80847931D01*
X184854023Y-80856180D01*
X184848954Y-80864790D01*
X184844474Y-80873760D01*
X184840585Y-80883090D01*
X184837289Y-80892780D01*
X184834587Y-80902829D01*
X184832483Y-80913236D01*
X184830978Y-80924001D01*
X184830073Y-80935124D01*
X184829771Y-80946604D01*
X184586425Y-80946604D01*
X184587068Y-80922341D01*
X184589175Y-80896662D01*
X184592627Y-80872190D01*
X184597378Y-80848899D01*
X184603378Y-80826766D01*
X184610580Y-80805764D01*
X184618937Y-80785870D01*
X184628399Y-80767059D01*
X184638919Y-80749306D01*
X184650450Y-80732586D01*
X184662943Y-80716875D01*
X184676350Y-80702148D01*
X184690623Y-80688380D01*
X184705714Y-80675547D01*
X184721576Y-80663624D01*
X184738160Y-80652585D01*
X184755418Y-80642407D01*
X184773303Y-80633065D01*
X184791766Y-80624534D01*
X184810760Y-80616789D01*
X184830236Y-80609806D01*
X184850147Y-80603559D01*
X184870445Y-80598025D01*
X184891081Y-80593178D01*
X184933177Y-80585448D01*
X184976052Y-80580171D01*
X185019323Y-80577150D01*
X185062605Y-80576187D01*
X185101515Y-80577186D01*
G37*
G36*
X180886155Y-81409860D02*
G01*
X180895292Y-81410554D01*
X180904296Y-81411698D01*
X180913156Y-81413281D01*
X180921861Y-81415290D01*
X180930398Y-81417714D01*
X180938758Y-81420543D01*
X180946928Y-81423764D01*
X180954898Y-81427367D01*
X180962656Y-81431340D01*
X180970190Y-81435673D01*
X180977490Y-81440352D01*
X180984544Y-81445369D01*
X180991340Y-81450710D01*
X180997869Y-81456365D01*
X181004117Y-81462322D01*
X181010074Y-81468570D01*
X181015729Y-81475098D01*
X181021070Y-81481895D01*
X181026087Y-81488949D01*
X181030766Y-81496249D01*
X181035098Y-81503783D01*
X181039072Y-81511541D01*
X181042675Y-81519510D01*
X181045896Y-81527681D01*
X181048725Y-81536040D01*
X181051149Y-81544578D01*
X181053158Y-81553282D01*
X181054740Y-81562142D01*
X181055885Y-81571146D01*
X181056579Y-81580283D01*
X181056813Y-81589542D01*
X181056579Y-81598800D01*
X181055885Y-81607937D01*
X181054740Y-81616941D01*
X181053158Y-81625801D01*
X181051149Y-81634506D01*
X181048725Y-81643044D01*
X181045896Y-81651403D01*
X181042675Y-81659574D01*
X181039072Y-81667543D01*
X181035098Y-81675301D01*
X181030766Y-81682835D01*
X181026087Y-81690135D01*
X181021070Y-81697189D01*
X181015729Y-81703986D01*
X181010074Y-81710514D01*
X181004117Y-81716762D01*
X180997869Y-81722719D01*
X180991340Y-81728374D01*
X180984544Y-81733716D01*
X180977490Y-81738732D01*
X180970190Y-81743411D01*
X180962656Y-81747744D01*
X180954898Y-81751717D01*
X180946928Y-81755320D01*
X180938758Y-81758541D01*
X180930398Y-81761370D01*
X180921861Y-81763794D01*
X180913156Y-81765803D01*
X180904296Y-81767386D01*
X180895292Y-81768530D01*
X180886155Y-81769225D01*
X180876897Y-81769459D01*
X180867638Y-81769225D01*
X180858501Y-81768530D01*
X180849497Y-81767386D01*
X180840637Y-81765803D01*
X180831933Y-81763794D01*
X180823395Y-81761370D01*
X180815035Y-81758541D01*
X180806865Y-81755320D01*
X180798895Y-81751717D01*
X180791138Y-81747744D01*
X180783603Y-81743411D01*
X180776303Y-81738732D01*
X180769250Y-81733716D01*
X180762453Y-81728374D01*
X180755925Y-81722719D01*
X180749676Y-81716762D01*
X180743719Y-81710514D01*
X180738064Y-81703986D01*
X180732723Y-81697189D01*
X180727707Y-81690135D01*
X180723027Y-81682835D01*
X180718695Y-81675301D01*
X180714722Y-81667543D01*
X180711119Y-81659574D01*
X180707897Y-81651403D01*
X180705069Y-81643044D01*
X180702644Y-81634506D01*
X180700635Y-81625801D01*
X180699053Y-81616941D01*
X180697909Y-81607937D01*
X180697214Y-81598800D01*
X180696980Y-81589542D01*
X180697214Y-81580283D01*
X180697909Y-81571146D01*
X180699053Y-81562142D01*
X180700635Y-81553282D01*
X180702644Y-81544578D01*
X180705069Y-81536040D01*
X180707897Y-81527681D01*
X180711119Y-81519510D01*
X180714722Y-81511541D01*
X180718695Y-81503783D01*
X180723027Y-81496249D01*
X180727707Y-81488949D01*
X180732723Y-81481895D01*
X180738064Y-81475098D01*
X180743719Y-81468570D01*
X180749676Y-81462322D01*
X180755925Y-81456365D01*
X180762453Y-81450710D01*
X180769250Y-81445369D01*
X180776303Y-81440352D01*
X180783603Y-81435673D01*
X180791138Y-81431340D01*
X180798895Y-81427367D01*
X180806865Y-81423764D01*
X180815035Y-81420543D01*
X180823395Y-81417714D01*
X180831933Y-81415290D01*
X180840637Y-81413281D01*
X180849497Y-81411698D01*
X180858501Y-81410554D01*
X180867638Y-81409860D01*
X180876897Y-81409625D01*
X180886155Y-81409860D01*
G37*
G36*
X189196354Y-80578751D02*
G01*
X189234630Y-80581943D01*
X189271644Y-80586399D01*
X189307393Y-80592111D01*
X189341873Y-80599070D01*
X189375084Y-80607270D01*
X189407021Y-80616702D01*
X189437684Y-80627359D01*
X189467069Y-80639233D01*
X189495174Y-80652316D01*
X189521996Y-80666601D01*
X189547534Y-80682080D01*
X189571784Y-80698744D01*
X189594745Y-80716586D01*
X189616414Y-80735600D01*
X189636788Y-80755775D01*
X189655866Y-80777106D01*
X189673644Y-80799584D01*
X189690120Y-80823201D01*
X189705292Y-80847951D01*
X189719157Y-80873824D01*
X189731714Y-80900813D01*
X189742959Y-80928911D01*
X189752890Y-80958109D01*
X189761505Y-80988401D01*
X189768801Y-81019777D01*
X189774776Y-81052231D01*
X189779427Y-81085755D01*
X189782753Y-81120341D01*
X189784750Y-81155981D01*
X189785416Y-81192667D01*
X189784750Y-81227144D01*
X189782753Y-81260623D01*
X189779427Y-81293098D01*
X189774776Y-81324561D01*
X189768801Y-81355006D01*
X189761505Y-81384428D01*
X189752890Y-81412821D01*
X189742959Y-81440176D01*
X189731714Y-81466490D01*
X189719157Y-81491754D01*
X189705292Y-81515963D01*
X189690120Y-81539111D01*
X189673643Y-81561191D01*
X189655865Y-81582197D01*
X189636788Y-81602122D01*
X189616414Y-81620961D01*
X189594745Y-81638707D01*
X189571784Y-81655354D01*
X189547533Y-81670895D01*
X189521996Y-81685324D01*
X189495173Y-81698635D01*
X189467068Y-81710822D01*
X189437683Y-81721878D01*
X189407021Y-81731797D01*
X189375083Y-81740572D01*
X189341873Y-81748198D01*
X189307392Y-81754668D01*
X189271644Y-81759976D01*
X189234630Y-81764115D01*
X189196353Y-81767080D01*
X189156816Y-81768863D01*
X189116020Y-81769459D01*
X189116020Y-81769458D01*
X189036153Y-81767050D01*
X188961270Y-81759867D01*
X188925705Y-81754504D01*
X188891395Y-81747971D01*
X188858342Y-81740275D01*
X188826550Y-81731424D01*
X188796021Y-81721426D01*
X188766759Y-81710289D01*
X188738766Y-81698019D01*
X188712045Y-81684626D01*
X188686600Y-81670117D01*
X188662432Y-81654499D01*
X188639545Y-81637780D01*
X188617942Y-81619969D01*
X188597626Y-81601072D01*
X188578600Y-81581098D01*
X188560866Y-81560054D01*
X188544427Y-81537948D01*
X188529287Y-81514788D01*
X188515449Y-81490581D01*
X188502914Y-81465336D01*
X188491687Y-81439060D01*
X188481769Y-81411760D01*
X188473164Y-81383446D01*
X188465876Y-81354123D01*
X188459905Y-81323801D01*
X188455257Y-81292486D01*
X188451933Y-81260187D01*
X188449937Y-81226912D01*
X188449270Y-81192667D01*
X188687396Y-81192667D01*
X188687815Y-81217504D01*
X188689071Y-81241420D01*
X188691163Y-81264423D01*
X188694094Y-81286521D01*
X188697861Y-81307725D01*
X188702465Y-81328042D01*
X188707907Y-81347481D01*
X188714185Y-81366051D01*
X188721301Y-81383761D01*
X188729254Y-81400619D01*
X188738044Y-81416634D01*
X188747672Y-81431815D01*
X188758136Y-81446170D01*
X188769438Y-81459708D01*
X188781576Y-81472439D01*
X188794552Y-81484370D01*
X188808365Y-81495510D01*
X188823016Y-81505868D01*
X188838503Y-81515453D01*
X188854828Y-81524274D01*
X188871989Y-81532339D01*
X188889988Y-81539657D01*
X188908824Y-81546236D01*
X188928497Y-81552086D01*
X188949008Y-81557215D01*
X188970355Y-81561632D01*
X188992540Y-81565346D01*
X189015562Y-81568364D01*
X189064117Y-81572353D01*
X189116020Y-81573666D01*
X189167924Y-81572236D01*
X189216479Y-81567930D01*
X189261686Y-81560725D01*
X189283033Y-81556029D01*
X189303544Y-81550598D01*
X189323217Y-81544431D01*
X189342053Y-81537525D01*
X189360052Y-81529877D01*
X189377214Y-81521484D01*
X189393538Y-81512342D01*
X189409026Y-81502450D01*
X189423676Y-81491804D01*
X189437489Y-81480401D01*
X189450465Y-81468239D01*
X189462604Y-81455313D01*
X189473905Y-81441623D01*
X189484370Y-81427164D01*
X189493997Y-81411934D01*
X189502787Y-81395930D01*
X189510740Y-81379148D01*
X189517856Y-81361587D01*
X189524135Y-81343242D01*
X189529577Y-81324112D01*
X189534181Y-81304193D01*
X189537948Y-81283483D01*
X189540878Y-81261978D01*
X189542971Y-81239676D01*
X189544227Y-81216573D01*
X189544646Y-81192667D01*
X189544212Y-81168647D01*
X189542913Y-81145212D01*
X189540752Y-81122374D01*
X189537731Y-81100145D01*
X189533854Y-81078536D01*
X189529123Y-81057558D01*
X189523542Y-81037224D01*
X189517112Y-81017545D01*
X189509838Y-80998533D01*
X189501722Y-80980199D01*
X189492766Y-80962554D01*
X189482975Y-80945612D01*
X189472350Y-80929382D01*
X189460895Y-80913877D01*
X189448612Y-80899109D01*
X189435505Y-80885088D01*
X189421576Y-80871828D01*
X189406828Y-80859338D01*
X189391265Y-80847631D01*
X189374888Y-80836719D01*
X189357702Y-80826613D01*
X189339708Y-80817325D01*
X189320911Y-80808866D01*
X189301311Y-80801249D01*
X189280914Y-80794484D01*
X189259721Y-80788583D01*
X189237735Y-80783558D01*
X189214960Y-80779421D01*
X189191398Y-80776182D01*
X189167052Y-80773855D01*
X189141925Y-80772450D01*
X189116020Y-80771979D01*
X189090115Y-80772420D01*
X189064989Y-80773739D01*
X189040643Y-80775930D01*
X189017081Y-80778987D01*
X188994305Y-80782904D01*
X188972320Y-80787676D01*
X188951127Y-80793297D01*
X188930729Y-80799760D01*
X188911130Y-80807061D01*
X188892333Y-80815194D01*
X188874339Y-80824151D01*
X188857153Y-80833929D01*
X188840776Y-80844520D01*
X188825213Y-80855920D01*
X188810465Y-80868121D01*
X188796536Y-80881120D01*
X188783429Y-80894909D01*
X188771147Y-80909482D01*
X188759691Y-80924835D01*
X188749067Y-80940961D01*
X188739275Y-80957854D01*
X188730320Y-80975509D01*
X188722204Y-80993920D01*
X188714929Y-81013081D01*
X188708500Y-81032986D01*
X188702918Y-81053629D01*
X188698188Y-81075004D01*
X188694311Y-81097107D01*
X188691290Y-81119930D01*
X188689129Y-81143468D01*
X188687830Y-81167716D01*
X188687396Y-81192667D01*
X188449270Y-81192667D01*
X188449929Y-81156213D01*
X188451904Y-81120776D01*
X188455194Y-81086366D01*
X188459797Y-81052990D01*
X188465712Y-81020660D01*
X188472938Y-80989383D01*
X188481472Y-80959168D01*
X188491314Y-80930026D01*
X188502463Y-80901966D01*
X188514916Y-80874995D01*
X188528672Y-80849125D01*
X188543730Y-80824364D01*
X188560088Y-80800720D01*
X188577745Y-80778204D01*
X188596700Y-80756825D01*
X188616950Y-80736591D01*
X188638495Y-80717513D01*
X188661333Y-80699598D01*
X188685463Y-80682857D01*
X188710882Y-80667298D01*
X188737591Y-80652932D01*
X188765586Y-80639766D01*
X188794868Y-80627810D01*
X188825433Y-80617074D01*
X188857282Y-80607567D01*
X188890412Y-80599297D01*
X188924822Y-80592274D01*
X188960510Y-80586508D01*
X188997476Y-80582007D01*
X189035717Y-80578780D01*
X189075232Y-80576838D01*
X189116020Y-80576188D01*
X189196354Y-80578751D01*
G37*
G36*
X183835896Y-80578751D02*
G01*
X183874173Y-80581943D01*
X183911187Y-80586399D01*
X183946935Y-80592111D01*
X183981416Y-80599070D01*
X184014626Y-80607270D01*
X184046563Y-80616702D01*
X184077226Y-80627359D01*
X184106611Y-80639233D01*
X184134716Y-80652316D01*
X184161538Y-80666601D01*
X184187076Y-80682080D01*
X184211327Y-80698744D01*
X184234288Y-80716586D01*
X184255956Y-80735600D01*
X184276331Y-80755775D01*
X184295408Y-80777106D01*
X184313186Y-80799584D01*
X184329662Y-80823201D01*
X184344835Y-80847951D01*
X184358700Y-80873824D01*
X184371257Y-80900813D01*
X184382502Y-80928911D01*
X184392433Y-80958109D01*
X184401048Y-80988401D01*
X184408344Y-81019777D01*
X184414319Y-81052231D01*
X184418970Y-81085755D01*
X184422296Y-81120341D01*
X184424293Y-81155981D01*
X184424959Y-81192667D01*
X184424293Y-81227144D01*
X184422296Y-81260623D01*
X184418970Y-81293098D01*
X184414319Y-81324561D01*
X184408344Y-81355006D01*
X184401048Y-81384428D01*
X184392433Y-81412821D01*
X184382502Y-81440176D01*
X184371257Y-81466490D01*
X184358700Y-81491754D01*
X184344835Y-81515963D01*
X184329662Y-81539111D01*
X184313186Y-81561191D01*
X184295408Y-81582197D01*
X184276331Y-81602122D01*
X184255956Y-81620961D01*
X184234288Y-81638707D01*
X184211327Y-81655354D01*
X184187076Y-81670895D01*
X184161538Y-81685324D01*
X184134716Y-81698635D01*
X184106611Y-81710822D01*
X184077226Y-81721878D01*
X184046563Y-81731797D01*
X184014626Y-81740572D01*
X183981416Y-81748198D01*
X183946935Y-81754668D01*
X183911187Y-81759976D01*
X183874173Y-81764115D01*
X183835896Y-81767080D01*
X183796359Y-81768863D01*
X183755563Y-81769459D01*
X183755563Y-81769458D01*
X183675696Y-81767050D01*
X183600813Y-81759867D01*
X183565248Y-81754504D01*
X183530937Y-81747971D01*
X183497885Y-81740275D01*
X183466092Y-81731424D01*
X183435564Y-81721426D01*
X183406302Y-81710289D01*
X183378309Y-81698019D01*
X183351588Y-81684626D01*
X183326142Y-81670117D01*
X183301975Y-81654499D01*
X183279088Y-81637780D01*
X183257485Y-81619969D01*
X183237169Y-81601072D01*
X183218142Y-81581098D01*
X183200409Y-81560054D01*
X183183970Y-81537948D01*
X183168830Y-81514788D01*
X183154991Y-81490581D01*
X183142457Y-81465336D01*
X183131229Y-81439060D01*
X183121312Y-81411760D01*
X183112707Y-81383446D01*
X183105418Y-81354123D01*
X183099448Y-81323801D01*
X183094800Y-81292486D01*
X183091476Y-81260187D01*
X183089479Y-81226912D01*
X183088813Y-81192667D01*
X183326938Y-81192667D01*
X183327356Y-81217504D01*
X183328612Y-81241420D01*
X183330705Y-81264423D01*
X183333635Y-81286521D01*
X183337402Y-81307725D01*
X183342007Y-81328042D01*
X183347448Y-81347481D01*
X183353727Y-81366051D01*
X183360843Y-81383761D01*
X183368796Y-81400619D01*
X183377586Y-81416634D01*
X183387213Y-81431815D01*
X183397678Y-81446170D01*
X183408979Y-81459708D01*
X183421118Y-81472439D01*
X183434094Y-81484370D01*
X183447907Y-81495510D01*
X183462558Y-81505868D01*
X183478045Y-81515453D01*
X183494370Y-81524274D01*
X183511531Y-81532339D01*
X183529530Y-81539657D01*
X183548366Y-81546236D01*
X183568040Y-81552086D01*
X183588550Y-81557215D01*
X183609897Y-81561632D01*
X183632082Y-81565346D01*
X183655104Y-81568364D01*
X183703659Y-81572353D01*
X183755563Y-81573666D01*
X183807467Y-81572236D01*
X183856022Y-81567930D01*
X183901229Y-81560725D01*
X183922576Y-81556029D01*
X183943086Y-81550598D01*
X183962760Y-81544431D01*
X183981596Y-81537525D01*
X183999595Y-81529877D01*
X184016756Y-81521484D01*
X184033081Y-81512342D01*
X184048569Y-81502450D01*
X184063219Y-81491804D01*
X184077032Y-81480401D01*
X184090008Y-81468239D01*
X184102147Y-81455313D01*
X184113448Y-81441623D01*
X184123913Y-81427164D01*
X184133540Y-81411934D01*
X184142331Y-81395930D01*
X184150284Y-81379148D01*
X184157399Y-81361587D01*
X184163678Y-81343242D01*
X184169120Y-81324112D01*
X184173724Y-81304193D01*
X184177491Y-81283483D01*
X184180421Y-81261978D01*
X184182514Y-81239676D01*
X184183770Y-81216573D01*
X184184189Y-81192667D01*
X184183755Y-81168647D01*
X184182456Y-81145212D01*
X184180295Y-81122374D01*
X184177274Y-81100145D01*
X184173397Y-81078536D01*
X184168666Y-81057558D01*
X184163085Y-81037224D01*
X184156655Y-81017545D01*
X184149381Y-80998533D01*
X184141265Y-80980199D01*
X184132309Y-80962554D01*
X184122518Y-80945612D01*
X184111893Y-80929382D01*
X184100438Y-80913877D01*
X184088155Y-80899109D01*
X184075048Y-80885088D01*
X184061119Y-80871828D01*
X184046371Y-80859338D01*
X184030808Y-80847631D01*
X184014431Y-80836719D01*
X183997245Y-80826613D01*
X183979251Y-80817325D01*
X183960453Y-80808866D01*
X183940854Y-80801249D01*
X183920457Y-80794484D01*
X183899264Y-80788583D01*
X183877278Y-80783558D01*
X183854503Y-80779421D01*
X183830941Y-80776182D01*
X183806595Y-80773855D01*
X183781468Y-80772450D01*
X183755563Y-80771979D01*
X183729658Y-80772420D01*
X183704531Y-80773739D01*
X183680185Y-80775930D01*
X183656623Y-80778987D01*
X183633848Y-80782904D01*
X183611863Y-80787676D01*
X183590670Y-80793297D01*
X183570272Y-80799760D01*
X183550673Y-80807061D01*
X183531875Y-80815194D01*
X183513882Y-80824151D01*
X183496695Y-80833929D01*
X183480319Y-80844520D01*
X183464755Y-80855920D01*
X183450008Y-80868121D01*
X183436079Y-80881120D01*
X183422971Y-80894909D01*
X183410689Y-80909482D01*
X183399234Y-80924835D01*
X183388609Y-80940961D01*
X183378817Y-80957854D01*
X183369862Y-80975509D01*
X183361745Y-80993920D01*
X183354471Y-81013081D01*
X183348042Y-81032986D01*
X183342460Y-81053629D01*
X183337729Y-81075004D01*
X183333852Y-81097107D01*
X183330832Y-81119930D01*
X183328670Y-81143468D01*
X183327371Y-81167716D01*
X183326938Y-81192667D01*
X183088813Y-81192667D01*
X183089472Y-81156213D01*
X183091447Y-81120776D01*
X183094736Y-81086366D01*
X183099340Y-81052990D01*
X183105255Y-81020660D01*
X183112480Y-80989383D01*
X183121015Y-80959168D01*
X183130857Y-80930026D01*
X183142005Y-80901966D01*
X183154458Y-80874995D01*
X183168214Y-80849125D01*
X183183272Y-80824364D01*
X183199631Y-80800720D01*
X183217288Y-80778204D01*
X183236242Y-80756825D01*
X183256493Y-80736591D01*
X183278038Y-80717513D01*
X183300876Y-80699598D01*
X183325005Y-80682857D01*
X183350425Y-80667298D01*
X183377133Y-80652932D01*
X183405129Y-80639766D01*
X183434410Y-80627810D01*
X183464976Y-80617074D01*
X183496825Y-80607567D01*
X183529955Y-80599297D01*
X183564365Y-80592274D01*
X183600053Y-80586508D01*
X183637019Y-80582007D01*
X183675260Y-80578780D01*
X183714775Y-80576838D01*
X183755563Y-80576188D01*
X183835896Y-80578751D01*
G37*
D11*
G36*
X189452958Y-71294052D02*
G01*
X189465057Y-71305535D01*
X189481157Y-71336310D01*
X189481600Y-71358368D01*
X189467286Y-71388360D01*
X189455803Y-71400461D01*
X189425458Y-71416335D01*
X189316367Y-71417068D01*
X189316045Y-71280013D01*
X189422051Y-71279302D01*
X189452958Y-71294052D01*
G37*
G36*
X189481530Y-70979768D02*
G01*
X189493629Y-70991249D01*
X189509632Y-71021839D01*
X189510356Y-71072268D01*
X189495857Y-71102646D01*
X189487600Y-71111347D01*
X189432454Y-71130575D01*
X189315697Y-71131358D01*
X189315309Y-70965790D01*
X189450565Y-70964989D01*
X189481530Y-70979768D01*
G37*
G36*
X190820001Y-71641228D02*
G01*
X189091541Y-71641228D01*
X189091541Y-70891228D01*
X189166541Y-70891228D01*
X189167982Y-71505859D01*
X189167982Y-71505860D01*
X189179181Y-71532896D01*
X189199873Y-71553588D01*
X189226909Y-71564787D01*
X189241541Y-71566228D01*
X189430128Y-71564961D01*
X189432160Y-71565639D01*
X189442896Y-71564876D01*
X189456173Y-71564787D01*
X189458662Y-71563755D01*
X189461350Y-71563565D01*
X189475082Y-71558310D01*
X189532524Y-71528259D01*
X189540353Y-71525017D01*
X189543217Y-71522665D01*
X189544668Y-71521907D01*
X189545966Y-71520409D01*
X189551718Y-71515689D01*
X189580941Y-71484892D01*
X189586505Y-71480068D01*
X189588445Y-71476985D01*
X189589616Y-71475752D01*
X189590374Y-71473921D01*
X189594337Y-71467626D01*
X189617314Y-71419481D01*
X189618186Y-71418610D01*
X189621181Y-71411378D01*
X189628163Y-71396750D01*
X189628353Y-71394063D01*
X189629385Y-71391574D01*
X189630826Y-71376942D01*
X189629888Y-71330228D01*
X189630237Y-71329182D01*
X189629721Y-71321926D01*
X189629385Y-71305168D01*
X189628353Y-71302678D01*
X189628163Y-71299992D01*
X189622908Y-71286260D01*
X189592858Y-71228819D01*
X189589616Y-71220990D01*
X189589244Y-71220537D01*
X189609510Y-71199180D01*
X189615075Y-71194355D01*
X189617015Y-71191272D01*
X189618186Y-71190039D01*
X189618944Y-71188208D01*
X189622908Y-71181912D01*
X189645886Y-71133767D01*
X189646758Y-71132896D01*
X189649749Y-71125673D01*
X189656735Y-71111038D01*
X189656926Y-71108348D01*
X189657957Y-71105860D01*
X189659398Y-71091228D01*
X189658322Y-71016352D01*
X189658809Y-71014894D01*
X189658173Y-71005947D01*
X189657957Y-70990882D01*
X189656926Y-70988393D01*
X189656735Y-70985704D01*
X189651480Y-70971972D01*
X189621429Y-70914532D01*
X189618186Y-70906703D01*
X189615833Y-70903835D01*
X189615075Y-70902387D01*
X189613579Y-70901090D01*
X189608859Y-70895338D01*
X189604528Y-70891228D01*
X189766541Y-70891228D01*
X189767982Y-71505860D01*
X189779181Y-71532896D01*
X189799873Y-71553588D01*
X189826909Y-71564787D01*
X189856173Y-71564787D01*
X189883209Y-71553588D01*
X189903901Y-71532896D01*
X189915100Y-71505860D01*
X189916541Y-71491228D01*
X189915309Y-70965874D01*
X190141887Y-70964787D01*
X190168923Y-70953588D01*
X190189615Y-70932896D01*
X190200814Y-70905860D01*
X190200814Y-70891228D01*
X190252255Y-70891228D01*
X190253696Y-71505860D01*
X190264895Y-71532896D01*
X190285587Y-71553588D01*
X190312623Y-71564787D01*
X190341887Y-71564787D01*
X190368923Y-71553588D01*
X190389615Y-71532896D01*
X190400814Y-71505860D01*
X190402255Y-71491228D01*
X190401873Y-71328320D01*
X190628444Y-71553588D01*
X190655481Y-71564787D01*
X190684743Y-71564787D01*
X190711780Y-71553588D01*
X190732472Y-71532896D01*
X190743671Y-71505859D01*
X190743671Y-71476597D01*
X190732472Y-71449560D01*
X190723145Y-71438195D01*
X190511325Y-71227594D01*
X190737738Y-70923658D01*
X190745001Y-70895310D01*
X190740862Y-70866341D01*
X190725953Y-70841160D01*
X190702542Y-70823602D01*
X190674193Y-70816340D01*
X190645225Y-70820478D01*
X190620044Y-70835387D01*
X190610112Y-70846228D01*
X190404867Y-71121748D01*
X190401380Y-71118281D01*
X190400814Y-70876596D01*
X190389615Y-70849560D01*
X190368923Y-70828868D01*
X190341887Y-70817669D01*
X190312623Y-70817669D01*
X190285587Y-70828868D01*
X190264895Y-70849560D01*
X190253696Y-70876596D01*
X190252255Y-70891228D01*
X190200814Y-70891228D01*
X190200814Y-70876596D01*
X190189615Y-70849560D01*
X190168923Y-70828868D01*
X190141887Y-70817669D01*
X190127255Y-70816228D01*
X189826909Y-70817669D01*
X189799873Y-70828868D01*
X189779181Y-70849560D01*
X189767982Y-70876596D01*
X189766541Y-70891228D01*
X189604528Y-70891228D01*
X189578064Y-70866115D01*
X189573239Y-70860551D01*
X189570156Y-70858610D01*
X189568923Y-70857440D01*
X189567092Y-70856681D01*
X189560796Y-70852718D01*
X189512651Y-70829739D01*
X189511780Y-70828868D01*
X189504557Y-70825876D01*
X189489922Y-70818891D01*
X189487232Y-70818699D01*
X189484744Y-70817669D01*
X189470112Y-70816228D01*
X189226909Y-70817669D01*
X189199873Y-70828868D01*
X189179181Y-70849560D01*
X189167982Y-70876596D01*
X189166541Y-70891228D01*
X189091541Y-70891228D01*
X189091541Y-70741228D01*
X190820001Y-70741228D01*
X190820001Y-71641228D01*
G37*
G36*
X166100101Y-67655482D02*
G01*
X166112200Y-67666963D01*
X166128203Y-67697553D01*
X166128927Y-67747982D01*
X166114428Y-67778360D01*
X166102945Y-67790461D01*
X166072624Y-67806323D01*
X165934938Y-67807138D01*
X165934549Y-67641500D01*
X165997743Y-67641126D01*
X166001344Y-67641924D01*
X166006145Y-67641076D01*
X166069136Y-67640703D01*
X166100101Y-67655482D01*
G37*
G36*
X166952969Y-68031228D02*
G01*
X165081540Y-68031228D01*
X165081540Y-67538371D01*
X165156540Y-67538371D01*
X165157718Y-67620411D01*
X165156629Y-67627731D01*
X165157951Y-67636678D01*
X165157981Y-67638717D01*
X165158403Y-67639738D01*
X165158779Y-67642275D01*
X165187281Y-67751229D01*
X165187775Y-67758180D01*
X165191960Y-67769118D01*
X165192298Y-67770407D01*
X165192620Y-67770842D01*
X165193030Y-67771912D01*
X165223082Y-67829358D01*
X165226323Y-67837182D01*
X165228673Y-67840045D01*
X165229433Y-67841498D01*
X165230931Y-67842797D01*
X165235650Y-67848547D01*
X165285912Y-67897314D01*
X165286576Y-67898641D01*
X165293206Y-67904390D01*
X165304158Y-67915017D01*
X165306648Y-67916048D01*
X165308684Y-67917814D01*
X165322109Y-67923808D01*
X165408384Y-67951256D01*
X165416908Y-67954787D01*
X165420636Y-67955154D01*
X165422160Y-67955639D01*
X165424134Y-67955498D01*
X165431540Y-67956228D01*
X165506415Y-67955152D01*
X165507874Y-67955639D01*
X165516820Y-67955003D01*
X165531887Y-67954787D01*
X165534376Y-67953755D01*
X165537064Y-67953565D01*
X165550796Y-67948310D01*
X165620381Y-67911906D01*
X165639555Y-67889799D01*
X165648808Y-67862038D01*
X165646734Y-67832848D01*
X165633647Y-67806673D01*
X165611539Y-67787500D01*
X165583778Y-67778246D01*
X165554588Y-67780320D01*
X165540856Y-67785575D01*
X165500929Y-67806462D01*
X165446357Y-67807246D01*
X165387373Y-67788480D01*
X165351343Y-67753521D01*
X165331844Y-67716249D01*
X165306470Y-67619253D01*
X165305498Y-67551540D01*
X165328592Y-67454694D01*
X165348500Y-67412982D01*
X165384710Y-67375663D01*
X165440996Y-67356038D01*
X165474360Y-67355368D01*
X165528198Y-67372497D01*
X165528813Y-67464199D01*
X165474051Y-67464812D01*
X165447015Y-67476011D01*
X165426323Y-67496703D01*
X165415124Y-67523739D01*
X165415124Y-67553003D01*
X165426323Y-67580039D01*
X165447015Y-67600731D01*
X165474051Y-67611930D01*
X165488683Y-67613371D01*
X165617601Y-67611930D01*
X165644637Y-67600731D01*
X165665329Y-67580039D01*
X165676528Y-67553003D01*
X165677969Y-67538371D01*
X165676528Y-67323739D01*
X165671428Y-67311425D01*
X165665329Y-67296702D01*
X165656001Y-67285337D01*
X165651671Y-67281228D01*
X165785112Y-67281228D01*
X165786553Y-67895860D01*
X165797752Y-67922896D01*
X165818444Y-67943588D01*
X165845480Y-67954787D01*
X165860112Y-67956228D01*
X166077210Y-67954941D01*
X166079302Y-67955639D01*
X166090199Y-67954864D01*
X166103315Y-67954787D01*
X166105804Y-67953755D01*
X166108492Y-67953565D01*
X166122224Y-67948310D01*
X166179666Y-67918259D01*
X166187495Y-67915017D01*
X166190359Y-67912665D01*
X166191810Y-67911907D01*
X166193108Y-67910409D01*
X166198860Y-67905689D01*
X166228083Y-67874893D01*
X166233646Y-67870069D01*
X166235586Y-67866986D01*
X166236758Y-67865752D01*
X166237516Y-67863920D01*
X166241479Y-67857626D01*
X166264457Y-67809481D01*
X166265329Y-67808610D01*
X166268320Y-67801387D01*
X166275306Y-67786752D01*
X166275497Y-67784062D01*
X166276528Y-67781574D01*
X166277969Y-67766942D01*
X166276893Y-67692066D01*
X166277380Y-67690608D01*
X166276744Y-67681661D01*
X166276528Y-67666596D01*
X166275497Y-67664107D01*
X166275306Y-67661418D01*
X166270051Y-67647686D01*
X166240000Y-67590246D01*
X166236757Y-67582417D01*
X166234404Y-67579549D01*
X166233646Y-67578101D01*
X166232150Y-67576804D01*
X166227430Y-67571052D01*
X166196635Y-67541829D01*
X166191810Y-67536265D01*
X166188727Y-67534324D01*
X166187494Y-67533154D01*
X166185663Y-67532395D01*
X166179367Y-67528432D01*
X166135520Y-67507504D01*
X166271621Y-67311425D01*
X166277951Y-67282854D01*
X166277664Y-67281228D01*
X166385112Y-67281228D01*
X166386508Y-67876919D01*
X166385295Y-67886467D01*
X166386541Y-67891037D01*
X166386553Y-67895860D01*
X166390370Y-67905075D01*
X166392995Y-67914699D01*
X166395922Y-67918479D01*
X166397752Y-67922896D01*
X166404802Y-67929946D01*
X166410912Y-67937836D01*
X166415065Y-67940209D01*
X166418444Y-67943588D01*
X166427656Y-67947404D01*
X166436321Y-67952355D01*
X166441064Y-67952957D01*
X166445480Y-67954787D01*
X166455454Y-67954787D01*
X166465351Y-67956045D01*
X166469963Y-67954787D01*
X166474744Y-67954787D01*
X166483959Y-67950969D01*
X166493583Y-67948345D01*
X166497363Y-67945417D01*
X166501780Y-67943588D01*
X166508830Y-67936537D01*
X166516720Y-67930428D01*
X166521072Y-67924295D01*
X166522472Y-67922896D01*
X166523041Y-67921521D01*
X166525230Y-67918438D01*
X166728624Y-67560804D01*
X166729410Y-67895860D01*
X166740609Y-67922896D01*
X166761301Y-67943588D01*
X166788337Y-67954787D01*
X166817601Y-67954787D01*
X166844637Y-67943588D01*
X166865329Y-67922896D01*
X166876528Y-67895860D01*
X166877969Y-67881228D01*
X166876572Y-67285536D01*
X166877786Y-67275989D01*
X166876539Y-67271418D01*
X166876528Y-67266596D01*
X166872710Y-67257380D01*
X166870086Y-67247757D01*
X166867158Y-67243976D01*
X166865329Y-67239560D01*
X166858278Y-67232509D01*
X166852169Y-67224620D01*
X166848015Y-67222246D01*
X166844637Y-67218868D01*
X166835426Y-67215052D01*
X166826761Y-67210101D01*
X166822016Y-67209497D01*
X166817601Y-67207669D01*
X166807627Y-67207669D01*
X166797730Y-67206411D01*
X166793117Y-67207669D01*
X166788337Y-67207669D01*
X166779124Y-67211484D01*
X166769499Y-67214110D01*
X166765717Y-67217038D01*
X166761301Y-67218868D01*
X166754248Y-67225920D01*
X166746362Y-67232028D01*
X166742008Y-67238160D01*
X166740609Y-67239560D01*
X166740040Y-67240933D01*
X166737851Y-67244017D01*
X166534456Y-67601650D01*
X166533671Y-67266596D01*
X166522472Y-67239560D01*
X166501780Y-67218868D01*
X166474744Y-67207669D01*
X166445480Y-67207669D01*
X166418444Y-67218868D01*
X166397752Y-67239560D01*
X166386553Y-67266596D01*
X166385112Y-67281228D01*
X166277664Y-67281228D01*
X166272866Y-67254036D01*
X166257139Y-67229357D01*
X166233165Y-67212576D01*
X166204594Y-67206246D01*
X166175776Y-67211332D01*
X166151098Y-67227058D01*
X166141526Y-67238219D01*
X165964905Y-67492675D01*
X165934201Y-67492857D01*
X165933671Y-67266596D01*
X165922472Y-67239560D01*
X165901780Y-67218868D01*
X165874744Y-67207669D01*
X165845480Y-67207669D01*
X165818444Y-67218868D01*
X165797752Y-67239560D01*
X165786553Y-67266596D01*
X165785112Y-67281228D01*
X165651671Y-67281228D01*
X165633939Y-67264401D01*
X165633647Y-67263817D01*
X165629881Y-67260551D01*
X165616064Y-67247439D01*
X165613575Y-67246408D01*
X165611540Y-67244643D01*
X165598115Y-67238649D01*
X165511836Y-67211198D01*
X165503315Y-67207669D01*
X165499588Y-67207301D01*
X165498064Y-67206817D01*
X165496088Y-67206957D01*
X165488683Y-67206228D01*
X165430351Y-67207399D01*
X165422159Y-67206817D01*
X165418557Y-67207635D01*
X165416908Y-67207669D01*
X165415077Y-67208427D01*
X165407823Y-67210077D01*
X165332781Y-67236241D01*
X165331195Y-67236241D01*
X165322756Y-67239736D01*
X165308683Y-67244643D01*
X165306647Y-67246408D01*
X165304159Y-67247439D01*
X165292794Y-67256766D01*
X165236230Y-67315063D01*
X165229433Y-67320958D01*
X165227442Y-67324119D01*
X165226323Y-67325274D01*
X165225565Y-67327101D01*
X165221601Y-67333401D01*
X165195985Y-67387072D01*
X165192298Y-67392049D01*
X165188389Y-67402988D01*
X165187775Y-67404276D01*
X165187736Y-67404815D01*
X165187351Y-67405895D01*
X165160969Y-67516525D01*
X165157981Y-67523739D01*
X165157089Y-67532795D01*
X165156629Y-67534725D01*
X165156791Y-67535817D01*
X165156540Y-67538371D01*
X165081540Y-67538371D01*
X165081540Y-67131228D01*
X166952969Y-67131228D01*
X166952969Y-68031228D01*
G37*
G36*
X190038673Y-74765482D02*
G01*
X190050772Y-74776963D01*
X190066775Y-74807553D01*
X190067499Y-74857982D01*
X190053000Y-74888360D01*
X190041517Y-74900461D01*
X190011196Y-74916323D01*
X189873510Y-74917138D01*
X189873121Y-74751500D01*
X189936315Y-74751126D01*
X189939916Y-74751924D01*
X189944717Y-74751076D01*
X190007708Y-74750703D01*
X190038673Y-74765482D01*
G37*
G36*
X190891541Y-75141228D02*
G01*
X189020112Y-75141228D01*
X189020112Y-74648371D01*
X189095112Y-74648371D01*
X189096290Y-74730411D01*
X189095201Y-74737731D01*
X189096523Y-74746678D01*
X189096553Y-74748717D01*
X189096975Y-74749738D01*
X189097351Y-74752275D01*
X189125853Y-74861229D01*
X189126347Y-74868180D01*
X189130532Y-74879118D01*
X189130870Y-74880407D01*
X189131192Y-74880842D01*
X189131602Y-74881912D01*
X189161654Y-74939358D01*
X189164895Y-74947182D01*
X189167245Y-74950045D01*
X189168005Y-74951498D01*
X189169503Y-74952797D01*
X189174222Y-74958547D01*
X189224484Y-75007314D01*
X189225148Y-75008641D01*
X189231778Y-75014390D01*
X189242730Y-75025017D01*
X189245220Y-75026048D01*
X189247256Y-75027814D01*
X189260681Y-75033808D01*
X189346956Y-75061256D01*
X189355480Y-75064787D01*
X189359208Y-75065154D01*
X189360732Y-75065639D01*
X189362706Y-75065498D01*
X189370112Y-75066228D01*
X189444987Y-75065152D01*
X189446446Y-75065639D01*
X189455392Y-75065003D01*
X189470459Y-75064787D01*
X189472948Y-75063755D01*
X189475636Y-75063565D01*
X189489368Y-75058310D01*
X189558953Y-75021906D01*
X189578127Y-74999799D01*
X189587380Y-74972038D01*
X189585306Y-74942848D01*
X189572219Y-74916673D01*
X189550111Y-74897500D01*
X189522350Y-74888246D01*
X189493160Y-74890320D01*
X189479428Y-74895575D01*
X189439501Y-74916462D01*
X189384929Y-74917246D01*
X189325945Y-74898480D01*
X189289915Y-74863521D01*
X189270416Y-74826249D01*
X189245042Y-74729253D01*
X189244070Y-74661540D01*
X189267164Y-74564694D01*
X189287072Y-74522982D01*
X189323282Y-74485663D01*
X189379568Y-74466038D01*
X189412932Y-74465368D01*
X189466770Y-74482497D01*
X189467385Y-74574199D01*
X189412623Y-74574812D01*
X189385587Y-74586011D01*
X189364895Y-74606703D01*
X189353696Y-74633739D01*
X189353696Y-74663003D01*
X189364895Y-74690039D01*
X189385587Y-74710731D01*
X189412623Y-74721930D01*
X189427255Y-74723371D01*
X189556173Y-74721930D01*
X189583209Y-74710731D01*
X189603901Y-74690039D01*
X189615100Y-74663003D01*
X189616541Y-74648371D01*
X189615100Y-74433739D01*
X189610000Y-74421425D01*
X189603901Y-74406702D01*
X189594573Y-74395337D01*
X189590243Y-74391228D01*
X189723684Y-74391228D01*
X189725125Y-75005860D01*
X189736324Y-75032896D01*
X189757016Y-75053588D01*
X189784052Y-75064787D01*
X189798684Y-75066228D01*
X190015782Y-75064941D01*
X190017874Y-75065639D01*
X190028771Y-75064864D01*
X190041887Y-75064787D01*
X190044376Y-75063755D01*
X190047064Y-75063565D01*
X190060796Y-75058310D01*
X190118238Y-75028259D01*
X190126067Y-75025017D01*
X190128931Y-75022665D01*
X190130382Y-75021907D01*
X190131680Y-75020409D01*
X190137432Y-75015689D01*
X190166655Y-74984893D01*
X190172218Y-74980069D01*
X190174158Y-74976986D01*
X190175330Y-74975752D01*
X190176088Y-74973920D01*
X190180051Y-74967626D01*
X190203029Y-74919481D01*
X190203901Y-74918610D01*
X190206892Y-74911387D01*
X190213878Y-74896752D01*
X190214069Y-74894062D01*
X190215100Y-74891574D01*
X190216541Y-74876942D01*
X190215465Y-74802066D01*
X190215952Y-74800608D01*
X190215316Y-74791661D01*
X190215100Y-74776596D01*
X190214069Y-74774107D01*
X190213878Y-74771418D01*
X190208623Y-74757686D01*
X190178572Y-74700246D01*
X190175329Y-74692417D01*
X190172976Y-74689549D01*
X190172218Y-74688101D01*
X190170722Y-74686804D01*
X190166002Y-74681052D01*
X190135207Y-74651829D01*
X190130382Y-74646265D01*
X190127299Y-74644324D01*
X190126066Y-74643154D01*
X190124235Y-74642395D01*
X190117939Y-74638432D01*
X190074092Y-74617504D01*
X190210193Y-74421425D01*
X190216523Y-74392854D01*
X190216236Y-74391228D01*
X190323684Y-74391228D01*
X190325080Y-74986919D01*
X190323867Y-74996467D01*
X190325113Y-75001037D01*
X190325125Y-75005860D01*
X190328942Y-75015075D01*
X190331567Y-75024699D01*
X190334494Y-75028479D01*
X190336324Y-75032896D01*
X190343374Y-75039946D01*
X190349484Y-75047836D01*
X190353637Y-75050209D01*
X190357016Y-75053588D01*
X190366228Y-75057404D01*
X190374893Y-75062355D01*
X190379636Y-75062957D01*
X190384052Y-75064787D01*
X190394026Y-75064787D01*
X190403923Y-75066045D01*
X190408535Y-75064787D01*
X190413316Y-75064787D01*
X190422531Y-75060969D01*
X190432155Y-75058345D01*
X190435935Y-75055417D01*
X190440352Y-75053588D01*
X190447402Y-75046537D01*
X190455292Y-75040428D01*
X190459644Y-75034295D01*
X190461044Y-75032896D01*
X190461613Y-75031521D01*
X190463802Y-75028438D01*
X190667196Y-74670804D01*
X190667982Y-75005860D01*
X190679181Y-75032896D01*
X190699873Y-75053588D01*
X190726909Y-75064787D01*
X190756173Y-75064787D01*
X190783209Y-75053588D01*
X190803901Y-75032896D01*
X190815100Y-75005860D01*
X190816541Y-74991228D01*
X190815144Y-74395536D01*
X190816358Y-74385989D01*
X190815111Y-74381418D01*
X190815100Y-74376596D01*
X190811282Y-74367380D01*
X190808658Y-74357757D01*
X190805730Y-74353976D01*
X190803901Y-74349560D01*
X190796850Y-74342509D01*
X190790741Y-74334620D01*
X190786587Y-74332246D01*
X190783209Y-74328868D01*
X190773998Y-74325052D01*
X190765333Y-74320101D01*
X190760588Y-74319497D01*
X190756173Y-74317669D01*
X190746199Y-74317669D01*
X190736302Y-74316411D01*
X190731689Y-74317669D01*
X190726909Y-74317669D01*
X190717696Y-74321484D01*
X190708071Y-74324110D01*
X190704289Y-74327038D01*
X190699873Y-74328868D01*
X190692820Y-74335920D01*
X190684934Y-74342028D01*
X190680580Y-74348160D01*
X190679181Y-74349560D01*
X190678612Y-74350933D01*
X190676423Y-74354017D01*
X190473028Y-74711650D01*
X190472243Y-74376596D01*
X190461044Y-74349560D01*
X190440352Y-74328868D01*
X190413316Y-74317669D01*
X190384052Y-74317669D01*
X190357016Y-74328868D01*
X190336324Y-74349560D01*
X190325125Y-74376596D01*
X190323684Y-74391228D01*
X190216236Y-74391228D01*
X190211438Y-74364036D01*
X190195711Y-74339357D01*
X190171737Y-74322576D01*
X190143166Y-74316246D01*
X190114348Y-74321332D01*
X190089670Y-74337058D01*
X190080098Y-74348219D01*
X189903477Y-74602675D01*
X189872773Y-74602857D01*
X189872243Y-74376596D01*
X189861044Y-74349560D01*
X189840352Y-74328868D01*
X189813316Y-74317669D01*
X189784052Y-74317669D01*
X189757016Y-74328868D01*
X189736324Y-74349560D01*
X189725125Y-74376596D01*
X189723684Y-74391228D01*
X189590243Y-74391228D01*
X189572511Y-74374401D01*
X189572219Y-74373817D01*
X189568453Y-74370551D01*
X189554636Y-74357439D01*
X189552147Y-74356408D01*
X189550112Y-74354643D01*
X189536687Y-74348649D01*
X189450408Y-74321198D01*
X189441887Y-74317669D01*
X189438160Y-74317301D01*
X189436636Y-74316817D01*
X189434660Y-74316957D01*
X189427255Y-74316228D01*
X189368923Y-74317399D01*
X189360731Y-74316817D01*
X189357129Y-74317635D01*
X189355480Y-74317669D01*
X189353649Y-74318427D01*
X189346395Y-74320077D01*
X189271353Y-74346241D01*
X189269767Y-74346241D01*
X189261328Y-74349736D01*
X189247255Y-74354643D01*
X189245219Y-74356408D01*
X189242731Y-74357439D01*
X189231366Y-74366766D01*
X189174802Y-74425063D01*
X189168005Y-74430958D01*
X189166014Y-74434119D01*
X189164895Y-74435274D01*
X189164137Y-74437101D01*
X189160173Y-74443401D01*
X189134557Y-74497072D01*
X189130870Y-74502049D01*
X189126961Y-74512988D01*
X189126347Y-74514276D01*
X189126308Y-74514815D01*
X189125923Y-74515895D01*
X189099541Y-74626525D01*
X189096553Y-74633739D01*
X189095661Y-74642795D01*
X189095201Y-74644725D01*
X189095363Y-74645817D01*
X189095112Y-74648371D01*
X189020112Y-74648371D01*
X189020112Y-74241228D01*
X190891541Y-74241228D01*
X190891541Y-75141228D01*
G37*
G36*
X171242850Y-70103977D02*
G01*
X171278879Y-70138933D01*
X171298380Y-70176209D01*
X171323753Y-70273202D01*
X171324725Y-70340915D01*
X171301631Y-70437761D01*
X171281723Y-70479473D01*
X171245512Y-70516794D01*
X171189533Y-70536311D01*
X171130652Y-70536850D01*
X171129594Y-70085553D01*
X171183395Y-70085060D01*
X171242850Y-70103977D01*
G37*
G36*
X171842850Y-70103977D02*
G01*
X171878879Y-70138933D01*
X171898380Y-70176209D01*
X171923753Y-70273202D01*
X171924725Y-70340915D01*
X171901631Y-70437761D01*
X171881723Y-70479473D01*
X171845512Y-70516794D01*
X171789533Y-70536311D01*
X171730652Y-70536850D01*
X171729594Y-70085553D01*
X171783395Y-70085060D01*
X171842850Y-70103977D01*
G37*
G36*
X172148684Y-70761228D02*
G01*
X170306415Y-70761228D01*
X170306415Y-70601848D01*
X170381415Y-70601848D01*
X170383490Y-70631038D01*
X170396576Y-70657211D01*
X170418683Y-70676385D01*
X170446446Y-70685639D01*
X170475636Y-70683564D01*
X170501809Y-70670478D01*
X170520983Y-70648371D01*
X170526977Y-70634945D01*
X170655606Y-70246171D01*
X170790669Y-70648371D01*
X170809843Y-70670478D01*
X170836016Y-70683565D01*
X170865206Y-70685640D01*
X170892969Y-70676386D01*
X170915076Y-70657212D01*
X170928163Y-70631038D01*
X170930237Y-70601848D01*
X170926977Y-70587511D01*
X170733455Y-70011228D01*
X170980827Y-70011228D01*
X170982268Y-70625860D01*
X170993467Y-70652896D01*
X171014159Y-70673588D01*
X171041195Y-70684787D01*
X171055827Y-70686228D01*
X171198044Y-70684926D01*
X171208064Y-70685639D01*
X171211747Y-70684801D01*
X171213316Y-70684787D01*
X171215147Y-70684028D01*
X171222401Y-70682379D01*
X171297441Y-70656216D01*
X171299029Y-70656216D01*
X171307471Y-70652718D01*
X171321540Y-70647814D01*
X171323575Y-70646048D01*
X171326066Y-70645017D01*
X171337431Y-70635690D01*
X171393998Y-70577387D01*
X171400791Y-70571497D01*
X171402779Y-70568337D01*
X171403901Y-70567182D01*
X171404658Y-70565352D01*
X171408623Y-70559055D01*
X171434236Y-70505385D01*
X171437926Y-70500407D01*
X171441836Y-70489463D01*
X171442449Y-70488179D01*
X171442487Y-70487640D01*
X171442873Y-70486561D01*
X171469254Y-70375930D01*
X171472243Y-70368717D01*
X171473134Y-70359660D01*
X171473595Y-70357731D01*
X171473432Y-70356638D01*
X171473684Y-70354085D01*
X171472505Y-70272044D01*
X171473595Y-70264725D01*
X171472272Y-70255776D01*
X171472243Y-70253739D01*
X171471820Y-70252718D01*
X171471445Y-70250180D01*
X171442942Y-70141226D01*
X171442449Y-70134277D01*
X171438263Y-70123341D01*
X171437926Y-70122049D01*
X171437602Y-70121612D01*
X171437194Y-70120545D01*
X171407143Y-70063102D01*
X171403901Y-70055274D01*
X171401549Y-70052408D01*
X171400791Y-70050959D01*
X171399294Y-70049661D01*
X171394574Y-70043909D01*
X171360891Y-70011228D01*
X171580827Y-70011228D01*
X171582268Y-70625860D01*
X171593467Y-70652896D01*
X171614159Y-70673588D01*
X171641195Y-70684787D01*
X171655827Y-70686228D01*
X171798044Y-70684926D01*
X171808064Y-70685639D01*
X171811747Y-70684801D01*
X171813316Y-70684787D01*
X171815147Y-70684028D01*
X171822401Y-70682379D01*
X171897441Y-70656216D01*
X171899029Y-70656216D01*
X171907471Y-70652718D01*
X171921540Y-70647814D01*
X171923575Y-70646048D01*
X171926066Y-70645017D01*
X171937431Y-70635690D01*
X171993998Y-70577387D01*
X172000791Y-70571497D01*
X172002779Y-70568337D01*
X172003901Y-70567182D01*
X172004658Y-70565352D01*
X172008623Y-70559055D01*
X172034236Y-70505385D01*
X172037926Y-70500407D01*
X172041836Y-70489463D01*
X172042449Y-70488179D01*
X172042487Y-70487640D01*
X172042873Y-70486561D01*
X172069254Y-70375930D01*
X172072243Y-70368717D01*
X172073134Y-70359660D01*
X172073595Y-70357731D01*
X172073432Y-70356638D01*
X172073684Y-70354085D01*
X172072505Y-70272044D01*
X172073595Y-70264725D01*
X172072272Y-70255776D01*
X172072243Y-70253739D01*
X172071820Y-70252718D01*
X172071445Y-70250180D01*
X172042942Y-70141226D01*
X172042449Y-70134277D01*
X172038263Y-70123341D01*
X172037926Y-70122049D01*
X172037602Y-70121612D01*
X172037194Y-70120545D01*
X172007143Y-70063102D01*
X172003901Y-70055274D01*
X172001549Y-70052408D01*
X172000791Y-70050959D01*
X171999294Y-70049661D01*
X171994574Y-70043909D01*
X171944309Y-69995140D01*
X171943648Y-69993817D01*
X171937023Y-69988071D01*
X171926065Y-69977439D01*
X171923576Y-69976408D01*
X171921541Y-69974643D01*
X171908116Y-69968649D01*
X171821837Y-69941198D01*
X171813316Y-69937669D01*
X171809589Y-69937301D01*
X171808065Y-69936817D01*
X171806089Y-69936957D01*
X171798684Y-69936228D01*
X171641195Y-69937669D01*
X171614159Y-69948868D01*
X171593467Y-69969560D01*
X171582268Y-69996596D01*
X171580827Y-70011228D01*
X171360891Y-70011228D01*
X171344309Y-69995140D01*
X171343648Y-69993817D01*
X171337023Y-69988071D01*
X171326065Y-69977439D01*
X171323576Y-69976408D01*
X171321541Y-69974643D01*
X171308116Y-69968649D01*
X171221837Y-69941198D01*
X171213316Y-69937669D01*
X171209589Y-69937301D01*
X171208065Y-69936817D01*
X171206089Y-69936957D01*
X171198684Y-69936228D01*
X171041195Y-69937669D01*
X171014159Y-69948868D01*
X170993467Y-69969560D01*
X170982268Y-69996596D01*
X170980827Y-70011228D01*
X170733455Y-70011228D01*
X170728527Y-69996552D01*
X170728163Y-69991418D01*
X170724023Y-69983138D01*
X170720983Y-69974085D01*
X170717473Y-69970038D01*
X170715076Y-69965244D01*
X170707967Y-69959078D01*
X170701809Y-69951978D01*
X170697020Y-69949583D01*
X170692969Y-69946070D01*
X170684039Y-69943093D01*
X170675636Y-69938892D01*
X170670295Y-69938512D01*
X170665206Y-69936816D01*
X170655818Y-69937483D01*
X170646446Y-69936817D01*
X170641364Y-69938510D01*
X170636016Y-69938891D01*
X170627602Y-69943097D01*
X170618683Y-69946071D01*
X170614635Y-69949581D01*
X170609843Y-69951978D01*
X170603680Y-69959082D01*
X170596576Y-69965245D01*
X170594180Y-69970036D01*
X170590669Y-69974085D01*
X170584675Y-69987510D01*
X170381415Y-70601848D01*
X170306415Y-70601848D01*
X170306415Y-69861228D01*
X172148684Y-69861228D01*
X172148684Y-70761228D01*
G37*
G36*
X177097136Y-69203976D02*
G01*
X177133165Y-69238932D01*
X177152666Y-69276208D01*
X177178039Y-69373201D01*
X177179011Y-69440914D01*
X177155917Y-69537760D01*
X177136009Y-69579472D01*
X177099798Y-69616793D01*
X177043819Y-69636310D01*
X176984938Y-69636849D01*
X176983880Y-69185552D01*
X177037681Y-69185059D01*
X177097136Y-69203976D01*
G37*
G36*
X177624617Y-69476283D02*
G01*
X177584614Y-69357161D01*
X177664155Y-69356779D01*
X177624617Y-69476283D01*
G37*
G36*
X177973809Y-69861227D02*
G01*
X176160112Y-69861227D01*
X176160112Y-69539799D01*
X176235112Y-69539799D01*
X176236049Y-69586514D01*
X176235701Y-69587561D01*
X176236216Y-69594817D01*
X176236553Y-69611573D01*
X176237583Y-69614061D01*
X176237775Y-69616751D01*
X176243030Y-69630482D01*
X176273079Y-69687920D01*
X176276323Y-69695751D01*
X176278677Y-69698619D01*
X176279435Y-69700068D01*
X176280929Y-69701364D01*
X176285650Y-69707116D01*
X176316448Y-69736344D01*
X176321272Y-69741906D01*
X176324351Y-69743844D01*
X176325586Y-69745016D01*
X176327418Y-69745774D01*
X176333714Y-69749738D01*
X176381858Y-69772715D01*
X176382730Y-69773587D01*
X176389961Y-69776582D01*
X176404590Y-69783564D01*
X176407276Y-69783754D01*
X176409766Y-69784786D01*
X176424398Y-69786227D01*
X176566615Y-69784925D01*
X176576635Y-69785638D01*
X176580318Y-69784800D01*
X176581887Y-69784786D01*
X176583718Y-69784027D01*
X176590972Y-69782378D01*
X176690111Y-69747813D01*
X176712218Y-69728640D01*
X176725305Y-69702466D01*
X176727380Y-69673276D01*
X176718126Y-69645514D01*
X176698952Y-69623407D01*
X176672779Y-69610320D01*
X176643589Y-69608245D01*
X176629252Y-69611505D01*
X176558104Y-69636310D01*
X176443716Y-69637357D01*
X176412980Y-69622687D01*
X176400881Y-69611206D01*
X176384780Y-69580430D01*
X176384337Y-69558372D01*
X176398652Y-69528380D01*
X176410134Y-69516280D01*
X176446522Y-69497244D01*
X176551542Y-69469771D01*
X176558493Y-69469278D01*
X176569431Y-69465092D01*
X176570720Y-69464755D01*
X176571155Y-69464432D01*
X176572225Y-69464023D01*
X176629671Y-69433970D01*
X176637495Y-69430730D01*
X176640358Y-69428379D01*
X176641811Y-69427620D01*
X176643110Y-69426121D01*
X176648860Y-69421403D01*
X176678083Y-69390608D01*
X176683648Y-69385782D01*
X176685588Y-69382699D01*
X176686758Y-69381467D01*
X176687515Y-69379637D01*
X176691480Y-69373340D01*
X176714457Y-69325195D01*
X176715329Y-69324324D01*
X176718324Y-69317092D01*
X176725306Y-69302464D01*
X176725496Y-69299777D01*
X176726528Y-69297288D01*
X176727969Y-69282656D01*
X176727031Y-69235941D01*
X176727380Y-69234895D01*
X176726864Y-69227638D01*
X176726528Y-69210881D01*
X176725496Y-69208391D01*
X176725306Y-69205705D01*
X176720051Y-69191973D01*
X176690000Y-69134530D01*
X176686758Y-69126702D01*
X176684406Y-69123836D01*
X176683648Y-69122387D01*
X176682151Y-69121089D01*
X176677431Y-69115337D01*
X176673100Y-69111227D01*
X176835113Y-69111227D01*
X176836554Y-69725859D01*
X176847753Y-69752895D01*
X176868445Y-69773587D01*
X176895481Y-69784786D01*
X176910113Y-69786227D01*
X177052330Y-69784925D01*
X177062350Y-69785638D01*
X177066033Y-69784800D01*
X177067602Y-69784786D01*
X177069433Y-69784027D01*
X177076687Y-69782378D01*
X177151727Y-69756215D01*
X177153315Y-69756215D01*
X177161757Y-69752717D01*
X177175826Y-69747813D01*
X177177861Y-69746047D01*
X177180352Y-69745016D01*
X177191717Y-69735689D01*
X177248284Y-69677386D01*
X177255077Y-69671496D01*
X177257065Y-69668336D01*
X177258187Y-69667181D01*
X177258944Y-69665351D01*
X177262909Y-69659054D01*
X177288522Y-69605384D01*
X177292212Y-69600406D01*
X177296122Y-69589462D01*
X177296735Y-69588178D01*
X177296773Y-69587639D01*
X177297159Y-69586560D01*
X177323540Y-69475929D01*
X177326529Y-69468716D01*
X177327420Y-69459659D01*
X177327881Y-69457730D01*
X177327718Y-69456637D01*
X177327970Y-69454084D01*
X177326791Y-69372043D01*
X177327881Y-69364724D01*
X177326558Y-69355775D01*
X177326529Y-69353738D01*
X177326106Y-69352717D01*
X177325731Y-69350179D01*
X177297228Y-69241225D01*
X177296735Y-69234276D01*
X177292549Y-69223340D01*
X177292212Y-69222048D01*
X177291888Y-69221611D01*
X177291480Y-69220544D01*
X177261429Y-69163101D01*
X177258187Y-69155273D01*
X177255835Y-69152407D01*
X177255077Y-69150958D01*
X177253580Y-69149660D01*
X177248860Y-69143908D01*
X177224844Y-69120607D01*
X177349987Y-69120607D01*
X177353247Y-69134944D01*
X177551697Y-69725905D01*
X177552062Y-69731037D01*
X177556199Y-69739311D01*
X177559241Y-69748370D01*
X177562752Y-69752418D01*
X177565148Y-69757210D01*
X177572252Y-69763372D01*
X177578415Y-69770477D01*
X177583207Y-69772873D01*
X177587255Y-69776384D01*
X177596174Y-69779357D01*
X177604588Y-69783564D01*
X177609936Y-69783944D01*
X177615018Y-69785638D01*
X177624390Y-69784971D01*
X177633778Y-69785639D01*
X177638867Y-69783942D01*
X177644208Y-69783563D01*
X177652611Y-69779361D01*
X177661541Y-69776385D01*
X177665592Y-69772871D01*
X177670381Y-69770477D01*
X177676539Y-69763376D01*
X177683648Y-69757211D01*
X177686045Y-69752416D01*
X177689555Y-69748370D01*
X177695549Y-69734944D01*
X177838515Y-69302839D01*
X177840815Y-69297288D01*
X177840815Y-69295889D01*
X177898809Y-69120607D01*
X177896735Y-69091417D01*
X177883648Y-69065243D01*
X177861541Y-69046069D01*
X177833778Y-69036815D01*
X177804588Y-69038890D01*
X177778415Y-69051977D01*
X177759241Y-69074084D01*
X177753247Y-69087509D01*
X177713409Y-69207914D01*
X177534784Y-69208771D01*
X177489555Y-69074084D01*
X177470381Y-69051977D01*
X177444208Y-69038891D01*
X177415018Y-69036816D01*
X177387255Y-69046070D01*
X177365148Y-69065244D01*
X177352062Y-69091417D01*
X177349987Y-69120607D01*
X177224844Y-69120607D01*
X177198595Y-69095139D01*
X177197934Y-69093816D01*
X177191309Y-69088070D01*
X177180351Y-69077438D01*
X177177862Y-69076407D01*
X177175827Y-69074642D01*
X177162402Y-69068648D01*
X177076123Y-69041197D01*
X177067602Y-69037668D01*
X177063875Y-69037300D01*
X177062351Y-69036816D01*
X177060375Y-69036956D01*
X177052970Y-69036227D01*
X176895481Y-69037668D01*
X176868445Y-69048867D01*
X176847753Y-69069559D01*
X176836554Y-69096595D01*
X176835113Y-69111227D01*
X176673100Y-69111227D01*
X176646636Y-69086114D01*
X176641811Y-69080550D01*
X176638728Y-69078609D01*
X176637495Y-69077439D01*
X176635664Y-69076680D01*
X176629368Y-69072717D01*
X176581223Y-69049738D01*
X176580352Y-69048867D01*
X176573129Y-69045875D01*
X176558494Y-69038890D01*
X176555804Y-69038698D01*
X176553316Y-69037668D01*
X176538684Y-69036227D01*
X176396471Y-69037528D01*
X176386447Y-69036816D01*
X176382763Y-69037653D01*
X176381195Y-69037668D01*
X176379363Y-69038426D01*
X176372110Y-69040076D01*
X176272969Y-69074642D01*
X176250862Y-69093816D01*
X176237775Y-69119989D01*
X176235701Y-69149180D01*
X176244955Y-69176942D01*
X176264129Y-69199049D01*
X176290302Y-69212136D01*
X176319493Y-69214210D01*
X176333829Y-69210950D01*
X176404978Y-69186143D01*
X176519364Y-69185096D01*
X176550102Y-69199767D01*
X176562200Y-69211248D01*
X176578300Y-69242023D01*
X176578743Y-69264082D01*
X176564429Y-69294074D01*
X176552947Y-69306173D01*
X176516562Y-69325208D01*
X176411539Y-69352682D01*
X176404590Y-69353176D01*
X176393654Y-69357361D01*
X176392362Y-69357699D01*
X176391925Y-69358022D01*
X176390858Y-69358431D01*
X176333419Y-69388479D01*
X176325586Y-69391724D01*
X176322719Y-69394076D01*
X176321272Y-69394834D01*
X176319975Y-69396328D01*
X176314221Y-69401052D01*
X176284997Y-69431847D01*
X176279435Y-69436672D01*
X176277494Y-69439754D01*
X176276323Y-69440989D01*
X176275564Y-69442820D01*
X176271602Y-69449115D01*
X176248623Y-69497259D01*
X176247752Y-69498131D01*
X176244760Y-69505353D01*
X176237775Y-69519989D01*
X176237583Y-69522678D01*
X176236553Y-69525167D01*
X176235112Y-69539799D01*
X176160112Y-69539799D01*
X176160112Y-68961227D01*
X177973809Y-68961227D01*
X177973809Y-69861227D01*
G37*
G36*
X165572958Y-78155482D02*
G01*
X165585057Y-78166963D01*
X165601060Y-78197553D01*
X165601784Y-78247982D01*
X165587285Y-78278360D01*
X165575802Y-78290461D01*
X165545481Y-78306323D01*
X165407795Y-78307138D01*
X165407406Y-78141500D01*
X165470600Y-78141126D01*
X165474201Y-78141924D01*
X165479002Y-78141076D01*
X165541993Y-78140703D01*
X165572958Y-78155482D01*
G37*
G36*
X166662849Y-77873977D02*
G01*
X166698878Y-77908933D01*
X166718379Y-77946209D01*
X166743752Y-78043202D01*
X166744724Y-78110915D01*
X166721630Y-78207761D01*
X166701722Y-78249473D01*
X166665511Y-78286794D01*
X166609532Y-78306311D01*
X166550651Y-78306850D01*
X166549593Y-77855553D01*
X166603394Y-77855060D01*
X166662849Y-77873977D01*
G37*
G36*
X166968683Y-78531228D02*
G01*
X165182969Y-78531228D01*
X165182969Y-77781228D01*
X165257969Y-77781228D01*
X165259410Y-78395860D01*
X165270609Y-78422896D01*
X165291301Y-78443588D01*
X165318337Y-78454787D01*
X165332969Y-78456228D01*
X165550067Y-78454941D01*
X165552159Y-78455639D01*
X165563056Y-78454864D01*
X165576172Y-78454787D01*
X165578661Y-78453755D01*
X165581349Y-78453565D01*
X165595081Y-78448310D01*
X165652523Y-78418259D01*
X165660352Y-78415017D01*
X165663216Y-78412665D01*
X165664667Y-78411907D01*
X165665965Y-78410409D01*
X165671717Y-78405689D01*
X165700940Y-78374893D01*
X165706503Y-78370069D01*
X165708443Y-78366986D01*
X165709615Y-78365752D01*
X165710373Y-78363920D01*
X165714336Y-78357626D01*
X165737314Y-78309481D01*
X165738186Y-78308610D01*
X165741177Y-78301387D01*
X165748163Y-78286752D01*
X165748354Y-78284062D01*
X165749385Y-78281574D01*
X165750826Y-78266942D01*
X165749750Y-78192066D01*
X165750237Y-78190608D01*
X165749601Y-78181661D01*
X165749385Y-78166596D01*
X165748354Y-78164107D01*
X165748163Y-78161418D01*
X165742908Y-78147686D01*
X165712857Y-78090246D01*
X165709614Y-78082417D01*
X165707261Y-78079549D01*
X165706503Y-78078101D01*
X165705007Y-78076804D01*
X165700287Y-78071052D01*
X165669492Y-78041829D01*
X165664667Y-78036265D01*
X165661584Y-78034324D01*
X165660351Y-78033154D01*
X165658520Y-78032395D01*
X165652224Y-78028432D01*
X165608377Y-78007504D01*
X165744478Y-77811425D01*
X165750808Y-77782854D01*
X165750521Y-77781228D01*
X165857969Y-77781228D01*
X165859410Y-78395860D01*
X165870609Y-78422896D01*
X165891301Y-78443588D01*
X165918337Y-78454787D01*
X165932969Y-78456228D01*
X166233315Y-78454787D01*
X166260351Y-78443588D01*
X166281043Y-78422896D01*
X166292242Y-78395860D01*
X166292242Y-78366596D01*
X166281043Y-78339560D01*
X166260351Y-78318868D01*
X166233315Y-78307669D01*
X166218683Y-78306228D01*
X166007795Y-78307239D01*
X166007473Y-78170013D01*
X166147601Y-78169073D01*
X166174637Y-78157874D01*
X166195329Y-78137182D01*
X166206528Y-78110146D01*
X166206528Y-78080882D01*
X166195329Y-78053846D01*
X166174637Y-78033154D01*
X166147601Y-78021955D01*
X166132969Y-78020514D01*
X166007125Y-78021358D01*
X166006737Y-77855874D01*
X166233315Y-77854787D01*
X166260351Y-77843588D01*
X166281043Y-77822896D01*
X166292242Y-77795860D01*
X166292242Y-77781228D01*
X166400826Y-77781228D01*
X166402267Y-78395860D01*
X166413466Y-78422896D01*
X166434158Y-78443588D01*
X166461194Y-78454787D01*
X166475826Y-78456228D01*
X166618043Y-78454926D01*
X166628063Y-78455639D01*
X166631746Y-78454801D01*
X166633315Y-78454787D01*
X166635146Y-78454028D01*
X166642400Y-78452379D01*
X166717440Y-78426216D01*
X166719028Y-78426216D01*
X166727470Y-78422718D01*
X166741539Y-78417814D01*
X166743574Y-78416048D01*
X166746065Y-78415017D01*
X166757430Y-78405690D01*
X166813997Y-78347387D01*
X166820790Y-78341497D01*
X166822778Y-78338337D01*
X166823900Y-78337182D01*
X166824657Y-78335352D01*
X166828622Y-78329055D01*
X166854235Y-78275385D01*
X166857925Y-78270407D01*
X166861835Y-78259463D01*
X166862448Y-78258179D01*
X166862486Y-78257640D01*
X166862872Y-78256561D01*
X166889253Y-78145930D01*
X166892242Y-78138717D01*
X166893133Y-78129660D01*
X166893594Y-78127731D01*
X166893431Y-78126638D01*
X166893683Y-78124085D01*
X166892504Y-78042044D01*
X166893594Y-78034725D01*
X166892271Y-78025776D01*
X166892242Y-78023739D01*
X166891819Y-78022718D01*
X166891444Y-78020180D01*
X166862941Y-77911226D01*
X166862448Y-77904277D01*
X166858262Y-77893341D01*
X166857925Y-77892049D01*
X166857601Y-77891612D01*
X166857193Y-77890545D01*
X166827142Y-77833102D01*
X166823900Y-77825274D01*
X166821548Y-77822408D01*
X166820790Y-77820959D01*
X166819293Y-77819661D01*
X166814573Y-77813909D01*
X166764308Y-77765140D01*
X166763647Y-77763817D01*
X166757022Y-77758071D01*
X166746064Y-77747439D01*
X166743575Y-77746408D01*
X166741540Y-77744643D01*
X166728115Y-77738649D01*
X166641836Y-77711198D01*
X166633315Y-77707669D01*
X166629588Y-77707301D01*
X166628064Y-77706817D01*
X166626088Y-77706957D01*
X166618683Y-77706228D01*
X166461194Y-77707669D01*
X166434158Y-77718868D01*
X166413466Y-77739560D01*
X166402267Y-77766596D01*
X166400826Y-77781228D01*
X166292242Y-77781228D01*
X166292242Y-77766596D01*
X166281043Y-77739560D01*
X166260351Y-77718868D01*
X166233315Y-77707669D01*
X166218683Y-77706228D01*
X165918337Y-77707669D01*
X165891301Y-77718868D01*
X165870609Y-77739560D01*
X165859410Y-77766596D01*
X165857969Y-77781228D01*
X165750521Y-77781228D01*
X165745723Y-77754036D01*
X165729996Y-77729357D01*
X165706022Y-77712576D01*
X165677451Y-77706246D01*
X165648633Y-77711332D01*
X165623955Y-77727058D01*
X165614383Y-77738219D01*
X165437762Y-77992675D01*
X165407058Y-77992857D01*
X165406528Y-77766596D01*
X165395329Y-77739560D01*
X165374637Y-77718868D01*
X165347601Y-77707669D01*
X165318337Y-77707669D01*
X165291301Y-77718868D01*
X165270609Y-77739560D01*
X165259410Y-77766596D01*
X165257969Y-77781228D01*
X165182969Y-77781228D01*
X165182969Y-77631228D01*
X166968683Y-77631228D01*
X166968683Y-78531228D01*
G37*
G36*
X171861528Y-68291228D02*
G01*
X170391541Y-68291228D01*
X170391541Y-67541228D01*
X170466541Y-67541228D01*
X170467982Y-68155860D01*
X170479181Y-68182896D01*
X170499873Y-68203588D01*
X170526909Y-68214787D01*
X170556173Y-68214787D01*
X170583209Y-68203588D01*
X170603901Y-68182896D01*
X170615100Y-68155860D01*
X170616541Y-68141228D01*
X170615134Y-67541228D01*
X170752255Y-67541228D01*
X170753651Y-68136919D01*
X170752438Y-68146467D01*
X170753684Y-68151037D01*
X170753696Y-68155860D01*
X170757513Y-68165075D01*
X170760138Y-68174699D01*
X170763065Y-68178479D01*
X170764895Y-68182896D01*
X170771945Y-68189946D01*
X170778055Y-68197836D01*
X170782208Y-68200209D01*
X170785587Y-68203588D01*
X170794799Y-68207404D01*
X170803464Y-68212355D01*
X170808207Y-68212957D01*
X170812623Y-68214787D01*
X170822597Y-68214787D01*
X170832494Y-68216045D01*
X170837106Y-68214787D01*
X170841887Y-68214787D01*
X170851102Y-68210969D01*
X170860726Y-68208345D01*
X170864506Y-68205417D01*
X170868923Y-68203588D01*
X170875973Y-68196537D01*
X170883863Y-68190428D01*
X170888215Y-68184295D01*
X170889615Y-68182896D01*
X170890184Y-68181521D01*
X170892373Y-68178438D01*
X171095767Y-67820804D01*
X171096553Y-68155860D01*
X171107752Y-68182896D01*
X171128444Y-68203588D01*
X171155480Y-68214787D01*
X171184744Y-68214787D01*
X171211780Y-68203588D01*
X171232472Y-68182896D01*
X171243671Y-68155860D01*
X171296552Y-68155860D01*
X171307751Y-68182896D01*
X171328443Y-68203588D01*
X171355479Y-68214787D01*
X171370111Y-68216228D01*
X171727601Y-68214787D01*
X171754637Y-68203588D01*
X171775329Y-68182896D01*
X171786528Y-68155860D01*
X171786528Y-68126596D01*
X171775329Y-68099560D01*
X171754637Y-68078868D01*
X171727601Y-68067669D01*
X171712969Y-68066228D01*
X171616365Y-68066617D01*
X171615099Y-67526596D01*
X171603900Y-67499560D01*
X171583208Y-67478868D01*
X171556172Y-67467669D01*
X171526908Y-67467669D01*
X171499872Y-67478868D01*
X171479180Y-67499560D01*
X171467981Y-67526596D01*
X171466540Y-67541228D01*
X171467773Y-68067216D01*
X171355479Y-68067669D01*
X171328443Y-68078868D01*
X171307751Y-68099560D01*
X171296552Y-68126596D01*
X171296552Y-68155860D01*
X171243671Y-68155860D01*
X171245112Y-68141228D01*
X171243715Y-67545536D01*
X171244929Y-67535989D01*
X171243682Y-67531418D01*
X171243671Y-67526596D01*
X171239853Y-67517380D01*
X171237229Y-67507757D01*
X171234301Y-67503976D01*
X171232472Y-67499560D01*
X171225421Y-67492509D01*
X171219312Y-67484620D01*
X171215158Y-67482246D01*
X171211780Y-67478868D01*
X171202569Y-67475052D01*
X171193904Y-67470101D01*
X171189159Y-67469497D01*
X171184744Y-67467669D01*
X171174770Y-67467669D01*
X171164873Y-67466411D01*
X171160260Y-67467669D01*
X171155480Y-67467669D01*
X171146267Y-67471484D01*
X171136642Y-67474110D01*
X171132860Y-67477038D01*
X171128444Y-67478868D01*
X171121391Y-67485920D01*
X171113505Y-67492028D01*
X171109151Y-67498160D01*
X171107752Y-67499560D01*
X171107183Y-67500933D01*
X171104994Y-67504017D01*
X170901599Y-67861650D01*
X170900814Y-67526596D01*
X170889615Y-67499560D01*
X170868923Y-67478868D01*
X170841887Y-67467669D01*
X170812623Y-67467669D01*
X170785587Y-67478868D01*
X170764895Y-67499560D01*
X170753696Y-67526596D01*
X170752255Y-67541228D01*
X170615134Y-67541228D01*
X170615100Y-67526596D01*
X170603901Y-67499560D01*
X170583209Y-67478868D01*
X170556173Y-67467669D01*
X170526909Y-67467669D01*
X170499873Y-67478868D01*
X170479181Y-67499560D01*
X170467982Y-67526596D01*
X170466541Y-67541228D01*
X170391541Y-67541228D01*
X170391541Y-67391411D01*
X171861528Y-67391411D01*
X171861528Y-68291228D01*
G37*
G36*
X175081422Y-69203976D02*
G01*
X175117451Y-69238932D01*
X175136952Y-69276208D01*
X175162325Y-69373201D01*
X175163297Y-69440914D01*
X175140203Y-69537760D01*
X175120295Y-69579472D01*
X175084084Y-69616793D01*
X175028105Y-69636310D01*
X174969224Y-69636849D01*
X174968166Y-69185552D01*
X175021967Y-69185059D01*
X175081422Y-69203976D01*
G37*
G36*
X175387256Y-69861227D02*
G01*
X173487256Y-69861227D01*
X173487256Y-69368370D01*
X173562256Y-69368370D01*
X173563434Y-69450410D01*
X173562345Y-69457730D01*
X173563667Y-69466677D01*
X173563697Y-69468716D01*
X173564119Y-69469737D01*
X173564495Y-69472274D01*
X173592997Y-69581228D01*
X173593491Y-69588179D01*
X173597676Y-69599117D01*
X173598014Y-69600406D01*
X173598336Y-69600841D01*
X173598746Y-69601911D01*
X173628798Y-69659357D01*
X173632039Y-69667181D01*
X173634389Y-69670044D01*
X173635149Y-69671497D01*
X173636647Y-69672796D01*
X173641366Y-69678546D01*
X173691628Y-69727313D01*
X173692292Y-69728640D01*
X173698922Y-69734389D01*
X173709874Y-69745016D01*
X173712364Y-69746047D01*
X173714400Y-69747813D01*
X173727825Y-69753807D01*
X173814100Y-69781255D01*
X173822624Y-69784786D01*
X173826352Y-69785153D01*
X173827876Y-69785638D01*
X173829850Y-69785497D01*
X173837256Y-69786227D01*
X173912131Y-69785151D01*
X173913590Y-69785638D01*
X173922536Y-69785002D01*
X173937603Y-69784786D01*
X173940092Y-69783754D01*
X173942780Y-69783564D01*
X173956512Y-69778309D01*
X174026097Y-69741905D01*
X174045271Y-69719798D01*
X174054524Y-69692037D01*
X174052450Y-69662847D01*
X174039363Y-69636672D01*
X174017255Y-69617499D01*
X173989494Y-69608245D01*
X173960304Y-69610319D01*
X173946572Y-69615574D01*
X173906645Y-69636461D01*
X173852073Y-69637245D01*
X173793089Y-69618479D01*
X173757059Y-69583520D01*
X173737560Y-69546248D01*
X173712186Y-69449252D01*
X173711214Y-69381539D01*
X173734308Y-69284693D01*
X173754216Y-69242981D01*
X173790426Y-69205662D01*
X173846712Y-69186037D01*
X173880076Y-69185367D01*
X173933914Y-69202496D01*
X173934529Y-69294198D01*
X173879767Y-69294811D01*
X173852731Y-69306010D01*
X173832039Y-69326702D01*
X173820840Y-69353738D01*
X173820840Y-69383002D01*
X173832039Y-69410038D01*
X173852731Y-69430730D01*
X173879767Y-69441929D01*
X173894399Y-69443370D01*
X174023317Y-69441929D01*
X174050353Y-69430730D01*
X174071045Y-69410038D01*
X174082244Y-69383002D01*
X174083685Y-69368370D01*
X174082244Y-69153738D01*
X174081093Y-69150958D01*
X174071045Y-69126701D01*
X174061717Y-69115336D01*
X174057387Y-69111227D01*
X174190828Y-69111227D01*
X174192224Y-69706918D01*
X174191011Y-69716466D01*
X174192257Y-69721036D01*
X174192269Y-69725859D01*
X174196086Y-69735074D01*
X174198711Y-69744698D01*
X174201638Y-69748478D01*
X174203468Y-69752895D01*
X174210518Y-69759945D01*
X174216628Y-69767835D01*
X174220781Y-69770208D01*
X174224160Y-69773587D01*
X174233372Y-69777403D01*
X174242037Y-69782354D01*
X174246780Y-69782956D01*
X174251196Y-69784786D01*
X174261170Y-69784786D01*
X174271067Y-69786044D01*
X174275679Y-69784786D01*
X174280460Y-69784786D01*
X174289675Y-69780968D01*
X174299299Y-69778344D01*
X174303079Y-69775416D01*
X174307496Y-69773587D01*
X174314546Y-69766536D01*
X174322436Y-69760427D01*
X174326788Y-69754294D01*
X174328188Y-69752895D01*
X174328757Y-69751520D01*
X174330946Y-69748437D01*
X174534340Y-69390803D01*
X174535126Y-69725859D01*
X174546325Y-69752895D01*
X174567017Y-69773587D01*
X174594053Y-69784786D01*
X174623317Y-69784786D01*
X174650353Y-69773587D01*
X174671045Y-69752895D01*
X174682244Y-69725859D01*
X174683685Y-69711227D01*
X174682288Y-69115535D01*
X174682836Y-69111227D01*
X174819399Y-69111227D01*
X174820840Y-69725859D01*
X174832039Y-69752895D01*
X174852731Y-69773587D01*
X174879767Y-69784786D01*
X174894399Y-69786227D01*
X175036616Y-69784925D01*
X175046636Y-69785638D01*
X175050319Y-69784800D01*
X175051888Y-69784786D01*
X175053719Y-69784027D01*
X175060973Y-69782378D01*
X175136013Y-69756215D01*
X175137601Y-69756215D01*
X175146043Y-69752717D01*
X175160112Y-69747813D01*
X175162147Y-69746047D01*
X175164638Y-69745016D01*
X175176003Y-69735689D01*
X175232570Y-69677386D01*
X175239363Y-69671496D01*
X175241351Y-69668336D01*
X175242473Y-69667181D01*
X175243230Y-69665351D01*
X175247195Y-69659054D01*
X175272808Y-69605384D01*
X175276498Y-69600406D01*
X175280408Y-69589462D01*
X175281021Y-69588178D01*
X175281059Y-69587639D01*
X175281445Y-69586560D01*
X175307826Y-69475929D01*
X175310815Y-69468716D01*
X175311706Y-69459659D01*
X175312167Y-69457730D01*
X175312004Y-69456637D01*
X175312256Y-69454084D01*
X175311077Y-69372043D01*
X175312167Y-69364724D01*
X175310844Y-69355775D01*
X175310815Y-69353738D01*
X175310392Y-69352717D01*
X175310017Y-69350179D01*
X175281514Y-69241225D01*
X175281021Y-69234276D01*
X175276835Y-69223340D01*
X175276498Y-69222048D01*
X175276174Y-69221611D01*
X175275766Y-69220544D01*
X175245715Y-69163101D01*
X175242473Y-69155273D01*
X175240121Y-69152407D01*
X175239363Y-69150958D01*
X175237866Y-69149660D01*
X175233146Y-69143908D01*
X175182881Y-69095139D01*
X175182220Y-69093816D01*
X175175595Y-69088070D01*
X175164637Y-69077438D01*
X175162148Y-69076407D01*
X175160113Y-69074642D01*
X175146688Y-69068648D01*
X175060409Y-69041197D01*
X175051888Y-69037668D01*
X175048161Y-69037300D01*
X175046637Y-69036816D01*
X175044661Y-69036956D01*
X175037256Y-69036227D01*
X174879767Y-69037668D01*
X174852731Y-69048867D01*
X174832039Y-69069559D01*
X174820840Y-69096595D01*
X174819399Y-69111227D01*
X174682836Y-69111227D01*
X174683502Y-69105988D01*
X174682255Y-69101417D01*
X174682244Y-69096595D01*
X174678426Y-69087379D01*
X174675802Y-69077756D01*
X174672874Y-69073975D01*
X174671045Y-69069559D01*
X174663994Y-69062508D01*
X174657885Y-69054619D01*
X174653731Y-69052245D01*
X174650353Y-69048867D01*
X174641142Y-69045051D01*
X174632477Y-69040100D01*
X174627732Y-69039496D01*
X174623317Y-69037668D01*
X174613343Y-69037668D01*
X174603446Y-69036410D01*
X174598833Y-69037668D01*
X174594053Y-69037668D01*
X174584840Y-69041483D01*
X174575215Y-69044109D01*
X174571433Y-69047037D01*
X174567017Y-69048867D01*
X174559964Y-69055919D01*
X174552078Y-69062027D01*
X174547724Y-69068159D01*
X174546325Y-69069559D01*
X174545756Y-69070932D01*
X174543567Y-69074016D01*
X174340172Y-69431649D01*
X174339387Y-69096595D01*
X174328188Y-69069559D01*
X174307496Y-69048867D01*
X174280460Y-69037668D01*
X174251196Y-69037668D01*
X174224160Y-69048867D01*
X174203468Y-69069559D01*
X174192269Y-69096595D01*
X174190828Y-69111227D01*
X174057387Y-69111227D01*
X174039655Y-69094400D01*
X174039363Y-69093816D01*
X174035597Y-69090550D01*
X174021780Y-69077438D01*
X174019291Y-69076407D01*
X174017256Y-69074642D01*
X174003831Y-69068648D01*
X173917552Y-69041197D01*
X173909031Y-69037668D01*
X173905304Y-69037300D01*
X173903780Y-69036816D01*
X173901804Y-69036956D01*
X173894399Y-69036227D01*
X173836067Y-69037398D01*
X173827875Y-69036816D01*
X173824273Y-69037634D01*
X173822624Y-69037668D01*
X173820793Y-69038426D01*
X173813539Y-69040076D01*
X173738497Y-69066240D01*
X173736911Y-69066240D01*
X173728472Y-69069735D01*
X173714399Y-69074642D01*
X173712363Y-69076407D01*
X173709875Y-69077438D01*
X173698510Y-69086765D01*
X173641946Y-69145062D01*
X173635149Y-69150957D01*
X173633158Y-69154118D01*
X173632039Y-69155273D01*
X173631281Y-69157100D01*
X173627317Y-69163400D01*
X173601701Y-69217071D01*
X173598014Y-69222048D01*
X173594105Y-69232987D01*
X173593491Y-69234275D01*
X173593452Y-69234814D01*
X173593067Y-69235894D01*
X173566685Y-69346524D01*
X173563697Y-69353738D01*
X173562805Y-69362794D01*
X173562345Y-69364724D01*
X173562507Y-69365816D01*
X173562256Y-69368370D01*
X173487256Y-69368370D01*
X173487256Y-68961227D01*
X175387256Y-68961227D01*
X175387256Y-69861227D01*
G37*
G36*
X190890100Y-78641227D02*
G01*
X188963022Y-78641227D01*
X188963022Y-78488423D01*
X189038022Y-78488423D01*
X189042655Y-78517318D01*
X189057991Y-78542240D01*
X189081698Y-78559397D01*
X189110166Y-78566175D01*
X189139061Y-78561542D01*
X189163983Y-78546206D01*
X189181140Y-78522499D01*
X189185930Y-78508599D01*
X189259994Y-78194346D01*
X189297879Y-78334638D01*
X189299122Y-78343992D01*
X189301526Y-78348145D01*
X189302808Y-78352890D01*
X189308822Y-78360747D01*
X189313784Y-78369317D01*
X189317643Y-78372271D01*
X189320595Y-78376127D01*
X189329157Y-78381084D01*
X189337022Y-78387104D01*
X189341717Y-78388356D01*
X189345920Y-78390789D01*
X189355730Y-78392092D01*
X189365298Y-78394644D01*
X189370113Y-78394004D01*
X189374928Y-78394644D01*
X189384490Y-78392094D01*
X189394306Y-78390790D01*
X189398511Y-78388355D01*
X189403204Y-78387104D01*
X189411063Y-78381088D01*
X189419631Y-78376128D01*
X189422584Y-78372270D01*
X189426442Y-78369317D01*
X189431402Y-78360749D01*
X189437418Y-78352890D01*
X189440113Y-78345702D01*
X189441104Y-78343992D01*
X189441295Y-78342552D01*
X189442581Y-78339124D01*
X189480419Y-78195413D01*
X189559087Y-78522499D01*
X189576243Y-78546206D01*
X189601165Y-78561543D01*
X189630060Y-78566175D01*
X189658528Y-78559397D01*
X189682235Y-78542240D01*
X189697571Y-78517318D01*
X189702204Y-78488424D01*
X189700217Y-78473856D01*
X189560089Y-77891227D01*
X189780827Y-77891227D01*
X189782268Y-78505859D01*
X189793467Y-78532895D01*
X189814159Y-78553587D01*
X189841195Y-78564786D01*
X189870459Y-78564786D01*
X189897495Y-78553587D01*
X189918187Y-78532895D01*
X189929386Y-78505859D01*
X189930827Y-78491227D01*
X189930332Y-78280212D01*
X190124594Y-78279429D01*
X190125125Y-78505859D01*
X190136324Y-78532895D01*
X190157016Y-78553587D01*
X190184052Y-78564786D01*
X190213316Y-78564786D01*
X190240352Y-78553587D01*
X190261044Y-78532895D01*
X190272243Y-78505859D01*
X190325124Y-78505859D01*
X190336323Y-78532895D01*
X190357015Y-78553587D01*
X190384051Y-78564786D01*
X190398683Y-78566227D01*
X190756173Y-78564786D01*
X190783209Y-78553587D01*
X190803901Y-78532895D01*
X190815100Y-78505859D01*
X190815100Y-78476595D01*
X190803901Y-78449559D01*
X190783209Y-78428867D01*
X190756173Y-78417668D01*
X190741541Y-78416227D01*
X190644937Y-78416616D01*
X190643671Y-77876595D01*
X190632472Y-77849559D01*
X190611780Y-77828867D01*
X190584744Y-77817668D01*
X190555480Y-77817668D01*
X190528444Y-77828867D01*
X190507752Y-77849559D01*
X190496553Y-77876595D01*
X190495112Y-77891227D01*
X190496345Y-78417215D01*
X190384051Y-78417668D01*
X190357015Y-78428867D01*
X190336323Y-78449559D01*
X190325124Y-78476595D01*
X190325124Y-78505859D01*
X190272243Y-78505859D01*
X190273684Y-78491227D01*
X190272243Y-77876595D01*
X190261044Y-77849559D01*
X190240352Y-77828867D01*
X190213316Y-77817668D01*
X190184052Y-77817668D01*
X190157016Y-77828867D01*
X190136324Y-77849559D01*
X190125125Y-77876595D01*
X190123684Y-77891227D01*
X190124245Y-78130813D01*
X189929983Y-78131596D01*
X189929386Y-77876595D01*
X189918187Y-77849559D01*
X189897495Y-77828867D01*
X189870459Y-77817668D01*
X189841195Y-77817668D01*
X189814159Y-77828867D01*
X189793467Y-77849559D01*
X189782268Y-77876595D01*
X189780827Y-77891227D01*
X189560089Y-77891227D01*
X189556769Y-77877423D01*
X189555389Y-77867034D01*
X189553475Y-77863729D01*
X189552568Y-77859955D01*
X189546181Y-77851130D01*
X189540727Y-77841709D01*
X189537669Y-77839368D01*
X189535411Y-77836248D01*
X189526135Y-77830540D01*
X189517489Y-77823922D01*
X189513768Y-77822929D01*
X189510489Y-77820912D01*
X189499734Y-77819187D01*
X189489213Y-77816382D01*
X189485398Y-77816888D01*
X189481594Y-77816279D01*
X189470989Y-77818803D01*
X189460205Y-77820237D01*
X189456876Y-77822164D01*
X189453126Y-77823057D01*
X189444298Y-77829445D01*
X189434880Y-77834898D01*
X189432539Y-77837955D01*
X189429419Y-77840214D01*
X189423711Y-77849489D01*
X189417093Y-77858136D01*
X189415068Y-77863534D01*
X189414083Y-77865136D01*
X189413795Y-77866928D01*
X189411930Y-77871903D01*
X189369927Y-78031428D01*
X189327778Y-77875343D01*
X189326142Y-77865136D01*
X189324146Y-77861893D01*
X189323132Y-77858136D01*
X189316513Y-77849489D01*
X189310806Y-77840214D01*
X189307685Y-77837955D01*
X189305345Y-77834898D01*
X189295919Y-77829440D01*
X189287099Y-77823058D01*
X189283354Y-77822166D01*
X189280020Y-77820236D01*
X189269219Y-77818801D01*
X189258631Y-77816280D01*
X189254830Y-77816889D01*
X189251012Y-77816382D01*
X189240487Y-77819188D01*
X189229736Y-77820912D01*
X189226457Y-77822929D01*
X189222736Y-77823922D01*
X189214085Y-77830543D01*
X189204814Y-77836249D01*
X189202556Y-77839367D01*
X189199498Y-77841709D01*
X189194042Y-77851132D01*
X189187657Y-77859955D01*
X189185777Y-77865406D01*
X189184836Y-77867034D01*
X189184596Y-77868833D01*
X189182866Y-77873856D01*
X189038022Y-78488423D01*
X188963022Y-78488423D01*
X188963022Y-77741279D01*
X190890100Y-77741279D01*
X190890100Y-78641227D01*
G37*
G36*
X167008671Y-71531228D02*
G01*
X165081593Y-71531228D01*
X165081593Y-71378424D01*
X165156593Y-71378424D01*
X165161226Y-71407319D01*
X165176562Y-71432241D01*
X165200269Y-71449398D01*
X165228737Y-71456176D01*
X165257632Y-71451543D01*
X165282554Y-71436207D01*
X165299711Y-71412500D01*
X165304501Y-71398600D01*
X165378565Y-71084347D01*
X165416450Y-71224639D01*
X165417693Y-71233993D01*
X165420097Y-71238146D01*
X165421379Y-71242891D01*
X165427393Y-71250748D01*
X165432355Y-71259318D01*
X165436214Y-71262272D01*
X165439166Y-71266128D01*
X165447728Y-71271085D01*
X165455593Y-71277105D01*
X165460288Y-71278357D01*
X165464491Y-71280790D01*
X165474301Y-71282093D01*
X165483869Y-71284645D01*
X165488684Y-71284005D01*
X165493499Y-71284645D01*
X165503061Y-71282095D01*
X165512877Y-71280791D01*
X165517082Y-71278356D01*
X165521775Y-71277105D01*
X165529634Y-71271089D01*
X165538202Y-71266129D01*
X165541155Y-71262271D01*
X165545013Y-71259318D01*
X165549973Y-71250750D01*
X165555989Y-71242891D01*
X165558684Y-71235703D01*
X165559675Y-71233993D01*
X165559866Y-71232553D01*
X165561152Y-71229125D01*
X165598990Y-71085414D01*
X165677658Y-71412500D01*
X165694814Y-71436207D01*
X165719736Y-71451544D01*
X165748631Y-71456176D01*
X165777099Y-71449398D01*
X165800806Y-71432241D01*
X165816142Y-71407319D01*
X165820775Y-71378425D01*
X165818788Y-71363857D01*
X165678660Y-70781228D01*
X165899398Y-70781228D01*
X165900839Y-71395860D01*
X165912038Y-71422896D01*
X165932730Y-71443588D01*
X165959766Y-71454787D01*
X165989030Y-71454787D01*
X166016066Y-71443588D01*
X166036758Y-71422896D01*
X166047957Y-71395860D01*
X166049398Y-71381228D01*
X166048903Y-71170213D01*
X166243165Y-71169430D01*
X166243696Y-71395860D01*
X166254895Y-71422896D01*
X166275587Y-71443588D01*
X166302623Y-71454787D01*
X166331887Y-71454787D01*
X166358923Y-71443588D01*
X166379615Y-71422896D01*
X166390814Y-71395860D01*
X166443695Y-71395860D01*
X166454894Y-71422896D01*
X166475586Y-71443588D01*
X166502622Y-71454787D01*
X166517254Y-71456228D01*
X166874744Y-71454787D01*
X166901780Y-71443588D01*
X166922472Y-71422896D01*
X166933671Y-71395860D01*
X166933671Y-71366596D01*
X166922472Y-71339560D01*
X166901780Y-71318868D01*
X166874744Y-71307669D01*
X166860112Y-71306228D01*
X166763508Y-71306617D01*
X166762242Y-70766596D01*
X166751043Y-70739560D01*
X166730351Y-70718868D01*
X166703315Y-70707669D01*
X166674051Y-70707669D01*
X166647015Y-70718868D01*
X166626323Y-70739560D01*
X166615124Y-70766596D01*
X166613683Y-70781228D01*
X166614916Y-71307216D01*
X166502622Y-71307669D01*
X166475586Y-71318868D01*
X166454894Y-71339560D01*
X166443695Y-71366596D01*
X166443695Y-71395860D01*
X166390814Y-71395860D01*
X166392255Y-71381228D01*
X166390814Y-70766596D01*
X166379615Y-70739560D01*
X166358923Y-70718868D01*
X166331887Y-70707669D01*
X166302623Y-70707669D01*
X166275587Y-70718868D01*
X166254895Y-70739560D01*
X166243696Y-70766596D01*
X166242255Y-70781228D01*
X166242816Y-71020814D01*
X166048554Y-71021597D01*
X166047957Y-70766596D01*
X166036758Y-70739560D01*
X166016066Y-70718868D01*
X165989030Y-70707669D01*
X165959766Y-70707669D01*
X165932730Y-70718868D01*
X165912038Y-70739560D01*
X165900839Y-70766596D01*
X165899398Y-70781228D01*
X165678660Y-70781228D01*
X165675340Y-70767424D01*
X165673960Y-70757035D01*
X165672046Y-70753730D01*
X165671139Y-70749956D01*
X165664752Y-70741131D01*
X165659298Y-70731710D01*
X165656240Y-70729369D01*
X165653982Y-70726249D01*
X165644706Y-70720541D01*
X165636060Y-70713923D01*
X165632339Y-70712930D01*
X165629060Y-70710913D01*
X165618305Y-70709188D01*
X165607784Y-70706383D01*
X165603969Y-70706889D01*
X165600165Y-70706280D01*
X165589560Y-70708804D01*
X165578776Y-70710238D01*
X165575447Y-70712165D01*
X165571697Y-70713058D01*
X165562869Y-70719446D01*
X165553451Y-70724899D01*
X165551110Y-70727956D01*
X165547990Y-70730215D01*
X165542282Y-70739490D01*
X165535664Y-70748137D01*
X165533639Y-70753535D01*
X165532654Y-70755137D01*
X165532366Y-70756929D01*
X165530501Y-70761904D01*
X165488498Y-70921429D01*
X165446349Y-70765344D01*
X165444713Y-70755137D01*
X165442717Y-70751894D01*
X165441703Y-70748137D01*
X165435084Y-70739490D01*
X165429377Y-70730215D01*
X165426256Y-70727956D01*
X165423916Y-70724899D01*
X165414490Y-70719441D01*
X165405670Y-70713059D01*
X165401925Y-70712167D01*
X165398591Y-70710237D01*
X165387790Y-70708802D01*
X165377202Y-70706281D01*
X165373401Y-70706890D01*
X165369583Y-70706383D01*
X165359058Y-70709189D01*
X165348307Y-70710913D01*
X165345028Y-70712930D01*
X165341307Y-70713923D01*
X165332656Y-70720544D01*
X165323385Y-70726250D01*
X165321127Y-70729368D01*
X165318069Y-70731710D01*
X165312613Y-70741133D01*
X165306228Y-70749956D01*
X165304348Y-70755407D01*
X165303407Y-70757035D01*
X165303167Y-70758834D01*
X165301437Y-70763857D01*
X165156593Y-71378424D01*
X165081593Y-71378424D01*
X165081593Y-70631280D01*
X167008671Y-70631280D01*
X167008671Y-71531228D01*
G37*
D12*
X181109287Y-79001587D02*
X181109287Y-80201587D01*
X181109287Y-80201587D02*
X181795001Y-79001587D01*
X181795001Y-79001587D02*
X181795001Y-80201587D01*
X182309287Y-79344444D02*
X182880716Y-79344444D01*
X182195001Y-79001587D02*
X182595001Y-80201587D01*
X182595001Y-80201587D02*
X182995001Y-79001587D01*
X183395001Y-80201587D02*
X183395001Y-79230158D01*
X183395001Y-79230158D02*
X183452144Y-79115872D01*
X183452144Y-79115872D02*
X183509287Y-79058730D01*
X183509287Y-79058730D02*
X183623572Y-79001587D01*
X183623572Y-79001587D02*
X183852144Y-79001587D01*
X183852144Y-79001587D02*
X183966429Y-79058730D01*
X183966429Y-79058730D02*
X184023572Y-79115872D01*
X184023572Y-79115872D02*
X184080715Y-79230158D01*
X184080715Y-79230158D02*
X184080715Y-80201587D01*
X184537858Y-80201587D02*
X185337858Y-80201587D01*
X185337858Y-80201587D02*
X184823572Y-79001587D01*
X185966429Y-79687301D02*
X185852144Y-79744444D01*
X185852144Y-79744444D02*
X185795001Y-79801587D01*
X185795001Y-79801587D02*
X185737858Y-79915872D01*
X185737858Y-79915872D02*
X185737858Y-79973015D01*
X185737858Y-79973015D02*
X185795001Y-80087301D01*
X185795001Y-80087301D02*
X185852144Y-80144444D01*
X185852144Y-80144444D02*
X185966429Y-80201587D01*
X185966429Y-80201587D02*
X186195001Y-80201587D01*
X186195001Y-80201587D02*
X186309287Y-80144444D01*
X186309287Y-80144444D02*
X186366429Y-80087301D01*
X186366429Y-80087301D02*
X186423572Y-79973015D01*
X186423572Y-79973015D02*
X186423572Y-79915872D01*
X186423572Y-79915872D02*
X186366429Y-79801587D01*
X186366429Y-79801587D02*
X186309287Y-79744444D01*
X186309287Y-79744444D02*
X186195001Y-79687301D01*
X186195001Y-79687301D02*
X185966429Y-79687301D01*
X185966429Y-79687301D02*
X185852144Y-79630158D01*
X185852144Y-79630158D02*
X185795001Y-79573015D01*
X185795001Y-79573015D02*
X185737858Y-79458730D01*
X185737858Y-79458730D02*
X185737858Y-79230158D01*
X185737858Y-79230158D02*
X185795001Y-79115872D01*
X185795001Y-79115872D02*
X185852144Y-79058730D01*
X185852144Y-79058730D02*
X185966429Y-79001587D01*
X185966429Y-79001587D02*
X186195001Y-79001587D01*
X186195001Y-79001587D02*
X186309287Y-79058730D01*
X186309287Y-79058730D02*
X186366429Y-79115872D01*
X186366429Y-79115872D02*
X186423572Y-79230158D01*
X186423572Y-79230158D02*
X186423572Y-79458730D01*
X186423572Y-79458730D02*
X186366429Y-79573015D01*
X186366429Y-79573015D02*
X186309287Y-79630158D01*
X186309287Y-79630158D02*
X186195001Y-79687301D01*
X187166429Y-80201587D02*
X187280715Y-80201587D01*
X187280715Y-80201587D02*
X187395001Y-80144444D01*
X187395001Y-80144444D02*
X187452144Y-80087301D01*
X187452144Y-80087301D02*
X187509286Y-79973015D01*
X187509286Y-79973015D02*
X187566429Y-79744444D01*
X187566429Y-79744444D02*
X187566429Y-79458730D01*
X187566429Y-79458730D02*
X187509286Y-79230158D01*
X187509286Y-79230158D02*
X187452144Y-79115872D01*
X187452144Y-79115872D02*
X187395001Y-79058730D01*
X187395001Y-79058730D02*
X187280715Y-79001587D01*
X187280715Y-79001587D02*
X187166429Y-79001587D01*
X187166429Y-79001587D02*
X187052144Y-79058730D01*
X187052144Y-79058730D02*
X186995001Y-79115872D01*
X186995001Y-79115872D02*
X186937858Y-79230158D01*
X186937858Y-79230158D02*
X186880715Y-79458730D01*
X186880715Y-79458730D02*
X186880715Y-79744444D01*
X186880715Y-79744444D02*
X186937858Y-79973015D01*
X186937858Y-79973015D02*
X186995001Y-80087301D01*
X186995001Y-80087301D02*
X187052144Y-80144444D01*
X187052144Y-80144444D02*
X187166429Y-80201587D01*
X188023572Y-80087301D02*
X188080715Y-80144444D01*
X188080715Y-80144444D02*
X188195001Y-80201587D01*
X188195001Y-80201587D02*
X188480715Y-80201587D01*
X188480715Y-80201587D02*
X188595001Y-80144444D01*
X188595001Y-80144444D02*
X188652143Y-80087301D01*
X188652143Y-80087301D02*
X188709286Y-79973015D01*
X188709286Y-79973015D02*
X188709286Y-79858730D01*
X188709286Y-79858730D02*
X188652143Y-79687301D01*
X188652143Y-79687301D02*
X187966429Y-79001587D01*
X187966429Y-79001587D02*
X188709286Y-79001587D01*
D11*
G36*
X180402958Y-69861227D02*
G01*
X178618684Y-69861227D01*
X178618684Y-69539799D01*
X178693684Y-69539799D01*
X178694621Y-69586514D01*
X178694273Y-69587561D01*
X178694788Y-69594817D01*
X178695125Y-69611573D01*
X178696155Y-69614061D01*
X178696347Y-69616751D01*
X178701602Y-69630482D01*
X178731651Y-69687920D01*
X178734895Y-69695751D01*
X178737249Y-69698619D01*
X178738007Y-69700068D01*
X178739501Y-69701364D01*
X178744222Y-69707116D01*
X178775020Y-69736344D01*
X178779844Y-69741906D01*
X178782923Y-69743844D01*
X178784158Y-69745016D01*
X178785990Y-69745774D01*
X178792286Y-69749738D01*
X178840430Y-69772715D01*
X178841302Y-69773587D01*
X178848533Y-69776582D01*
X178863162Y-69783564D01*
X178865848Y-69783754D01*
X178868338Y-69784786D01*
X178882970Y-69786227D01*
X179025187Y-69784925D01*
X179035207Y-69785638D01*
X179038890Y-69784800D01*
X179040459Y-69784786D01*
X179042290Y-69784027D01*
X179049544Y-69782378D01*
X179148683Y-69747813D01*
X179170790Y-69728640D01*
X179183877Y-69702466D01*
X179185952Y-69673276D01*
X179176698Y-69645514D01*
X179157524Y-69623407D01*
X179131351Y-69610320D01*
X179102161Y-69608245D01*
X179087824Y-69611505D01*
X179016676Y-69636310D01*
X178902288Y-69637357D01*
X178871552Y-69622687D01*
X178859453Y-69611206D01*
X178843352Y-69580430D01*
X178842909Y-69558372D01*
X178857224Y-69528380D01*
X178868706Y-69516280D01*
X178905094Y-69497244D01*
X179010114Y-69469771D01*
X179017065Y-69469278D01*
X179028003Y-69465092D01*
X179029292Y-69464755D01*
X179029727Y-69464432D01*
X179030797Y-69464023D01*
X179088243Y-69433970D01*
X179096067Y-69430730D01*
X179098930Y-69428379D01*
X179100383Y-69427620D01*
X179101682Y-69426121D01*
X179107432Y-69421403D01*
X179136655Y-69390608D01*
X179142220Y-69385782D01*
X179144160Y-69382699D01*
X179145330Y-69381467D01*
X179146087Y-69379637D01*
X179150052Y-69373340D01*
X179152424Y-69368370D01*
X179265113Y-69368370D01*
X179266291Y-69450410D01*
X179265202Y-69457730D01*
X179266524Y-69466677D01*
X179266554Y-69468716D01*
X179266976Y-69469737D01*
X179267352Y-69472274D01*
X179295854Y-69581228D01*
X179296348Y-69588179D01*
X179300533Y-69599117D01*
X179300871Y-69600406D01*
X179301193Y-69600841D01*
X179301603Y-69601911D01*
X179331655Y-69659357D01*
X179334896Y-69667181D01*
X179337246Y-69670044D01*
X179338006Y-69671497D01*
X179339504Y-69672796D01*
X179344223Y-69678546D01*
X179394485Y-69727313D01*
X179395149Y-69728640D01*
X179401779Y-69734389D01*
X179412731Y-69745016D01*
X179415221Y-69746047D01*
X179417257Y-69747813D01*
X179430682Y-69753807D01*
X179516957Y-69781255D01*
X179525481Y-69784786D01*
X179529209Y-69785153D01*
X179530733Y-69785638D01*
X179532707Y-69785497D01*
X179540113Y-69786227D01*
X179598446Y-69785055D01*
X179606636Y-69785638D01*
X179610237Y-69784819D01*
X179611888Y-69784786D01*
X179613719Y-69784027D01*
X179620973Y-69782378D01*
X179696013Y-69756215D01*
X179697601Y-69756215D01*
X179706043Y-69752717D01*
X179720112Y-69747813D01*
X179722147Y-69746047D01*
X179724638Y-69745016D01*
X179736003Y-69735689D01*
X179773903Y-69695752D01*
X179785101Y-69668715D01*
X179785101Y-69639452D01*
X179773903Y-69612416D01*
X179753210Y-69591723D01*
X179726174Y-69580525D01*
X179696911Y-69580525D01*
X179669874Y-69591723D01*
X179658509Y-69601051D01*
X179643315Y-69617061D01*
X179587801Y-69636416D01*
X179554433Y-69637086D01*
X179495946Y-69618479D01*
X179459916Y-69583520D01*
X179440417Y-69546248D01*
X179415043Y-69449252D01*
X179414071Y-69381539D01*
X179437165Y-69284693D01*
X179457073Y-69242981D01*
X179493283Y-69205662D01*
X179549569Y-69186037D01*
X179582933Y-69185367D01*
X179641810Y-69204099D01*
X179669875Y-69230731D01*
X179696912Y-69241929D01*
X179726175Y-69241929D01*
X179753211Y-69230730D01*
X179773903Y-69210036D01*
X179785101Y-69183000D01*
X179785101Y-69153737D01*
X179773902Y-69126701D01*
X179764574Y-69115336D01*
X179760244Y-69111227D01*
X179893685Y-69111227D01*
X179895126Y-69725859D01*
X179906325Y-69752895D01*
X179927017Y-69773587D01*
X179954053Y-69784786D01*
X179983317Y-69784786D01*
X180010353Y-69773587D01*
X180031045Y-69752895D01*
X180042244Y-69725859D01*
X180043685Y-69711227D01*
X180042453Y-69185873D01*
X180269031Y-69184786D01*
X180296067Y-69173587D01*
X180316759Y-69152895D01*
X180327958Y-69125859D01*
X180327958Y-69096595D01*
X180316759Y-69069559D01*
X180296067Y-69048867D01*
X180269031Y-69037668D01*
X180254399Y-69036227D01*
X179954053Y-69037668D01*
X179927017Y-69048867D01*
X179906325Y-69069559D01*
X179895126Y-69096595D01*
X179893685Y-69111227D01*
X179760244Y-69111227D01*
X179742512Y-69094400D01*
X179742220Y-69093816D01*
X179738454Y-69090550D01*
X179724637Y-69077438D01*
X179722148Y-69076407D01*
X179720113Y-69074642D01*
X179706688Y-69068648D01*
X179620409Y-69041197D01*
X179611888Y-69037668D01*
X179608161Y-69037300D01*
X179606637Y-69036816D01*
X179604661Y-69036956D01*
X179597256Y-69036227D01*
X179538924Y-69037398D01*
X179530732Y-69036816D01*
X179527130Y-69037634D01*
X179525481Y-69037668D01*
X179523650Y-69038426D01*
X179516396Y-69040076D01*
X179441354Y-69066240D01*
X179439768Y-69066240D01*
X179431329Y-69069735D01*
X179417256Y-69074642D01*
X179415220Y-69076407D01*
X179412732Y-69077438D01*
X179401367Y-69086765D01*
X179344803Y-69145062D01*
X179338006Y-69150957D01*
X179336015Y-69154118D01*
X179334896Y-69155273D01*
X179334138Y-69157100D01*
X179330174Y-69163400D01*
X179304558Y-69217071D01*
X179300871Y-69222048D01*
X179296962Y-69232987D01*
X179296348Y-69234275D01*
X179296309Y-69234814D01*
X179295924Y-69235894D01*
X179269542Y-69346524D01*
X179266554Y-69353738D01*
X179265662Y-69362794D01*
X179265202Y-69364724D01*
X179265364Y-69365816D01*
X179265113Y-69368370D01*
X179152424Y-69368370D01*
X179173029Y-69325195D01*
X179173901Y-69324324D01*
X179176896Y-69317092D01*
X179183878Y-69302464D01*
X179184068Y-69299777D01*
X179185100Y-69297288D01*
X179186541Y-69282656D01*
X179185603Y-69235941D01*
X179185952Y-69234895D01*
X179185436Y-69227638D01*
X179185100Y-69210881D01*
X179184068Y-69208391D01*
X179183878Y-69205705D01*
X179178623Y-69191973D01*
X179148572Y-69134530D01*
X179145330Y-69126702D01*
X179142978Y-69123836D01*
X179142220Y-69122387D01*
X179140723Y-69121089D01*
X179136003Y-69115337D01*
X179105208Y-69086114D01*
X179100383Y-69080550D01*
X179097300Y-69078609D01*
X179096067Y-69077439D01*
X179094236Y-69076680D01*
X179087940Y-69072717D01*
X179039795Y-69049738D01*
X179038924Y-69048867D01*
X179031701Y-69045875D01*
X179017066Y-69038890D01*
X179014376Y-69038698D01*
X179011888Y-69037668D01*
X178997256Y-69036227D01*
X178855043Y-69037528D01*
X178845019Y-69036816D01*
X178841335Y-69037653D01*
X178839767Y-69037668D01*
X178837935Y-69038426D01*
X178830682Y-69040076D01*
X178731541Y-69074642D01*
X178709434Y-69093816D01*
X178696347Y-69119989D01*
X178694273Y-69149180D01*
X178703527Y-69176942D01*
X178722701Y-69199049D01*
X178748874Y-69212136D01*
X178778065Y-69214210D01*
X178792401Y-69210950D01*
X178863550Y-69186143D01*
X178977936Y-69185096D01*
X179008674Y-69199767D01*
X179020772Y-69211248D01*
X179036872Y-69242023D01*
X179037315Y-69264082D01*
X179023001Y-69294074D01*
X179011519Y-69306173D01*
X178975134Y-69325208D01*
X178870111Y-69352682D01*
X178863162Y-69353176D01*
X178852226Y-69357361D01*
X178850934Y-69357699D01*
X178850497Y-69358022D01*
X178849430Y-69358431D01*
X178791991Y-69388479D01*
X178784158Y-69391724D01*
X178781291Y-69394076D01*
X178779844Y-69394834D01*
X178778547Y-69396328D01*
X178772793Y-69401052D01*
X178743569Y-69431847D01*
X178738007Y-69436672D01*
X178736066Y-69439754D01*
X178734895Y-69440989D01*
X178734136Y-69442820D01*
X178730174Y-69449115D01*
X178707195Y-69497259D01*
X178706324Y-69498131D01*
X178703332Y-69505353D01*
X178696347Y-69519989D01*
X178696155Y-69522678D01*
X178695125Y-69525167D01*
X178693684Y-69539799D01*
X178618684Y-69539799D01*
X178618684Y-68961227D01*
X180402958Y-68961227D01*
X180402958Y-69861227D01*
G37*
G36*
X165542958Y-74684052D02*
G01*
X165555057Y-74695535D01*
X165571157Y-74726310D01*
X165571600Y-74748368D01*
X165557286Y-74778360D01*
X165545803Y-74790461D01*
X165515458Y-74806335D01*
X165406367Y-74807068D01*
X165406045Y-74670013D01*
X165512051Y-74669302D01*
X165542958Y-74684052D01*
G37*
G36*
X165571530Y-74369768D02*
G01*
X165583629Y-74381249D01*
X165599632Y-74411839D01*
X165600356Y-74462268D01*
X165585857Y-74492646D01*
X165577600Y-74501347D01*
X165522454Y-74520575D01*
X165405697Y-74521358D01*
X165405309Y-74355790D01*
X165540565Y-74354989D01*
X165571530Y-74369768D01*
G37*
G36*
X166910001Y-75031228D02*
G01*
X165181541Y-75031228D01*
X165181541Y-74281228D01*
X165256541Y-74281228D01*
X165257982Y-74895859D01*
X165257982Y-74895860D01*
X165269181Y-74922896D01*
X165289873Y-74943588D01*
X165316909Y-74954787D01*
X165331541Y-74956228D01*
X165520128Y-74954961D01*
X165522160Y-74955639D01*
X165532896Y-74954876D01*
X165546173Y-74954787D01*
X165548662Y-74953755D01*
X165551350Y-74953565D01*
X165565082Y-74948310D01*
X165622524Y-74918259D01*
X165630353Y-74915017D01*
X165633217Y-74912665D01*
X165634668Y-74911907D01*
X165635966Y-74910409D01*
X165641718Y-74905689D01*
X165670941Y-74874892D01*
X165676505Y-74870068D01*
X165678445Y-74866985D01*
X165679616Y-74865752D01*
X165680374Y-74863921D01*
X165684337Y-74857626D01*
X165707314Y-74809481D01*
X165708186Y-74808610D01*
X165711181Y-74801378D01*
X165718163Y-74786750D01*
X165718353Y-74784063D01*
X165719385Y-74781574D01*
X165720826Y-74766942D01*
X165719888Y-74720228D01*
X165720237Y-74719182D01*
X165719721Y-74711926D01*
X165719385Y-74695168D01*
X165718353Y-74692678D01*
X165718163Y-74689992D01*
X165712908Y-74676260D01*
X165682858Y-74618819D01*
X165679616Y-74610990D01*
X165679244Y-74610537D01*
X165699510Y-74589180D01*
X165705075Y-74584355D01*
X165707015Y-74581272D01*
X165708186Y-74580039D01*
X165708944Y-74578208D01*
X165712908Y-74571912D01*
X165735886Y-74523767D01*
X165736758Y-74522896D01*
X165739749Y-74515673D01*
X165746735Y-74501038D01*
X165746926Y-74498348D01*
X165747957Y-74495860D01*
X165749398Y-74481228D01*
X165748322Y-74406352D01*
X165748809Y-74404894D01*
X165748173Y-74395947D01*
X165747957Y-74380882D01*
X165746926Y-74378393D01*
X165746735Y-74375704D01*
X165741480Y-74361972D01*
X165711429Y-74304532D01*
X165708186Y-74296703D01*
X165705833Y-74293835D01*
X165705075Y-74292387D01*
X165703579Y-74291090D01*
X165698859Y-74285338D01*
X165694528Y-74281228D01*
X165856541Y-74281228D01*
X165857982Y-74895860D01*
X165869181Y-74922896D01*
X165889873Y-74943588D01*
X165916909Y-74954787D01*
X165946173Y-74954787D01*
X165973209Y-74943588D01*
X165993901Y-74922896D01*
X166005100Y-74895860D01*
X166006541Y-74881228D01*
X166005309Y-74355874D01*
X166231887Y-74354787D01*
X166258923Y-74343588D01*
X166279615Y-74322896D01*
X166290814Y-74295860D01*
X166290814Y-74281228D01*
X166342255Y-74281228D01*
X166343696Y-74895860D01*
X166354895Y-74922896D01*
X166375587Y-74943588D01*
X166402623Y-74954787D01*
X166431887Y-74954787D01*
X166458923Y-74943588D01*
X166479615Y-74922896D01*
X166490814Y-74895860D01*
X166492255Y-74881228D01*
X166491873Y-74718320D01*
X166718444Y-74943588D01*
X166745481Y-74954787D01*
X166774743Y-74954787D01*
X166801780Y-74943588D01*
X166822472Y-74922896D01*
X166833671Y-74895859D01*
X166833671Y-74866597D01*
X166822472Y-74839560D01*
X166813145Y-74828195D01*
X166601325Y-74617594D01*
X166827738Y-74313658D01*
X166835001Y-74285310D01*
X166830862Y-74256341D01*
X166815953Y-74231160D01*
X166792542Y-74213602D01*
X166764193Y-74206340D01*
X166735225Y-74210478D01*
X166710044Y-74225387D01*
X166700112Y-74236228D01*
X166494867Y-74511748D01*
X166491380Y-74508281D01*
X166490814Y-74266596D01*
X166479615Y-74239560D01*
X166458923Y-74218868D01*
X166431887Y-74207669D01*
X166402623Y-74207669D01*
X166375587Y-74218868D01*
X166354895Y-74239560D01*
X166343696Y-74266596D01*
X166342255Y-74281228D01*
X166290814Y-74281228D01*
X166290814Y-74266596D01*
X166279615Y-74239560D01*
X166258923Y-74218868D01*
X166231887Y-74207669D01*
X166217255Y-74206228D01*
X165916909Y-74207669D01*
X165889873Y-74218868D01*
X165869181Y-74239560D01*
X165857982Y-74266596D01*
X165856541Y-74281228D01*
X165694528Y-74281228D01*
X165668064Y-74256115D01*
X165663239Y-74250551D01*
X165660156Y-74248610D01*
X165658923Y-74247440D01*
X165657092Y-74246681D01*
X165650796Y-74242718D01*
X165602651Y-74219739D01*
X165601780Y-74218868D01*
X165594557Y-74215876D01*
X165579922Y-74208891D01*
X165577232Y-74208699D01*
X165574744Y-74207669D01*
X165560112Y-74206228D01*
X165316909Y-74207669D01*
X165289873Y-74218868D01*
X165269181Y-74239560D01*
X165257982Y-74266596D01*
X165256541Y-74281228D01*
X165181541Y-74281228D01*
X165181541Y-74131228D01*
X166910001Y-74131228D01*
X166910001Y-75031228D01*
G37*
G36*
X171947135Y-65163977D02*
G01*
X171983164Y-65198933D01*
X172002665Y-65236209D01*
X172028038Y-65333202D01*
X172029010Y-65400915D01*
X172005916Y-65497761D01*
X171986008Y-65539473D01*
X171949797Y-65576794D01*
X171893818Y-65596311D01*
X171834937Y-65596850D01*
X171833879Y-65145553D01*
X171887680Y-65145060D01*
X171947135Y-65163977D01*
G37*
G36*
X172252969Y-65821228D02*
G01*
X170352969Y-65821228D01*
X170352969Y-65328371D01*
X170427969Y-65328371D01*
X170429147Y-65410411D01*
X170428058Y-65417731D01*
X170429380Y-65426678D01*
X170429410Y-65428717D01*
X170429832Y-65429738D01*
X170430208Y-65432275D01*
X170458710Y-65541229D01*
X170459204Y-65548180D01*
X170463389Y-65559118D01*
X170463727Y-65560407D01*
X170464049Y-65560842D01*
X170464459Y-65561912D01*
X170494511Y-65619358D01*
X170497752Y-65627182D01*
X170500102Y-65630045D01*
X170500862Y-65631498D01*
X170502360Y-65632797D01*
X170507079Y-65638547D01*
X170557341Y-65687314D01*
X170558005Y-65688641D01*
X170564635Y-65694390D01*
X170575587Y-65705017D01*
X170578077Y-65706048D01*
X170580113Y-65707814D01*
X170593538Y-65713808D01*
X170679813Y-65741256D01*
X170688337Y-65744787D01*
X170692065Y-65745154D01*
X170693589Y-65745639D01*
X170695563Y-65745498D01*
X170702969Y-65746228D01*
X170777844Y-65745152D01*
X170779303Y-65745639D01*
X170788249Y-65745003D01*
X170803316Y-65744787D01*
X170805805Y-65743755D01*
X170808493Y-65743565D01*
X170822225Y-65738310D01*
X170891810Y-65701906D01*
X170910984Y-65679799D01*
X170920237Y-65652038D01*
X170918163Y-65622848D01*
X170905076Y-65596673D01*
X170882968Y-65577500D01*
X170855207Y-65568246D01*
X170826017Y-65570320D01*
X170812285Y-65575575D01*
X170772358Y-65596462D01*
X170717786Y-65597246D01*
X170658802Y-65578480D01*
X170622772Y-65543521D01*
X170603273Y-65506249D01*
X170577899Y-65409253D01*
X170576927Y-65341540D01*
X170600021Y-65244694D01*
X170619929Y-65202982D01*
X170656139Y-65165663D01*
X170712425Y-65146038D01*
X170745789Y-65145368D01*
X170799627Y-65162497D01*
X170800242Y-65254199D01*
X170745480Y-65254812D01*
X170718444Y-65266011D01*
X170697752Y-65286703D01*
X170686553Y-65313739D01*
X170686553Y-65343003D01*
X170697752Y-65370039D01*
X170718444Y-65390731D01*
X170745480Y-65401930D01*
X170760112Y-65403371D01*
X170889030Y-65401930D01*
X170916066Y-65390731D01*
X170936758Y-65370039D01*
X170947957Y-65343003D01*
X170949398Y-65328371D01*
X170947957Y-65113739D01*
X170946806Y-65110959D01*
X170936758Y-65086702D01*
X170927430Y-65075337D01*
X170923100Y-65071228D01*
X171056541Y-65071228D01*
X171057937Y-65666919D01*
X171056724Y-65676467D01*
X171057970Y-65681037D01*
X171057982Y-65685860D01*
X171061799Y-65695075D01*
X171064424Y-65704699D01*
X171067351Y-65708479D01*
X171069181Y-65712896D01*
X171076231Y-65719946D01*
X171082341Y-65727836D01*
X171086494Y-65730209D01*
X171089873Y-65733588D01*
X171099085Y-65737404D01*
X171107750Y-65742355D01*
X171112493Y-65742957D01*
X171116909Y-65744787D01*
X171126883Y-65744787D01*
X171136780Y-65746045D01*
X171141392Y-65744787D01*
X171146173Y-65744787D01*
X171155388Y-65740969D01*
X171165012Y-65738345D01*
X171168792Y-65735417D01*
X171173209Y-65733588D01*
X171180259Y-65726537D01*
X171188149Y-65720428D01*
X171192501Y-65714295D01*
X171193901Y-65712896D01*
X171194470Y-65711521D01*
X171196659Y-65708438D01*
X171400053Y-65350804D01*
X171400839Y-65685860D01*
X171412038Y-65712896D01*
X171432730Y-65733588D01*
X171459766Y-65744787D01*
X171489030Y-65744787D01*
X171516066Y-65733588D01*
X171536758Y-65712896D01*
X171547957Y-65685860D01*
X171549398Y-65671228D01*
X171548001Y-65075536D01*
X171548549Y-65071228D01*
X171685112Y-65071228D01*
X171686553Y-65685860D01*
X171697752Y-65712896D01*
X171718444Y-65733588D01*
X171745480Y-65744787D01*
X171760112Y-65746228D01*
X171902329Y-65744926D01*
X171912349Y-65745639D01*
X171916032Y-65744801D01*
X171917601Y-65744787D01*
X171919432Y-65744028D01*
X171926686Y-65742379D01*
X172001726Y-65716216D01*
X172003314Y-65716216D01*
X172011756Y-65712718D01*
X172025825Y-65707814D01*
X172027860Y-65706048D01*
X172030351Y-65705017D01*
X172041716Y-65695690D01*
X172098283Y-65637387D01*
X172105076Y-65631497D01*
X172107064Y-65628337D01*
X172108186Y-65627182D01*
X172108943Y-65625352D01*
X172112908Y-65619055D01*
X172138521Y-65565385D01*
X172142211Y-65560407D01*
X172146121Y-65549463D01*
X172146734Y-65548179D01*
X172146772Y-65547640D01*
X172147158Y-65546561D01*
X172173539Y-65435930D01*
X172176528Y-65428717D01*
X172177419Y-65419660D01*
X172177880Y-65417731D01*
X172177717Y-65416638D01*
X172177969Y-65414085D01*
X172176790Y-65332044D01*
X172177880Y-65324725D01*
X172176557Y-65315776D01*
X172176528Y-65313739D01*
X172176105Y-65312718D01*
X172175730Y-65310180D01*
X172147227Y-65201226D01*
X172146734Y-65194277D01*
X172142548Y-65183341D01*
X172142211Y-65182049D01*
X172141887Y-65181612D01*
X172141479Y-65180545D01*
X172111428Y-65123102D01*
X172108186Y-65115274D01*
X172105834Y-65112408D01*
X172105076Y-65110959D01*
X172103579Y-65109661D01*
X172098859Y-65103909D01*
X172048594Y-65055140D01*
X172047933Y-65053817D01*
X172041308Y-65048071D01*
X172030350Y-65037439D01*
X172027861Y-65036408D01*
X172025826Y-65034643D01*
X172012401Y-65028649D01*
X171926122Y-65001198D01*
X171917601Y-64997669D01*
X171913874Y-64997301D01*
X171912350Y-64996817D01*
X171910374Y-64996957D01*
X171902969Y-64996228D01*
X171745480Y-64997669D01*
X171718444Y-65008868D01*
X171697752Y-65029560D01*
X171686553Y-65056596D01*
X171685112Y-65071228D01*
X171548549Y-65071228D01*
X171549215Y-65065989D01*
X171547968Y-65061418D01*
X171547957Y-65056596D01*
X171544139Y-65047380D01*
X171541515Y-65037757D01*
X171538587Y-65033976D01*
X171536758Y-65029560D01*
X171529707Y-65022509D01*
X171523598Y-65014620D01*
X171519444Y-65012246D01*
X171516066Y-65008868D01*
X171506855Y-65005052D01*
X171498190Y-65000101D01*
X171493445Y-64999497D01*
X171489030Y-64997669D01*
X171479056Y-64997669D01*
X171469159Y-64996411D01*
X171464546Y-64997669D01*
X171459766Y-64997669D01*
X171450553Y-65001484D01*
X171440928Y-65004110D01*
X171437146Y-65007038D01*
X171432730Y-65008868D01*
X171425677Y-65015920D01*
X171417791Y-65022028D01*
X171413437Y-65028160D01*
X171412038Y-65029560D01*
X171411469Y-65030933D01*
X171409280Y-65034017D01*
X171205885Y-65391650D01*
X171205100Y-65056596D01*
X171193901Y-65029560D01*
X171173209Y-65008868D01*
X171146173Y-64997669D01*
X171116909Y-64997669D01*
X171089873Y-65008868D01*
X171069181Y-65029560D01*
X171057982Y-65056596D01*
X171056541Y-65071228D01*
X170923100Y-65071228D01*
X170905368Y-65054401D01*
X170905076Y-65053817D01*
X170901310Y-65050551D01*
X170887493Y-65037439D01*
X170885004Y-65036408D01*
X170882969Y-65034643D01*
X170869544Y-65028649D01*
X170783265Y-65001198D01*
X170774744Y-64997669D01*
X170771017Y-64997301D01*
X170769493Y-64996817D01*
X170767517Y-64996957D01*
X170760112Y-64996228D01*
X170701780Y-64997399D01*
X170693588Y-64996817D01*
X170689986Y-64997635D01*
X170688337Y-64997669D01*
X170686506Y-64998427D01*
X170679252Y-65000077D01*
X170604210Y-65026241D01*
X170602624Y-65026241D01*
X170594185Y-65029736D01*
X170580112Y-65034643D01*
X170578076Y-65036408D01*
X170575588Y-65037439D01*
X170564223Y-65046766D01*
X170507659Y-65105063D01*
X170500862Y-65110958D01*
X170498871Y-65114119D01*
X170497752Y-65115274D01*
X170496994Y-65117101D01*
X170493030Y-65123401D01*
X170467414Y-65177072D01*
X170463727Y-65182049D01*
X170459818Y-65192988D01*
X170459204Y-65194276D01*
X170459165Y-65194815D01*
X170458780Y-65195895D01*
X170432398Y-65306525D01*
X170429410Y-65313739D01*
X170428518Y-65322795D01*
X170428058Y-65324725D01*
X170428220Y-65325817D01*
X170427969Y-65328371D01*
X170352969Y-65328371D01*
X170352969Y-64921228D01*
X172252969Y-64921228D01*
X172252969Y-65821228D01*
G37*
G36*
X183033809Y-69861228D02*
G01*
X180935839Y-69861228D01*
X180935839Y-69725860D01*
X181010839Y-69725860D01*
X181022038Y-69752896D01*
X181042730Y-69773588D01*
X181069766Y-69784787D01*
X181084398Y-69786228D01*
X181454284Y-69784847D01*
X181465532Y-69785597D01*
X181467898Y-69784796D01*
X181470458Y-69784787D01*
X181481715Y-69780123D01*
X181493253Y-69776222D01*
X181495156Y-69774556D01*
X181497494Y-69773588D01*
X181506109Y-69764973D01*
X181515277Y-69756951D01*
X181516398Y-69754683D01*
X181518186Y-69752896D01*
X181522847Y-69741642D01*
X181528249Y-69730720D01*
X181528417Y-69728196D01*
X181529385Y-69725860D01*
X181867982Y-69725860D01*
X181879181Y-69752896D01*
X181899873Y-69773588D01*
X181926909Y-69784787D01*
X181941541Y-69786228D01*
X182311427Y-69784847D01*
X182322675Y-69785597D01*
X182325041Y-69784796D01*
X182327601Y-69784787D01*
X182338858Y-69780123D01*
X182350396Y-69776222D01*
X182352299Y-69774556D01*
X182354637Y-69773588D01*
X182363252Y-69764973D01*
X182372420Y-69756951D01*
X182373541Y-69754683D01*
X182375329Y-69752896D01*
X182379990Y-69741642D01*
X182385392Y-69730720D01*
X182385560Y-69728196D01*
X182386528Y-69725860D01*
X182386528Y-69713675D01*
X182387316Y-69701848D01*
X182409987Y-69701848D01*
X182412062Y-69731038D01*
X182425148Y-69757211D01*
X182447255Y-69776385D01*
X182475018Y-69785639D01*
X182504208Y-69783564D01*
X182530381Y-69770478D01*
X182549555Y-69748371D01*
X182555549Y-69734945D01*
X182684178Y-69346171D01*
X182819241Y-69748371D01*
X182838415Y-69770478D01*
X182864588Y-69783565D01*
X182893778Y-69785640D01*
X182921541Y-69776386D01*
X182943648Y-69757212D01*
X182956735Y-69731038D01*
X182958809Y-69701848D01*
X182955549Y-69687511D01*
X182757099Y-69096552D01*
X182756735Y-69091418D01*
X182752595Y-69083138D01*
X182749555Y-69074085D01*
X182746045Y-69070038D01*
X182743648Y-69065244D01*
X182736539Y-69059078D01*
X182730381Y-69051978D01*
X182725592Y-69049583D01*
X182721541Y-69046070D01*
X182712611Y-69043093D01*
X182704208Y-69038892D01*
X182698867Y-69038512D01*
X182693778Y-69036816D01*
X182684390Y-69037483D01*
X182675018Y-69036817D01*
X182669936Y-69038510D01*
X182664588Y-69038891D01*
X182656174Y-69043097D01*
X182647255Y-69046071D01*
X182643207Y-69049581D01*
X182638415Y-69051978D01*
X182632252Y-69059082D01*
X182625148Y-69065245D01*
X182622752Y-69070036D01*
X182619241Y-69074085D01*
X182613247Y-69087510D01*
X182409987Y-69701848D01*
X182387316Y-69701848D01*
X182387338Y-69701522D01*
X182386528Y-69699126D01*
X182386528Y-69696596D01*
X182381864Y-69685338D01*
X182377963Y-69673801D01*
X182375877Y-69670883D01*
X182375329Y-69669560D01*
X182373933Y-69668164D01*
X182369412Y-69661840D01*
X182258353Y-69536069D01*
X182289665Y-69519687D01*
X182297495Y-69516445D01*
X182300362Y-69514091D01*
X182301811Y-69513334D01*
X182303107Y-69511838D01*
X182308860Y-69507118D01*
X182338083Y-69476323D01*
X182343648Y-69471497D01*
X182345588Y-69468414D01*
X182346758Y-69467182D01*
X182347515Y-69465352D01*
X182351480Y-69459055D01*
X182374457Y-69410910D01*
X182375329Y-69410039D01*
X182378324Y-69402807D01*
X182385306Y-69388179D01*
X182385496Y-69385492D01*
X182386528Y-69383003D01*
X182387969Y-69368371D01*
X182386764Y-69236742D01*
X182387380Y-69234896D01*
X182386654Y-69224681D01*
X182386528Y-69210882D01*
X182385496Y-69208392D01*
X182385306Y-69205706D01*
X182380051Y-69191974D01*
X182350000Y-69134531D01*
X182346758Y-69126703D01*
X182344406Y-69123837D01*
X182343648Y-69122388D01*
X182342151Y-69121090D01*
X182337431Y-69115338D01*
X182306636Y-69086115D01*
X182301811Y-69080551D01*
X182298728Y-69078610D01*
X182297495Y-69077440D01*
X182295664Y-69076681D01*
X182289368Y-69072718D01*
X182241223Y-69049739D01*
X182240352Y-69048868D01*
X182233129Y-69045876D01*
X182218494Y-69038891D01*
X182215804Y-69038699D01*
X182213316Y-69037669D01*
X182198684Y-69036228D01*
X182038587Y-69037467D01*
X182036635Y-69036817D01*
X182026114Y-69037564D01*
X182012623Y-69037669D01*
X182010134Y-69038699D01*
X182007445Y-69038891D01*
X181993713Y-69044146D01*
X181936273Y-69074196D01*
X181928444Y-69077440D01*
X181925576Y-69079792D01*
X181924128Y-69080551D01*
X181922831Y-69082046D01*
X181917079Y-69086767D01*
X181879181Y-69126703D01*
X181867982Y-69153740D01*
X181867982Y-69183002D01*
X181879181Y-69210039D01*
X181899873Y-69230731D01*
X181926910Y-69241930D01*
X181956172Y-69241930D01*
X181983209Y-69230731D01*
X181994574Y-69221404D01*
X182012990Y-69201996D01*
X182043370Y-69186103D01*
X182179266Y-69185050D01*
X182210102Y-69199768D01*
X182222200Y-69211249D01*
X182238116Y-69241673D01*
X182239099Y-69349052D01*
X182224429Y-69379789D01*
X182212948Y-69391887D01*
X182182358Y-69407891D01*
X182112388Y-69408896D01*
X182103263Y-69408288D01*
X182100980Y-69409060D01*
X182098337Y-69409098D01*
X182087079Y-69413761D01*
X182075542Y-69417663D01*
X182073638Y-69419328D01*
X182071301Y-69420297D01*
X182062686Y-69428912D01*
X182053518Y-69436934D01*
X182052396Y-69439201D01*
X182050609Y-69440989D01*
X182045947Y-69452242D01*
X182040546Y-69463165D01*
X182040377Y-69465688D01*
X182039410Y-69468025D01*
X182039410Y-69480209D01*
X182038600Y-69492363D01*
X182039410Y-69494758D01*
X182039410Y-69497289D01*
X182044073Y-69508546D01*
X182047975Y-69520084D01*
X182050060Y-69523001D01*
X182050609Y-69524325D01*
X182052004Y-69525720D01*
X182056526Y-69532045D01*
X182149062Y-69636839D01*
X181926909Y-69637669D01*
X181899873Y-69648868D01*
X181879181Y-69669560D01*
X181867982Y-69696596D01*
X181867982Y-69725860D01*
X181529385Y-69725860D01*
X181529385Y-69713675D01*
X181530195Y-69701522D01*
X181529385Y-69699126D01*
X181529385Y-69696596D01*
X181524721Y-69685338D01*
X181520820Y-69673801D01*
X181518734Y-69670883D01*
X181518186Y-69669560D01*
X181516790Y-69668164D01*
X181512269Y-69661840D01*
X181401210Y-69536069D01*
X181432522Y-69519687D01*
X181440352Y-69516445D01*
X181443219Y-69514091D01*
X181444668Y-69513334D01*
X181445964Y-69511838D01*
X181451717Y-69507118D01*
X181480940Y-69476323D01*
X181486505Y-69471497D01*
X181488445Y-69468414D01*
X181489615Y-69467182D01*
X181490372Y-69465352D01*
X181494337Y-69459055D01*
X181517314Y-69410910D01*
X181518186Y-69410039D01*
X181521181Y-69402807D01*
X181528163Y-69388179D01*
X181528353Y-69385492D01*
X181529385Y-69383003D01*
X181530826Y-69368371D01*
X181529621Y-69236742D01*
X181530237Y-69234896D01*
X181529511Y-69224681D01*
X181529385Y-69210882D01*
X181528353Y-69208392D01*
X181528163Y-69205706D01*
X181522908Y-69191974D01*
X181503269Y-69154433D01*
X181610839Y-69154433D01*
X181622038Y-69181469D01*
X181631366Y-69192834D01*
X181671303Y-69230732D01*
X181681357Y-69234896D01*
X181698338Y-69241930D01*
X181698339Y-69241930D01*
X181698340Y-69241930D01*
X181727603Y-69241930D01*
X181754639Y-69230731D01*
X181754643Y-69230726D01*
X181766003Y-69221404D01*
X181803882Y-69181487D01*
X181803901Y-69181469D01*
X181815100Y-69154433D01*
X181815100Y-69125170D01*
X181803902Y-69098133D01*
X181794575Y-69086768D01*
X181754639Y-69048868D01*
X181754638Y-69048867D01*
X181730555Y-69038892D01*
X181727603Y-69037669D01*
X181727602Y-69037669D01*
X181698338Y-69037669D01*
X181695386Y-69038892D01*
X181671302Y-69048867D01*
X181659937Y-69058195D01*
X181622038Y-69098131D01*
X181622037Y-69098133D01*
X181610839Y-69125170D01*
X181610839Y-69154433D01*
X181503269Y-69154433D01*
X181492857Y-69134531D01*
X181489615Y-69126703D01*
X181487263Y-69123837D01*
X181486505Y-69122388D01*
X181485008Y-69121090D01*
X181480288Y-69115338D01*
X181449493Y-69086115D01*
X181444668Y-69080551D01*
X181441585Y-69078610D01*
X181440352Y-69077440D01*
X181438521Y-69076681D01*
X181432225Y-69072718D01*
X181384080Y-69049739D01*
X181383209Y-69048868D01*
X181375986Y-69045876D01*
X181361351Y-69038891D01*
X181358661Y-69038699D01*
X181356173Y-69037669D01*
X181341541Y-69036228D01*
X181181444Y-69037467D01*
X181179492Y-69036817D01*
X181168971Y-69037564D01*
X181155480Y-69037669D01*
X181152991Y-69038699D01*
X181150302Y-69038891D01*
X181136570Y-69044146D01*
X181079130Y-69074196D01*
X181071301Y-69077440D01*
X181068433Y-69079792D01*
X181066985Y-69080551D01*
X181065688Y-69082046D01*
X181059936Y-69086767D01*
X181022038Y-69126703D01*
X181010839Y-69153740D01*
X181010839Y-69183002D01*
X181022038Y-69210039D01*
X181042730Y-69230731D01*
X181069767Y-69241930D01*
X181099029Y-69241930D01*
X181126066Y-69230731D01*
X181137431Y-69221404D01*
X181155847Y-69201996D01*
X181186227Y-69186103D01*
X181322123Y-69185050D01*
X181352959Y-69199768D01*
X181365057Y-69211249D01*
X181380973Y-69241673D01*
X181381956Y-69349052D01*
X181367286Y-69379789D01*
X181355805Y-69391887D01*
X181325215Y-69407891D01*
X181255245Y-69408896D01*
X181246120Y-69408288D01*
X181243837Y-69409060D01*
X181241194Y-69409098D01*
X181229936Y-69413761D01*
X181218399Y-69417663D01*
X181216495Y-69419328D01*
X181214158Y-69420297D01*
X181205543Y-69428912D01*
X181196375Y-69436934D01*
X181195253Y-69439201D01*
X181193466Y-69440989D01*
X181188804Y-69452242D01*
X181183403Y-69463165D01*
X181183234Y-69465688D01*
X181182267Y-69468025D01*
X181182267Y-69480209D01*
X181181457Y-69492363D01*
X181182267Y-69494758D01*
X181182267Y-69497289D01*
X181186930Y-69508546D01*
X181190832Y-69520084D01*
X181192917Y-69523001D01*
X181193466Y-69524325D01*
X181194861Y-69525720D01*
X181199383Y-69532045D01*
X181291919Y-69636839D01*
X181069766Y-69637669D01*
X181042730Y-69648868D01*
X181022038Y-69669560D01*
X181010839Y-69696596D01*
X181010839Y-69725860D01*
X180935839Y-69725860D01*
X180935839Y-68961228D01*
X183033809Y-68961228D01*
X183033809Y-69861228D01*
G37*
G36*
X189422959Y-67765481D02*
G01*
X189435058Y-67776962D01*
X189451061Y-67807552D01*
X189451785Y-67857981D01*
X189437286Y-67888359D01*
X189425803Y-67900460D01*
X189395482Y-67916322D01*
X189257796Y-67917137D01*
X189257407Y-67751499D01*
X189320601Y-67751125D01*
X189324202Y-67751923D01*
X189329003Y-67751075D01*
X189391994Y-67750702D01*
X189422959Y-67765481D01*
G37*
G36*
X190512850Y-67483976D02*
G01*
X190548879Y-67518932D01*
X190568380Y-67556208D01*
X190593753Y-67653201D01*
X190594725Y-67720914D01*
X190571631Y-67817760D01*
X190551723Y-67859472D01*
X190515512Y-67896793D01*
X190459533Y-67916310D01*
X190400652Y-67916849D01*
X190399594Y-67465552D01*
X190453395Y-67465059D01*
X190512850Y-67483976D01*
G37*
G36*
X190818684Y-68141227D02*
G01*
X189032970Y-68141227D01*
X189032970Y-67391227D01*
X189107970Y-67391227D01*
X189109411Y-68005859D01*
X189120610Y-68032895D01*
X189141302Y-68053587D01*
X189168338Y-68064786D01*
X189182970Y-68066227D01*
X189400068Y-68064940D01*
X189402160Y-68065638D01*
X189413057Y-68064863D01*
X189426173Y-68064786D01*
X189428662Y-68063754D01*
X189431350Y-68063564D01*
X189445082Y-68058309D01*
X189502524Y-68028258D01*
X189510353Y-68025016D01*
X189513217Y-68022664D01*
X189514668Y-68021906D01*
X189515966Y-68020408D01*
X189521718Y-68015688D01*
X189550941Y-67984892D01*
X189556504Y-67980068D01*
X189558444Y-67976985D01*
X189559616Y-67975751D01*
X189560374Y-67973919D01*
X189564337Y-67967625D01*
X189587315Y-67919480D01*
X189588187Y-67918609D01*
X189591178Y-67911386D01*
X189598164Y-67896751D01*
X189598355Y-67894061D01*
X189599386Y-67891573D01*
X189600827Y-67876941D01*
X189599751Y-67802065D01*
X189600238Y-67800607D01*
X189599602Y-67791660D01*
X189599386Y-67776595D01*
X189598355Y-67774106D01*
X189598164Y-67771417D01*
X189592909Y-67757685D01*
X189562858Y-67700245D01*
X189559615Y-67692416D01*
X189557262Y-67689548D01*
X189556504Y-67688100D01*
X189555008Y-67686803D01*
X189550288Y-67681051D01*
X189519493Y-67651828D01*
X189514668Y-67646264D01*
X189511585Y-67644323D01*
X189510352Y-67643153D01*
X189508521Y-67642394D01*
X189502225Y-67638431D01*
X189458378Y-67617503D01*
X189594479Y-67421424D01*
X189600809Y-67392853D01*
X189600522Y-67391227D01*
X189707970Y-67391227D01*
X189709411Y-68005859D01*
X189720610Y-68032895D01*
X189741302Y-68053587D01*
X189768338Y-68064786D01*
X189782970Y-68066227D01*
X190083316Y-68064786D01*
X190110352Y-68053587D01*
X190131044Y-68032895D01*
X190142243Y-68005859D01*
X190142243Y-67976595D01*
X190131044Y-67949559D01*
X190110352Y-67928867D01*
X190083316Y-67917668D01*
X190068684Y-67916227D01*
X189857796Y-67917238D01*
X189857474Y-67780012D01*
X189997602Y-67779072D01*
X190024638Y-67767873D01*
X190045330Y-67747181D01*
X190056529Y-67720145D01*
X190056529Y-67690881D01*
X190045330Y-67663845D01*
X190024638Y-67643153D01*
X189997602Y-67631954D01*
X189982970Y-67630513D01*
X189857126Y-67631357D01*
X189856738Y-67465873D01*
X190083316Y-67464786D01*
X190110352Y-67453587D01*
X190131044Y-67432895D01*
X190142243Y-67405859D01*
X190142243Y-67391227D01*
X190250827Y-67391227D01*
X190252268Y-68005859D01*
X190263467Y-68032895D01*
X190284159Y-68053587D01*
X190311195Y-68064786D01*
X190325827Y-68066227D01*
X190468044Y-68064925D01*
X190478064Y-68065638D01*
X190481747Y-68064800D01*
X190483316Y-68064786D01*
X190485147Y-68064027D01*
X190492401Y-68062378D01*
X190567441Y-68036215D01*
X190569029Y-68036215D01*
X190577471Y-68032717D01*
X190591540Y-68027813D01*
X190593575Y-68026047D01*
X190596066Y-68025016D01*
X190607431Y-68015689D01*
X190663998Y-67957386D01*
X190670791Y-67951496D01*
X190672779Y-67948336D01*
X190673901Y-67947181D01*
X190674658Y-67945351D01*
X190678623Y-67939054D01*
X190704236Y-67885384D01*
X190707926Y-67880406D01*
X190711836Y-67869462D01*
X190712449Y-67868178D01*
X190712487Y-67867639D01*
X190712873Y-67866560D01*
X190739254Y-67755929D01*
X190742243Y-67748716D01*
X190743134Y-67739659D01*
X190743595Y-67737730D01*
X190743432Y-67736637D01*
X190743684Y-67734084D01*
X190742505Y-67652043D01*
X190743595Y-67644724D01*
X190742272Y-67635775D01*
X190742243Y-67633738D01*
X190741820Y-67632717D01*
X190741445Y-67630179D01*
X190712942Y-67521225D01*
X190712449Y-67514276D01*
X190708263Y-67503340D01*
X190707926Y-67502048D01*
X190707602Y-67501611D01*
X190707194Y-67500544D01*
X190677143Y-67443101D01*
X190673901Y-67435273D01*
X190671549Y-67432407D01*
X190670791Y-67430958D01*
X190669294Y-67429660D01*
X190664574Y-67423908D01*
X190614309Y-67375139D01*
X190613648Y-67373816D01*
X190607023Y-67368070D01*
X190596065Y-67357438D01*
X190593576Y-67356407D01*
X190591541Y-67354642D01*
X190578116Y-67348648D01*
X190491837Y-67321197D01*
X190483316Y-67317668D01*
X190479589Y-67317300D01*
X190478065Y-67316816D01*
X190476089Y-67316956D01*
X190468684Y-67316227D01*
X190311195Y-67317668D01*
X190284159Y-67328867D01*
X190263467Y-67349559D01*
X190252268Y-67376595D01*
X190250827Y-67391227D01*
X190142243Y-67391227D01*
X190142243Y-67376595D01*
X190131044Y-67349559D01*
X190110352Y-67328867D01*
X190083316Y-67317668D01*
X190068684Y-67316227D01*
X189768338Y-67317668D01*
X189741302Y-67328867D01*
X189720610Y-67349559D01*
X189709411Y-67376595D01*
X189707970Y-67391227D01*
X189600522Y-67391227D01*
X189595724Y-67364035D01*
X189579997Y-67339356D01*
X189556023Y-67322575D01*
X189527452Y-67316245D01*
X189498634Y-67321331D01*
X189473956Y-67337057D01*
X189464384Y-67348218D01*
X189287763Y-67602674D01*
X189257059Y-67602856D01*
X189256529Y-67376595D01*
X189245330Y-67349559D01*
X189224638Y-67328867D01*
X189197602Y-67317668D01*
X189168338Y-67317668D01*
X189141302Y-67328867D01*
X189120610Y-67349559D01*
X189109411Y-67376595D01*
X189107970Y-67391227D01*
X189032970Y-67391227D01*
X189032970Y-67241227D01*
X190818684Y-67241227D01*
X190818684Y-68141227D01*
G37*
%LPC*%
D13*
X163040000Y-67690000D03*
D14*
X163040000Y-71190000D03*
X163040000Y-74690000D03*
X163040000Y-78190000D03*
D13*
X193010000Y-78190000D03*
D14*
X193010000Y-74690000D03*
X193010000Y-71190000D03*
X193010000Y-67690000D03*
D15*
X168770000Y-70430000D03*
D16*
X168770000Y-67890000D03*
X168770000Y-65350000D03*
D17*
X174480000Y-67385000D03*
X176980000Y-67385000D03*
X179480000Y-67385000D03*
D18*
X181980000Y-67385000D03*
%LPD*%
M02*
