M48
; DRILL file {KiCad 8.0.0} date 2024-05-22T11:23:01+0300
; FORMAT={-:-/ absolute / metric / decimal}
; #@! TF.CreationDate,2024-05-22T11:23:01+03:00
; #@! TF.GenerationSoftware,Kicad,Pcbnew,8.0.0
; #@! TF.FileFunction,Plated,1,2,PTH
FMAT,2
METRIC
; #@! TA.AperFunction,Plated,PTH,ViaDrill
T1C0.400
; #@! TA.AperFunction,Plated,PTH,ViaDrill
T2C0.500
; #@! TA.AperFunction,Plated,PTH,ComponentDrill
T3C0.950
; #@! TA.AperFunction,Plated,PTH,ComponentDrill
T4C1.000
; #@! TA.AperFunction,Plated,PTH,ComponentDrill
T5C1.200
%
G90
G05
T1
X174.43Y-76.31
X174.45Y-74.77
X179.0Y-73.3
X183.17Y-77.41
X183.73Y-75.82
T2
X168.72Y-78.17
X171.55Y-72.36
X175.57Y-70.59
X180.03Y-70.58
T3
X174.48Y-67.385
X176.98Y-67.385
X179.48Y-67.385
X181.98Y-67.385
T4
X168.77Y-65.35
X168.77Y-67.89
X168.77Y-70.43
T5
X163.04Y-67.69
X163.04Y-71.19
X163.04Y-74.69
X163.04Y-78.19
X193.01Y-67.69
X193.01Y-71.19
X193.01Y-74.69
X193.01Y-78.19
M30
